{
.appVersion = "3205";
.formatVersion = 3;
axes = (
{
default = 100;
name = Weight;
tag = wght;
}
);
customParameters = (
{
name = openTypeGaspRangeRecords;
value = (
{
rangeGaspBehavior = (
0,
1,
2,
3
);
rangeMaxPPEM = 65535;
}
);
},
{
name = openTypeHeadFlags;
value = (
0,
1
);
},
{
name = openTypeHeadLowestRecPPEM;
value = 6;
},
{
name = openTypeHheaCaretOffset;
value = 0;
},
{
name = openTypeHheaCaretSlopeRise;
value = 1;
},
{
name = openTypeHheaCaretSlopeRun;
value = 0;
},
{
name = licenses;
value = "This Font Software is licensed under the SIL Open Font License, Version 1.1. This license is available with a FAQ at: https://scripts.sil.org/OFL";
},
{
name = licenseURL;
value = "http://scripts.sil.org/OFL";
},
{
name = preferredFamilyNames;
value = Surety;
},
{
name = codePageRanges;
value = (
);
},
{
name = openTypeOS2FamilyClass;
value = (
0,
0
);
},
{
name = panose;
value = (
0,
0,
0,
0,
0,
0,
0,
0,
0,
0
);
},
{
name = openTypeOS2SubscriptXOffset;
value = 0;
},
{
name = openTypeOS2SubscriptXSize;
value = 650;
},
{
name = openTypeOS2SubscriptYOffset;
value = 75;
},
{
name = openTypeOS2SubscriptYSize;
value = 600;
},
{
name = openTypeOS2SuperscriptXOffset;
value = 0;
},
{
name = openTypeOS2SuperscriptXSize;
value = 650;
},
{
name = openTypeOS2SuperscriptYOffset;
value = 350;
},
{
name = openTypeOS2SuperscriptYSize;
value = 600;
},
{
name = fsType;
value = (
);
},
{
name = unicodeRanges;
value = (
0,
1,
2,
3,
5,
11,
20,
31,
32,
33,
35,
38,
45,
60,
62
);
},
{
name = vendorID;
value = PYRS;
}
);
date = "2023-06-29 06:21:04 +0000";
familyName = Surety;
fontMaster = (
{
axesValues = (
100
);
customParameters = (
{
name = typoAscender;
value = 1100;
},
{
name = typoDescender;
value = -540;
},
{
name = typoLineGap;
value = 0;
},
{
name = hheaAscender;
value = 1100;
},
{
name = hheaDescender;
value = -540;
},
{
name = hheaLineGap;
value = 0;
},
{
name = winAscent;
value = 1100;
},
{
name = winDescent;
value = 540;
},
{
name = strikeoutPosition;
value = 291;
},
{

glyphs = (
{
color = 5;
glyphname = A;
lastChange = "2023-07-09 00:08:45 +0000";
layers = (
{
layerId = m001;
shapes = (
{
closed = 1;
nodes = (
(150,252,l),
(281,614,l),
(417,252,l)
);
},
{
closed = 1;
nodes = (
(10,0,l),
(59,0,l),
(136,213,l),
(431,213,l),
(512,-6,l),
(562,5,l),
(303,680,l),
(257,680,l)
);
}
);
width = 572;
},
{
layerId = m003;
shapes = (
{
closed = 1;
nodes = (
(288,277,l),
(353,462,l),
(421,277,l)
);
},
{
closed = 1;
nodes = (
(10,0,l),
(191,0,l),
(238,134,l),
(473,134,l),
(522,-10,l),
(701,8,l),
(447,680,l),
(265,680,l)
);
}
);
width = 711;
}
);
unicode = 65;
},
{
glyphname = Aogonek;
layers = (
{
layerId = m001;
shapes = (
{
closed = 1;
nodes = (
(504,-5,o),
(476,-45,o),
(460,-87,o),
(460,-106,q),
(460,-134,o),
(488,-178,o),
(535,-202,o),
(565,-202,q),
(582,-202,o),
(612,-194,o),
(637,-180,o),
(645,-172,q),
(623,-145,l),
(611,-155,o),
(584,-166,o),
(568,-166,q),
(549,-166,o),
(506,-137,o),
(506,-107,q),
(506,-85,o),
(519,-46,o),
(544,-11,o),
(562,5,q),
(522,9,l)
);
},
{
closed = 1;
nodes = (
(150,252,l),
(281,614,l),
(417,252,l)
);
},
{
closed = 1;
nodes = (
(10,0,l),
(59,0,l),
(136,213,l),
(431,213,l),
(512,-6,l),
(562,5,l),
(303,680,l),
(257,680,l)
);
}
);
width = 572;
},
{
layerId = m003;
shapes = (
{
closed = 1;
nodes = (
(525,-3,o),
(513,-40,o),
(506,-76,o),
(506,-89,q),
(506,-126,o),
(540,-194,o),
(606,-236,o),
(654,-236,q),
(681,-236,o),
(741,-224,o),
(792,-202,o),
(803,-189,q),
(742,-87,l),
(728,-100,o),
(708,-107,o),
(698,-107,q),
(685,-107,o),
(669,-87,o),
(669,-75,q),
(669,-63,o),
(680,-30,o),
(695,1,o),
(701,9,q),
(531,9,l)
);
},
{
closed = 1;
nodes = (
(288,277,l),
(353,462,l),
(421,277,l)
);
},
{
closed = 1;
nodes = (
(10,0,l),
(191,0,l),
(238,134,l),
(473,134,l),
(522,-10,l),
(701,8,l),
(447,680,l),
(265,680,l)
);
}
);
width = 711;
}
);
unicode = 260;
},
{
color = 5;
glyphname = AE;
lastChange = "2023-07-09 00:08:45 +0000";
layers = (
{
layerId = m001;
shapes = (
{
closed = 1;
nodes = (
(809,0,l),
(803,39,l),
(483,39,l),
(483,329,l),
(728,329,l),
(723,368,l),
(483,368,l),
(483,641,l),
(786,641,l),
(781,680,l),
(426,680,l),
(10,5,l),
(60,-5,l),
(190,213,l),
(434,213,l),
(434,0,l)
);
},
{
closed = 1;
nodes = (
(434,252,l),
(214,252,l),
(434,611,l)
);
}
);
width = 829;
},
{
layerId = m003;
shapes = (
{
closed = 1;
nodes = (
(967,0,l),
(950,143,l),
(651,143,l),
(651,270,l),
(877,270,l),
(860,413,l),
(651,413,l),
(651,537,l),
(937,537,l),
(920,680,l),
(469,680,l),
(10,13,l),
(185,-13,l),
(277,128,l),
(469,128,l),
(469,0,l)
);
},
{
closed = 1;
nodes = (
(469,271,l),
(378,271,l),
(469,399,l)
);
}
);
width = 987;
}
);
unicode = 198;
},
{
color = 5;
glyphname = B;
lastChange = "2023-07-09 00:08:45 +0000";
layers = (
{
layerId = m001;
shapes = (
{
closed = 1;
nodes = (
(322,0,o),
(414,19,o),
(485,62,o),
(525,134,o),
(525,188,q),
(525,259,o),
(448,343,o),
(386,362,q),
(427,382,o),
(487,452,o),
(487,503,q),
(487,571,o),
(424,648,o),
(314,680,o),
(242,680,q),
(100,680,l),
(100,0,l),
(269,0,l)
);
},
{
closed = 1;
nodes = (
(309,641,o),
(390,615,o),
(435,554,o),
(435,502,q),
(435,454,o),
(381,397,o),
(293,373,o),
(241,372,q),
(150,372,l),
(150,641,l),
(254,641,l)
);
},
{
closed = 1;
nodes = (
(374,333,o),
(473,262,o),
(473,186,q),
(473,134,o),
(422,69,o),
(335,39,o),
(281,39,q),
(150,39,l),
(150,333,l),
(292,333,l)
);
}
);
width = 565;
},
{
layerId = m003;
shapes = (
{
closed = 1;
nodes = (
(392,0,o),
(495,20,o),
(577,66,o),
(625,145,o),
(625,203,q),
(625,252,o),
(574,333,o),
(534,361,q),
(557,384,o),
(597,444,o),
(597,484,q),
(597,554,o),
(519,640,o),
(392,680,o),
(317,680,q),
(80,680,l),
(80,0,l),
(337,0,l)
);
},
{
closed = 1;
nodes = (
(342,537,o),
(385,523,o),
(409,496,o),
(409,475,q),
(409,457,o),
(379,434,o),
(331,422,o),
(303,422,q),
(262,422,l),
(262,537,l),
(311,537,l)
);
},
{
closed = 1;
nodes = (
(385,279,o),
(437,241,o),
(437,207,q),
(437,186,o),
(412,157,o),
(369,143,o),
(341,143,q),
(262,143,l),
(262,279,l),
(339,279,l)
);
}
);
width = 645;
}
);
unicode = 66;
},
{
color = 5;
glyphname = C;
lastChange = "2023-07-09 00:08:45 +0000";
layers = (
{
layerId = m001;
shapes = (
{
closed = 1;
nodes = (
(505,670,o),
(443,686,o),
(381,694,o),
(360,694,q),
(287,694,o),
(171,639,o),
(92,541,o),
(50,411,o),
(50,336,q),
(50,267,o),
(87,141,o),
(161,43,o),
(276,-14,o),
(354,-14,q),
(383,-14,o),
(447,-4,o),
(505,13,o),
(523,23,q),
(499,59,l),
(472,47,o),
(403,29,o),
(349,29,q),
(291,29,o),
(200,79,o),
(138,165,o),
(105,276,o),
(105,337,q),
(105,433,o),
(172,574,o),
(287,651,o),
(358,651,q),
(394,651,o),
(443,643,o),
(483,630,o),
(503,621,q),
(523,657,l)
);
}
);
width = 553;
},
{
layerId = m003;
shapes = (
{
closed = 1;
nodes = (
(553,655,o),
(485,680,o),
(413,693,o),
(379,693,q),
(304,693,o),
(176,641,o),
(82,546,o),
(30,415,o),
(30,337,q),
(30,260,o),
(78,132,o),
(169,38,o),
(300,-13,o),
(383,-13,q),
(418,-13,o),
(491,-1,o),
(560,21,o),
(586,37,q),
(517,173,l),
(491,157,o),
(425,136,o),
(388,136,q),
(356,136,o),
(295,163,o),
(247,215,o),
(218,290,o),
(218,338,q),
(218,400,o),
(266,493,o),
(341,544,o),
(381,544,q),
(404,544,o),
(442,539,o),
(489,527,o),
(525,514,q),
(579,637,l)
);
}
);
width = 596;
}
);
unicode = 67;
},
{
color = 5;
glyphname = D;
lastChange = "2023-07-09 00:08:45 +0000";
layers = (
{
layerId = m001;
shapes = (
{
closed = 1;
nodes = (
(421,0,o),
(549,93,o),
(612,250,o),
(612,344,q),
(612,437,o),
(555,589,o),
(429,680,o),
(324,680,q),
(100,680,l),
(100,0,l),
(321,0,l)
);
},
{
closed = 1;
nodes = (
(410,641,o),
(511,559,o),
(561,424,o),
(561,343,q),
(561,256,o),
(501,118,o),
(394,39,o),
(322,39,q),
(149,39,l),
(149,641,l),
(332,641,l)
);
}
);
width = 662;
},
{
layerId = m003;
shapes = (
{
closed = 1;
nodes = (
(480,0,o),
(626,84,o),
(709,238,o),
(709,344,q),
(709,441,o),
(636,592,o),
(493,680,o),
(388,680,q),
(80,680,l),
(80,0,l),
(384,0,l)
);
},
{
closed = 1;
nodes = (
(425,537,o),
(488,487,o),
(521,400,o),
(521,344,q),
(521,277,o),
(481,187,o),
(414,143,o),
(372,143,q),
(262,143,l),
(262,537,l),
(379,537,l)
);
}
);
width = 739;
}
);
unicode = 68;
},
{
glyphname = Dcroat;
layers = (
{
layerId = m001;
shapes = (
{
closed = 1;
nodes = (
(258,353,l),
(10,353,l),
(20,314,l),
(268,314,l)
);
},
{
closed = 1;
nodes = (
(421,0,o),
(549,93,o),
(612,250,o),
(612,344,q),
(612,437,o),
(555,589,o),
(429,680,o),
(324,680,q),
(100,680,l),
(100,0,l),
(321,0,l)
);
},
{
closed = 1;
nodes = (
(410,641,o),
(511,559,o),
(561,424,o),
(561,343,q),
(561,256,o),
(501,118,o),
(394,39,o),
(322,39,q),
(149,39,l),
(149,641,l),
(332,641,l)
);
}
);
width = 662;
},
{
layerId = m003;
shapes = (
{
closed = 1;
nodes = (
(369,413,l),
(0,413,l),
(17,270,l),
(386,270,l)
);
},
{
closed = 1;
nodes = (
(480,0,o),
(626,84,o),
(709,238,o),
(709,344,q),
(709,441,o),
(636,592,o),
(493,680,o),
(388,680,q),
(80,680,l),
(80,0,l),
(384,0,l)
);
},
{
closed = 1;
nodes = (
(425,537,o),
(488,487,o),
(521,400,o),
(521,344,q),
(521,277,o),
(481,187,o),
(414,143,o),
(372,143,q),
(262,143,l),
(262,537,l),
(379,537,l)
);
}
);
width = 739;
}
);
unicode = 272;
},
{
glyphname = Eth;
layers = (
{
layerId = m001;
shapes = (
{
closed = 1;
nodes = (
(258,353,l),
(10,353,l),
(20,314,l),
(268,314,l)
);
},
{
closed = 1;
nodes = (
(421,0,o),
(549,93,o),
(612,250,o),
(612,344,q),
(612,437,o),
(555,589,o),
(429,680,o),
(324,680,q),
(100,680,l),
(100,0,l),
(321,0,l)
);
},
{
closed = 1;
nodes = (
(410,641,o),
(511,559,o),
(561,424,o),
(561,343,q),
(561,256,o),
(501,118,o),
(394,39,o),
(322,39,q),
(149,39,l),
(149,641,l),
(332,641,l)
);
}
);
width = 662;
},
{
layerId = m003;
shapes = (
{
closed = 1;
nodes = (
(369,413,l),
(0,413,l),
(17,270,l),
(386,270,l)
);
},
{
closed = 1;
nodes = (
(480,0,o),
(626,84,o),
(709,238,o),
(709,344,q),
(709,441,o),
(636,592,o),
(493,680,o),
(388,680,q),
(80,680,l),
(80,0,l),
(384,0,l)
);
},
{
closed = 1;
nodes = (
(425,537,o),
(488,487,o),
(521,400,o),
(521,344,q),
(521,277,o),
(481,187,o),
(414,143,o),
(372,143,q),
(262,143,l),
(262,537,l),
(379,537,l)
);
}
);
width = 739;
}
);
unicode = 208;
},
{
color = 5;
glyphname = E;
lastChange = "2023-07-09 00:08:45 +0000";
layers = (
{
layerId = m001;
shapes = (
{
closed = 1;
nodes = (
(469,39,l),
(149,39,l),
(149,329,l),
(394,329,l),
(389,368,l),
(149,368,l),
(149,641,l),
(452,641,l),
(447,680,l),
(100,680,l),
(100,0,l),
(475,0,l)
);
}
);
width = 495;
},
{
layerId = m003;
shapes = (
{
closed = 1;
nodes = (
(561,143,l),
(262,143,l),
(262,270,l),
(488,270,l),
(471,413,l),
(262,413,l),
(262,537,l),
(548,537,l),
(531,680,l),
(80,680,l),
(80,0,l),
(578,0,l)
);
}
);
width = 598;
}
);
unicode = 69;
},
{
color = 5;
glyphname = F;
lastChange = "2023-07-09 00:08:45 +0000";
layers = (
{
layerId = m001;
shapes = (
{
closed = 1;
nodes = (
(149,364,l),
(149,641,l),
(443,641,l),
(436,680,l),
(100,680,l),
(100,0,l),
(149,0,l),
(149,325,l),
(384,325,l),
(378,364,l)
);
}
);
width = 463;
},
{
layerId = m003;
shapes = (
{
closed = 1;
nodes = (
(262,400,l),
(262,536,l),
(538,536,l),
(521,679,l),
(80,679,l),
(80,0,l),
(262,0,l),
(262,257,l),
(488,257,l),
(471,400,l)
);
}
);
width = 558;
}
);
unicode = 70;
},
{
color = 5;
glyphname = G;
lastChange = "2023-07-09 00:08:45 +0000";
layers = (
{
layerId = m001;
shapes = (
{
closed = 1;
nodes = (
(503,303,l),
(503,52,l),
(478,43,o),
(417,29,o),
(381,29,q),
(301,29,o),
(176,108,o),
(105,247,o),
(105,336,q),
(105,405,o),
(147,521,o),
(224,606,o),
(328,653,o),
(390,653,q),
(426,653,o),
(475,646,o),
(515,633,o),
(535,624,q),
(554,657,l),
(536,670,o),
(473,686,o),
(409,694,o),
(388,694,q),
(315,694,o),
(191,641,o),
(100,545,o),
(50,414,o),
(50,336,q),
(50,237,o),
(130,78,o),
(279,-14,o),
(382,-14,q),
(411,-14,o),
(475,-2,o),
(534,19,o),
(552,31,q),
(552,342,l),
(356,342,l),
(350,303,l)
);
}
);
width = 614;
},
{
layerId = m003;
shapes = (
{
closed = 1;
nodes = (
(462,259,l),
(462,142,l),
(445,139,o),
(412,136,o),
(398,136,q),
(356,136,o),
(273,176,o),
(218,265,o),
(218,338,q),
(218,390,o),
(252,468,o),
(306,519,o),
(371,544,o),
(401,544,q),
(424,544,o),
(472,539,o),
(529,527,o),
(565,514,q),
(619,637,l),
(593,655,o),
(515,680,o),
(433,693,o),
(399,693,q),
(324,693,o),
(190,645,o),
(88,553,o),
(30,421,o),
(30,337,q),
(30,226,o),
(119,70,o),
(283,-13,o),
(393,-13,q),
(428,-13,o),
(516,-1,o),
(600,21,o),
(626,37,q),
(626,392,l),
(361,392,l),
(345,259,l)
);
}
);
width = 666;
}
);
unicode = 71;
},
{
color = 5;
glyphname = H;
lastChange = "2023-07-09 00:08:45 +0000";
layers = (
{
layerId = m001;
shapes = (
{
closed = 1;
nodes = (
(555,680,l),
(506,680,l),
(506,364,l),
(149,364,l),
(149,685,l),
(100,680,l),
(100,0,l),
(149,0,l),
(149,325,l),
(506,325,l),
(506,0,l),
(555,0,l)
);
}
);
width = 655;
},
{
layerId = m003;
shapes = (
{
closed = 1;
nodes = (
(682,680,l),
(500,680,l),
(500,409,l),
(262,409,l),
(262,686,l),
(80,680,l),
(80,0,l),
(262,0,l),
(262,266,l),
(500,266,l),
(500,0,l),
(682,0,l)
);
}
);
width = 762;
}
);
unicode = 72;
},
{
color = 5;
glyphname = I;
lastChange = "2023-07-09 00:08:45 +0000";
layers = (
{
layerId = m001;
shapes = (
{
closed = 1;
nodes = (
(149,680,l),
(100,680,l),
(100,0,l),
(149,0,l)
);
}
);
width = 249;
},
{
layerId = m003;
shapes = (
{
closed = 1;
nodes = (
(262,680,l),
(80,680,l),
(80,0,l),
(262,0,l)
);
}
);
width = 342;
}
);
unicode = 73;
},
{
glyphname = Iogonek;
layers = (
{
layerId = m001;
shapes = (
{
closed = 1;
nodes = (
(83,-18,o),
(50,-75,o),
(50,-111,q),
(50,-139,o),
(78,-183,o),
(125,-207,o),
(155,-207,q),
(180,-207,o),
(222,-190,o),
(235,-177,q),
(213,-150,l),
(201,-160,o),
(174,-171,o),
(158,-171,q),
(139,-171,o),
(96,-142,o),
(96,-112,q),
(96,-90,o),
(108,-51,o),
(131,-16,o),
(149,0,q),
(102,4,l)
);
},
{
closed = 1;
nodes = (
(149,680,l),
(100,680,l),
(100,0,l),
(149,0,l)
);
}
);
width = 249;
},
{
layerId = m003;
shapes = (
{
closed = 1;
nodes = (
(73,-19,o),
(65,-79,o),
(65,-98,q),
(65,-135,o),
(99,-203,o),
(165,-245,o),
(213,-245,q),
(253,-245,o),
(319,-218,o),
(336,-198,q),
(275,-96,l),
(261,-109,o),
(241,-116,o),
(231,-116,q),
(218,-116,o),
(202,-96,o),
(202,-84,q),
(202,-57,o),
(227,-22,o),
(256,-3,o),
(262,0,q),
(80,0,l)
);
},
{
closed = 1;
nodes = (
(262,680,l),
(80,680,l),
(80,0,l),
(262,0,l)
);
}
);
width = 342;
}
);
unicode = 302;
},
{
color = 5;
glyphname = J;
lastChange = "2023-07-09 00:09:07 +0000";
layers = (
{
layerId = m001;
shapes = (
{
closed = 1;
nodes = (
(98,9,o),
(82,-33,o),
(44,-57,o),
(10,-70,q),
(34,-102,l),
(82,-87,o),
(131,-51,o),
(147,2,o),
(147,42,q),
(147,680,l),
(98,680,l),
(98,49,l)
);
}
);
width = 237;
},
{
layerId = m003;
shapes = (
{
closed = 1;
nodes = (
(93,119,o),
(82,85,o),
(47,53,o),
(10,38,q),
(84,-106,l),
(155,-83,o),
(238,-34,o),
(275,34,o),
(275,84,q),
(275,680,l),
(93,680,l),
(93,137,l)
);
}
);
width = 345;
}
);
unicode = 74;
},
{
color = 5;
glyphname = K;
lastChange = "2023-07-09 00:09:07 +0000";
layers = (
{
layerId = m001;
shapes = (
{
closed = 1;
nodes = (
(236,362,l),
(149,269,l),
(149,0,l),
(100,0,l),
(100,680,l),
(149,680,l),
(149,325,l),
(485,695,l),
(519,663,l),
(269,397,l),
(570,0,l),
(508,0,l)
);
}
);
width = 580;
},
{
layerId = m003;
shapes = (
{
closed = 1;
nodes = (
(315,254,l),
(262,204,l),
(262,0,l),
(80,0,l),
(80,680,l),
(262,680,l),
(262,444,l),
(535,695,l),
(676,593,l),
(445,377,l),
(720,0,l),
(489,0,l)
);
}
);
width = 730;
}
);
unicode = 75;
},
{
color = 5;
glyphname = L;
lastChange = "2023-07-09 00:09:07 +0000";
layers = (
{
layerId = m001;
shapes = (
{
closed = 1;
nodes = (
(149,39,l),
(149,680,l),
(100,680,l),
(100,0,l),
(481,0,l),
(476,39,l)
);
}
);
width = 491;
},
{
layerId = m003;
shapes = (
{
closed = 1;
nodes = (
(262,143,l),
(262,680,l),
(80,680,l),
(80,0,l),
(568,0,l),
(551,143,l)
);
}
);
width = 578;
}
);
unicode = 76;
},
{
glyphname = Lslash;
layers = (
{
layerId = m001;
shapes = (
{
closed = 1;
nodes = (
(100,279,l),
(32,219,l),
(10,255,l),
(100,333,l),
(100,680,l),
(149,680,l),
(149,376,l),
(259,472,l),
(281,438,l),
(149,322,l),
(149,39,l),
(476,39,l),
(481,0,l),
(100,0,l)
);
}
);
width = 491;
},
{
layerId = m003;
shapes = (
{
closed = 1;
nodes = (
(80,181,l),
(56,167,l),
(0,306,l),
(80,355,l),
(80,680,l),
(262,680,l),
(262,466,l),
(394,547,l),
(467,414,l),
(262,291,l),
(262,143,l),
(551,143,l),
(568,0,l),
(80,0,l)
);
}
);
width = 578;
}
);
unicode = 321;
},
{
color = 5;
glyphname = M;
lastChange = "2023-07-09 00:09:07 +0000";
layers = (
{
layerId = m001;
shapes = (
{
closed = 1;
nodes = (
(574,566,l),
(574,0,l),
(623,0,l),
(623,680,l),
(596,680,l),
(361,318,l),
(122,680,l),
(100,680,l),
(100,0,l),
(149,0,l),
(149,561,l),
(353,245,l),
(373,249,l)
);
}
);
width = 723;
},
{
layerId = m003;
shapes = (
{
closed = 1;
nodes = (
(537,329,l),
(537,0,l),
(719,0,l),
(719,680,l),
(598,680,l),
(410,421,l),
(205,680,l),
(80,680,l),
(80,0,l),
(262,0,l),
(262,329,l),
(372,195,l),
(445,205,l)
);
}
);
width = 799;
}
);
unicode = 77;
},
{
color = 5;
glyphname = N;
lastChange = "2023-07-09 00:09:07 +0000";
layers = (
{
layerId = m001;
shapes = (
{
closed = 1;
nodes = (
(149,574,l),
(163,545,l),
(531,0,l),
(558,0,l),
(558,680,l),
(509,680,l),
(509,111,l),
(475,170,l),
(128,680,l),
(100,680,l),
(100,0,l),
(149,0,l)
);
}
);
width = 658;
},
{
layerId = m003;
shapes = (
{
closed = 1;
nodes = (
(262,358,l),
(313,288,l),
(523,0,l),
(693,0,l),
(693,680,l),
(511,680,l),
(514,311,l),
(462,380,l),
(249,680,l),
(80,680,l),
(80,0,l),
(262,0,l)
);
}
);
width = 773;
}
);
unicode = 78;
},
{
glyphname = O;
layers = (
{
layerId = m001;
shapes = (
{
closed = 1;
nodes = (
(264,-14,o),
(128,76,o),
(50,235,o),
(50,337,q),
(50,441,o),
(129,603,o),
(268,696,o),
(357,696,q),
(444,696,o),
(580,606,o),
(657,447,o),
(657,345,q),
(657,241,o),
(578,79,o),
(440,-14,o),
(351,-14,q)
);
},
{
closed = 1;
nodes = (
(423,27,o),
(537,109,o),
(602,252,o),
(602,344,q),
(602,434,o),
(539,574,o),
(429,654,o),
(358,654,q),
(285,654,o),
(170,572,o),
(105,430,o),
(105,338,q),
(105,248,o),
(168,107,o),
(278,27,o),
(349,27,q)
);
}
);
width = 707;
},
{
layerId = m003;
shapes = (
{
closed = 1;
nodes = (
(273,-14,o),
(115,80,o),
(30,240,o),
(30,337,q),
(30,442,o),
(120,603,o),
(279,694,o),
(381,694,q),
(492,694,o),
(649,600,o),
(733,442,o),
(733,344,q),
(733,239,o),
(644,77,o),
(485,-14,o),
(381,-14,q)
);
},
{
closed = 1;
nodes = (
(427,138,o),
(502,184,o),
(546,276,o),
(546,344,q),
(546,401,o),
(507,490,o),
(434,542,o),
(383,542,q),
(338,542,o),
(262,491,o),
(217,400,o),
(217,338,q),
(217,281,o),
(256,190,o),
(329,138,o),
(380,138,q)
);
}
);
width = 763;
}
);
unicode = 79;
},
{
glyphname = Oslash;
layers = (
{
layerId = m001;
shapes = (
{
closed = 1;
nodes = (
(264,-14,o),
(128,76,o),
(50,235,o),
(50,337,q),
(50,441,o),
(129,603,o),
(268,696,o),
(357,696,q),
(444,696,o),
(580,606,o),
(657,447,o),
(657,345,q),
(657,241,o),
(578,79,o),
(440,-14,o),
(351,-14,q)
);
},
{
closed = 1;
nodes = (
(423,27,o),
(537,109,o),
(602,252,o),
(602,344,q),
(602,434,o),
(539,574,o),
(429,654,o),
(358,654,q),
(285,654,o),
(170,572,o),
(105,430,o),
(105,338,q),
(105,248,o),
(168,107,o),
(278,27,o),
(349,27,q)
);
},
{
closed = 1;
nodes = (
(207,58,l),
(456,642,l),
(504,629,l),
(251,37,l)
);
}
);
width = 707;
},
{
layerId = m003;
shapes = (
{
closed = 1;
nodes = (
(273,-14,o),
(115,80,o),
(30,240,o),
(30,337,q),
(30,442,o),
(120,603,o),
(279,694,o),
(381,694,q),
(492,694,o),
(649,600,o),
(733,442,o),
(733,344,q),
(733,239,o),
(644,77,o),
(485,-14,o),
(381,-14,q)
);
},
{
closed = 1;
nodes = (
(427,138,o),
(502,184,o),
(546,276,o),
(546,344,q),
(546,401,o),
(507,490,o),
(434,542,o),
(383,542,q),
(338,542,o),
(262,491,o),
(217,400,o),
(217,338,q),
(217,281,o),
(256,190,o),
(329,138,o),
(380,138,q)
);
},
{
closed = 1;
nodes = (
(233,140,l),
(421,596,l),
(540,542,l),
(341,77,l)
);
}
);
width = 763;
}
);
unicode = 216;
},
{
glyphname = OE;
layers = (
{
layerId = m001;
shapes = (
{
closed = 1;
nodes = (
(505,670,o),
(443,686,o),
(381,694,o),
(360,694,q),
(287,694,o),
(171,639,o),
(92,541,o),
(50,411,o),
(50,336,q),
(50,267,o),
(87,141,o),
(161,43,o),
(276,-14,o),
(354,-14,q),
(383,-14,o),
(447,-4,o),
(505,13,o),
(523,23,q),
(499,59,l),
(472,47,o),
(403,29,o),
(349,29,q),
(291,29,o),
(200,79,o),
(138,165,o),
(105,276,o),
(105,337,q),
(105,433,o),
(172,574,o),
(287,651,o),
(358,651,q),
(394,651,o),
(443,643,o),
(483,630,o),
(503,621,q),
(523,657,l)
);
},
{
closed = 1;
nodes = (
(866,39,l),
(546,39,l),
(546,329,l),
(791,329,l),
(786,368,l),
(546,368,l),
(546,641,l),
(849,641,l),
(844,680,l),
(497,680,l),
(497,0,l),
(872,0,l)
);
}
);
width = 892;
},
{
layerId = m003;
shapes = (
{
closed = 1;
nodes = (
(553,655,o),
(485,680,o),
(413,693,o),
(379,693,q),
(304,693,o),
(176,641,o),
(82,546,o),
(30,415,o),
(30,337,q),
(30,260,o),
(78,132,o),
(169,38,o),
(300,-13,o),
(383,-13,q),
(418,-13,o),
(491,-1,o),
(560,21,o),
(586,37,q),
(517,173,l),
(491,157,o),
(425,136,o),
(388,136,q),
(356,136,o),
(295,163,o),
(247,215,o),
(218,290,o),
(218,338,q),
(218,400,o),
(266,493,o),
(341,544,o),
(381,544,q),
(404,544,o),
(442,539,o),
(489,527,o),
(525,514,q),
(579,637,l)
);
},
{
closed = 1;
nodes = (
(995,143,l),
(696,143,l),
(696,270,l),
(922,270,l),
(905,413,l),
(696,413,l),
(696,537,l),
(982,537,l),
(965,680,l),
(514,680,l),
(514,0,l),
(1012,0,l)
);
}
);
width = 1032;
}
);
unicode = 338;
},
{
glyphname = P;
layers = (
{
layerId = m001;
shapes = (
{
closed = 1;
nodes = (
(149,264,l),
(252,264,l),
(305,264,o),
(398,289,o),
(468,340,o),
(508,420,o),
(508,475,q),
(508,549,o),
(444,639,o),
(334,680,o),
(263,680,q),
(100,680,l),
(100,0,l),
(149,0,l)
);
},
{
closed = 1;
nodes = (
(330,640,o),
(412,606,o),
(458,533,o),
(458,474,q),
(458,418,o),
(406,341,o),
(318,303,o),
(264,303,q),
(149,303,l),
(149,640,l),
(275,640,l)
);
}
);
width = 548;
},
{
layerId = m003;
shapes = (
{
closed = 1;
nodes = (
(262,198,l),
(358,198,l),
(413,198,o),
(516,226,o),
(598,284,o),
(646,374,o),
(646,435,q),
(646,517,o),
(569,626,o),
(442,680,o),
(366,680,q),
(80,680,l),
(80,0,l),
(262,0,l)
);
},
{
closed = 1;
nodes = (
(391,537,o),
(434,511,o),
(458,465,o),
(458,435,q),
(458,409,o),
(433,366,o),
(390,341,o),
(362,341,q),
(262,341,l),
(262,537,l),
(360,537,l)
);
}
);
width = 666;
}
);
unicode = 80;
},
{
glyphname = Thorn;
layers = (
{
layerId = m001;
shapes = (
{
closed = 1;
nodes = (
(334,600,o),
(444,559,o),
(508,469,o),
(508,395,q),
(508,340,o),
(468,260,o),
(398,209,o),
(305,184,o),
(252,184,q),
(149,184,l),
(149,0,l),
(100,0,l),
(100,680,l),
(149,680,l),
(149,600,l),
(263,600,l)
);
},
{
closed = 1;
nodes = (
(318,223,o),
(406,261,o),
(458,338,o),
(458,394,q),
(458,453,o),
(412,526,o),
(330,560,o),
(275,560,q),
(149,560,l),
(149,223,l),
(264,223,l)
);
}
);
width = 548;
},
{
layerId = m003;
shapes = (
{
closed = 1;
nodes = (
(442,600,o),
(569,546,o),
(646,437,o),
(646,355,q),
(646,294,o),
(598,204,o),
(516,146,o),
(413,118,o),
(358,118,q),
(262,118,l),
(262,0,l),
(80,0,l),
(80,680,l),
(262,680,l),
(262,600,l),
(366,600,l)
);
},
{
closed = 1;
nodes = (
(390,261,o),
(433,286,o),
(458,329,o),
(458,355,q),
(458,385,o),
(434,431,o),
(391,457,o),
(360,457,q),
(262,457,l),
(262,261,l),
(362,261,l)
);
}
);
width = 666;
}
);
unicode = 222;
},
{
glyphname = Q;
layers = (
{
layerId = m001;
shapes = (
{
closed = 1;
nodes = (
(405,176,l),
(618,-24,l),
(650,1,l),
(439,209,l)
);
},
{
closed = 1;
nodes = (
(268,696,o),
(129,603,o),
(50,441,o),
(50,337,q),
(50,235,o),
(128,76,o),
(264,-14,o),
(351,-14,q),
(440,-14,o),
(578,79,o),
(657,241,o),
(657,345,q),
(657,447,o),
(580,606,o),
(444,696,o),
(357,696,q)
);
},
{
closed = 1;
nodes = (
(105,430,o),
(170,572,o),
(285,654,o),
(358,654,q),
(429,654,o),
(539,574,o),
(602,434,o),
(602,344,q),
(602,252,o),
(537,109,o),
(423,27,o),
(349,27,q),
(278,27,o),
(168,107,o),
(105,248,o),
(105,338,q)
);
}
);
width = 707;
},
{
layerId = m003;
shapes = (
{
closed = 1;
nodes = (
(336,229,l),
(605,-52,l),
(717,45,l),
(456,331,l)
);
},
{
closed = 1;
nodes = (
(279,694,o),
(120,603,o),
(30,442,o),
(30,337,q),
(30,240,o),
(115,80,o),
(273,-14,o),
(381,-14,q),
(485,-14,o),
(644,77,o),
(733,239,o),
(733,344,q),
(733,442,o),
(649,600,o),
(492,694,o),
(381,694,q)
);
},
{
closed = 1;
nodes = (
(217,400,o),
(262,491,o),
(338,542,o),
(383,542,q),
(434,542,o),
(507,490,o),
(546,401,o),
(546,344,q),
(546,276,o),
(502,184,o),
(427,138,o),
(380,138,q),
(329,138,o),
(256,190,o),
(217,281,o),
(217,338,q)
);
}
);
width = 763;
}
);
unicode = 81;
},
{
glyphname = R;
layers = (
{
layerId = m001;
shapes = (
{
closed = 1;
nodes = (
(317,640,o),
(405,610,o),
(458,542,o),
(458,484,q),
(458,428,o),
(398,357,o),
(305,325,o),
(254,325,q),
(149,325,l),
(149,640,l),
(265,640,l)
);
},
{
closed = 1;
nodes = (
(100,0,l),
(149,0,l),
(149,286,l),
(252,286,l),
(275,286,o),
(321,291,o),
(343,296,q),
(507,0,l),
(562,0,l),
(385,309,l),
(439,330,o),
(508,417,o),
(508,486,q),
(508,558,o),
(444,643,o),
(334,680,o),
(263,680,q),
(100,680,l)
);
}
);
width = 572;
},
{
layerId = m003;
shapes = (
{
closed = 1;
nodes = (
(391,537,o),
(434,518,o),
(458,478,o),
(458,448,q),
(458,422,o),
(433,380,o),
(390,357,o),
(362,357,q),
(262,357,l),
(262,537,l),
(360,537,l)
);
},
{
closed = 1;
nodes = (
(80,0,l),
(262,0,l),
(262,214,l),
(323,214,l),
(338,214,o),
(368,214,o),
(383,214,q),
(493,0,l),
(704,0,l),
(554,268,l),
(595,296,o),
(646,386,o),
(646,448,q),
(646,530,o),
(569,632,o),
(442,680,o),
(366,680,q),
(80,680,l)
);
}
);
width = 714;
}
);
unicode = 82;
},
{
glyphname = S;
layers = (
{
layerId = m001;
shapes = (
{
closed = 1;
nodes = (
(64,22,o),
(106,7,o),
(161,-6,o),
(216,-13,o),
(237,-13,q),
(311,-13,o),
(412,30,o),
(464,107,o),
(464,157,q),
(464,191,o),
(441,247,o),
(396,295,o),
(328,336,o),
(283,355,q),
(224,380,o),
(143,432,o),
(102,492,o),
(102,530,q),
(102,582,o),
(186,655,o),
(258,655,q),
(293,655,o),
(344,645,o),
(385,629,o),
(402,621,q),
(424,657,l),
(394,672,o),
(306,696,o),
(256,696,q),
(192,696,o),
(100,654,o),
(50,581,o),
(50,535,q),
(50,499,o),
(74,439,o),
(120,390,o),
(188,348,o),
(232,330,q),
(293,305,o),
(373,255,o),
(413,197,o),
(413,160,q),
(413,126,o),
(372,66,o),
(294,29,o),
(236,29,q),
(203,29,o),
(140,41,o),
(88,60,o),
(70,68,q),
(55,29,l)
);
}
);
width = 504;
},
{
layerId = m003;
shapes = (
{
closed = 1;
nodes = (
(53,30,o),
(108,10,o),
(169,-5,o),
(230,-13,o),
(256,-13,q),
(340,-13,o),
(462,39,o),
(527,130,o),
(527,187,q),
(527,229,o),
(490,296,o),
(430,352,o),
(357,398,o),
(321,419,q),
(294,435,o),
(247,458,o),
(218,482,o),
(218,496,q),
(218,515,o),
(254,544,o),
(285,544,q),
(308,544,o),
(346,539,o),
(393,527,o),
(429,514,q),
(483,637,l),
(443,664,o),
(334,693,o),
(283,693,q),
(206,693,o),
(92,642,o),
(31,554,o),
(30,498,q),
(30,455,o),
(68,386,o),
(130,332,o),
(201,288,o),
(234,268,q),
(260,253,o),
(308,226,o),
(339,201,o),
(339,189,q),
(339,177,o),
(319,152,o),
(280,136,o),
(251,136,q),
(227,136,o),
(166,149,o),
(111,169,o),
(93,179,q),
(33,42,l)
);
}
);
width = 547;
}
);
unicode = 83;
},
{
glyphname = T;
layers = (
{
layerId = m001;
shapes = (
{
closed = 1;
nodes = (
(10,680,l),
(10,641,l),
(242,641,l),
(242,0,l),
(291,0,l),
(291,641,l),
(524,641,l),
(519,680,l)
);
}
);
width = 534;
},
{
layerId = m003;
shapes = (
{
closed = 1;
nodes = (
(10,680,l),
(10,537,l),
(210,537,l),
(210,0,l),
(392,0,l),
(392,537,l),
(609,537,l),
(592,680,l)
);
}
);
width = 619;
}
);
unicode = 84;
},
{
glyphname = U;
layers = (
{
layerId = m001;
shapes = (
{
closed = 1;
nodes = (
(90,680,l),
(90,239,l),
(90,167,o),
(146,53,o),
(253,-12,o),
(329,-12,q),
(407,-12,o),
(513,53,o),
(568,167,o),
(568,239,q),
(568,680,l),
(519,680,l),
(519,236,l),
(519,178,o),
(474,84,o),
(389,29,o),
(329,29,q),
(272,29,o),
(186,84,o),
(139,178,o),
(139,236,q),
(139,680,l)
);
}
);
width = 658;
},
{
layerId = m003;
shapes = (
{
closed = 1;
nodes = (
(70,680,l),
(70,260,l),
(70,172,o),
(147,49,o),
(285,-14,o),
(375,-14,q),
(466,-14,o),
(603,49,o),
(680,172,o),
(680,260,q),
(680,680,l),
(498,680,l),
(498,269,l),
(498,227,o),
(466,168,o),
(411,138,o),
(375,138,q),
(339,138,o),
(283,168,o),
(252,227,o),
(252,269,q),
(252,680,l)
);
}
);
width = 750;
}
);
unicode = 85;
},
{
glyphname = V;
layers = (
{
layerId = m001;
shapes = (
{
closed = 1;
nodes = (
(10,674,l),
(269,-1,l),
(315,-1,l),
(562,679,l),
(513,679,l),
(291,65,l),
(60,685,l)
);
}
);
width = 572;
},
{
layerId = m003;
shapes = (
{
closed = 1;
nodes = (
(10,672,l),
(264,0,l),
(446,0,l),
(701,680,l),
(520,680,l),
(358,218,l),
(189,690,l)
);
}
);
width = 711;
}
);
unicode = 86;
},
{
glyphname = W;
layers = (
{
layerId = m001;
shapes = (
{
closed = 1;
nodes = (
(625,-1,l),
(579,-1,l),
(407,593,l),
(255,-1,l),
(209,-1,l),
(10,674,l),
(60,685,l),
(231,79,l),
(383,679,l),
(432,679,l),
(601,79,l),
(753,679,l),
(802,679,l)
);
}
);
width = 812;
},
{
layerId = m003;
shapes = (
{
closed = 1;
nodes = (
(795,0,l),
(613,0,l),
(501,427,l),
(396,0,l),
(214,0,l),
(10,672,l),
(189,690,l),
(308,218,l),
(410,680,l),
(591,680,l),
(707,218,l),
(809,680,l),
(990,680,l)
);
}
);
width = 1000;
}
);
unicode = 87;
},
{
glyphname = X;
layers = (
{
layerId = m001;
shapes = (
{
closed = 1;
nodes = (
(261,311,l),
(454,0,l),
(513,0,l),
(298,337,l),
(513,680,l),
(459,680,l),
(271,379,l),
(86,691,l),
(38,668,l),
(237,350,l),
(10,0,l),
(68,0,l)
);
}
);
width = 523;
},
{
layerId = m003;
shapes = (
{
closed = 1;
nodes = (
(362,186,l),
(472,0,l),
(705,0,l),
(477,345,l),
(704,680,l),
(478,680,l),
(362,498,l),
(225,705,l),
(29,648,l),
(247,338,l),
(10,0,l),
(225,0,l)
);
}
);
width = 715;
}
);
unicode = 88;
},
{
glyphname = Y;
layers = (
{
layerId = m001;
shapes = (
{
closed = 1;
nodes = (
(284,274,l),
(520,680,l),
(463,680,l),
(259,321,l),
(59,689,l),
(10,668,l),
(235,269,l),
(235,0,l),
(284,0,l)
);
}
);
width = 530;
},
{
layerId = m003;
shapes = (
{
closed = 1;
nodes = (
(408,266,l),
(644,680,l),
(457,680,l),
(316,435,l),
(184,694,l),
(10,646,l),
(226,268,l),
(226,0,l),
(408,0,l)
);
}
);
width = 654;
}
);
unicode = 89;
},
{
glyphname = Z;
layers = (
{
layerId = m001;
shapes = (
{
closed = 1;
nodes = (
(79,39,l),
(509,631,l),
(504,680,l),
(47,680,l),
(57,641,l),
(463,641,l),
(30,50,l),
(36,0,l),
(504,0,l),
(499,39,l)
);
}
);
width = 539;
},
{
layerId = m003;
shapes = (
{
closed = 1;
nodes = (
(220,143,l),
(574,551,l),
(555,680,l),
(39,680,l),
(56,537,l),
(357,537,l),
(10,128,l),
(30,0,l),
(571,0,l),
(554,143,l)
);
}
);
width = 584;
}
);
unicode = 90;
},
{
glyphname = a;
layers = (
{
layerId = m001;
shapes = (
{
closed = 1;
nodes = (
(103,181,o),
(163,244,o),
(229,244,q),
(360,244,l),
(360,109,l),
(337,75,o),
(266,28,o),
(219,28,q),
(183,28,o),
(131,57,o),
(103,106,o),
(103,136,q)
);
},
{
closed = 1;
nodes = (
(138,440,o),
(208,457,o),
(244,457,q),
(303,457,o),
(360,391,o),
(360,341,q),
(360,281,l),
(225,281,l),
(149,281,o),
(52,205,o),
(52,136,q),
(52,73,o),
(133,-13,o),
(215,-13,q),
(261,-13,o),
(338,24,o),
(363,52,q),
(371,0,l),
(409,0,l),
(409,340,l),
(409,388,o),
(371,459,o),
(297,498,o),
(241,498,q),
(212,498,o),
(162,489,o),
(107,469,o),
(86,456,q),
(105,423,l)
);
}
);
width = 475;
},
{
layerId = m003;
shapes = (
{
closed = 1;
nodes = (
(184,176,o),
(207,198,o),
(225,198,q),
(281,198,l),
(281,152,l),
(265,139,o),
(233,125,o),
(217,125,q),
(208,125,o),
(193,134,o),
(184,149,o),
(184,159,q)
);
},
{
closed = 1;
nodes = (
(124,337,o),
(192,354,o),
(217,354,q),
(240,354,o),
(274,330,o),
(279,303,q),
(280,298,l),
(222,298,l),
(138,298,o),
(32,235,o),
(32,156,q),
(32,81,o),
(122,-11,o),
(214,-11,q),
(245,-11,o),
(300,21,o),
(323,50,q),
(375,0,l),
(463,0,l),
(463,300,l),
(463,362,o),
(418,452,o),
(328,502,o),
(262,502,q),
(222,502,o),
(143,489,o),
(74,468,o),
(48,456,q),
(96,325,l)
);
}
);
width = 509;
}
);
unicode = 97;
},
{
glyphname = aogonek;
layers = (
{
layerId = m001;
shapes = (
{
closed = 1;
nodes = (
(354,-11,o),
(326,-50,o),
(310,-92,o),
(310,-111,q),
(310,-139,o),
(338,-183,o),
(385,-207,o),
(415,-207,q),
(440,-207,o),
(482,-190,o),
(495,-177,q),
(473,-150,l),
(461,-160,o),
(434,-171,o),
(418,-171,q),
(399,-171,o),
(356,-142,o),
(356,-112,q),
(356,-90,o),
(368,-51,o),
(391,-16,o),
(409,0,q),
(372,4,l)
);
},
{
closed = 1;
nodes = (
(103,181,o),
(163,244,o),
(229,244,q),
(360,244,l),
(360,109,l),
(337,75,o),
(266,28,o),
(219,28,q),
(183,28,o),
(131,57,o),
(103,106,o),
(103,136,q)
);
},
{
closed = 1;
nodes = (
(135,437,o),
(195,457,o),
(244,457,q),
(303,457,o),
(360,391,o),
(360,341,q),
(360,281,l),
(225,281,l),
(149,281,o),
(52,205,o),
(52,136,q),
(52,73,o),
(133,-13,o),
(215,-13,q),
(261,-13,o),
(338,24,o),
(363,52,q),
(371,0,l),
(409,0,l),
(409,340,l),
(409,388,o),
(371,459,o),
(297,498,o),
(241,498,q),
(221,498,o),
(162,487,o),
(105,469,o),
(86,456,q),
(105,423,l)
);
}
);
width = 475;
},
{
layerId = m003;
shapes = (
{
closed = 1;
nodes = (
(320,12,o),
(299,-48,o),
(294,-90,o),
(294,-108,q),
(294,-140,o),
(328,-204,o),
(394,-245,o),
(442,-245,q),
(482,-245,o),
(548,-218,o),
(565,-198,q),
(504,-96,l),
(490,-109,o),
(470,-116,o),
(460,-116,q),
(447,-116,o),
(431,-96,o),
(431,-84,q),
(431,-71,o),
(442,-39,o),
(457,-8,o),
(463,0,q),
(345,54,l)
);
},
{
closed = 1;
nodes = (
(184,176,o),
(207,198,o),
(225,198,q),
(281,198,l),
(281,152,l),
(265,139,o),
(233,125,o),
(217,125,q),
(208,125,o),
(193,134,o),
(184,149,o),
(184,159,q)
);
},
{
closed = 1;
nodes = (
(124,337,o),
(192,354,o),
(217,354,q),
(240,354,o),
(274,330,o),
(279,303,q),
(280,298,l),
(222,298,l),
(138,298,o),
(32,235,o),
(32,156,q),
(32,81,o),
(122,-11,o),
(214,-11,q),
(245,-11,o),
(300,21,o),
(323,50,q),
(375,0,l),
(463,0,l),
(463,300,l),
(463,362,o),
(418,452,o),
(328,502,o),
(262,502,q),
(222,502,o),
(143,489,o),
(74,468,o),
(48,456,q),
(96,325,l)
);
}
);
width = 509;
}
);
unicode = 261;
},
{
glyphname = ae;
layers = (
{
layerId = m001;
shapes = (
{
closed = 1;
nodes = (
(406,242,l),
(407,184,o),
(442,87,o),
(517,28,o),
(577,28,q),
(630,28,o),
(695,49,o),
(720,62,q),
(740,25,l),
(720,13,o),
(662,-4,o),
(605,-13,o),
(585,-13,q),
(517,-13,o),
(424,36,o),
(396,79,q),
(379,52,o),
(331,10,o),
(263,-13,o),
(215,-13,q),
(133,-13,o),
(52,73,o),
(52,136,q),
(52,205,o),
(149,281,o),
(225,281,q),
(360,281,l),
(360,341,l),
(360,391,o),
(303,457,o),
(244,457,q),
(195,457,o),
(135,437,o),
(105,423,q),
(86,456,l),
(105,469,o),
(162,487,o),
(221,498,o),
(241,498,q),
(302,498,o),
(380,451,o),
(396,410,q),
(422,451,o),
(507,498,o),
(567,498,q),
(623,498,o),
(708,432,o),
(755,319,o),
(755,248,q),
(755,242,l)
);
},
{
closed = 1;
nodes = (
(703,279,l),
(699,327,o),
(668,408,o),
(608,457,o),
(560,457,q),
(512,457,o),
(448,408,o),
(413,327,o),
(408,279,q)
);
},
{
closed = 1;
nodes = (
(229,244,l),
(185,247,o),
(129,218,o),
(103,166,o),
(103,136,q),
(103,106,o),
(131,57,o),
(183,28,o),
(219,28,q),
(260,28,o),
(318,53,o),
(361,95,o),
(376,120,q),
(367,147,o),
(360,210,o),
(360,244,q)
);
}
);
width = 795;
},
{
layerId = m003;
shapes = (
{
closed = 1;
nodes = (
(478,197,l),
(485,177,o),
(513,147,o),
(557,131,o),
(588,131,q),
(632,131,o),
(699,153,o),
(721,164,q),
(772,41,l),
(753,27,o),
(689,3,o),
(611,-11,o),
(570,-11,q),
(510,-11,o),
(408,19,o),
(370,48,q),
(356,34,o),
(315,7,o),
(256,-11,o),
(214,-11,q),
(122,-11,o),
(32,81,o),
(32,156,q),
(32,235,o),
(138,298,o),
(222,298,q),
(280,298,l),
(279,304,l),
(275,330,o),
(241,354,o),
(217,354,q),
(192,354,o),
(124,337,o),
(96,325,q),
(48,456,l),
(74,468,o),
(143,489,o),
(222,502,o),
(262,502,q),
(303,502,o),
(370,482,o),
(394,463,q),
(426,482,o),
(500,502,o),
(541,502,q),
(619,502,o),
(722,433,o),
(773,318,o),
(773,250,q),
(773,197,l)
);
},
{
closed = 1;
nodes = (
(599,287,l),
(599,301,o),
(586,333,o),
(559,356,o),
(536,356,q),
(520,356,o),
(490,337,o),
(473,306,o),
(473,287,q)
);
},
{
closed = 1;
nodes = (
(225,198,l),
(213,198,o),
(195,188,o),
(184,171,o),
(184,159,q),
(184,149,o),
(193,134,o),
(208,125,o),
(217,125,q),
(235,125,o),
(262,133,o),
(285,146,o),
(294,153,q),
(290,164,o),
(285,186,o),
(283,198,q)
);
}
);
width = 793;
}
);
unicode = 230;
},
{
glyphname = b;
layers = (
{
layerId = m001;
shapes = (
{
closed = 1;
nodes = (
(129,59,l),
(129,706,l),
(80,696,l),
(80,0,l),
(108,0,l)
);
},
{
closed = 1;
nodes = (
(150,415,o),
(213,457,o),
(263,457,q),
(318,457,o),
(387,398,o),
(421,299,o),
(421,239,q),
(421,183,o),
(384,86,o),
(312,28,o),
(258,28,q),
(212,28,o),
(144,68,o),
(119,92,q),
(99,59,l),
(113,45,o),
(163,11,o),
(225,-13,o),
(256,-13,q),
(328,-13,o),
(424,53,o),
(472,168,o),
(472,240,q),
(472,316,o),
(427,432,o),
(335,498,o),
(263,498,q),
(230,498,o),
(173,479,o),
(124,444,o),
(104,420,q),
(124,386,l)
);
}
);
width = 512;
},
{
layerId = m003;
shapes = (
{
closed = 1;
nodes = (
(242,91,l),
(242,706,l),
(60,695,l),
(60,0,l),
(152,0,l)
);
},
{
closed = 1;
nodes = (
(212,326,o),
(262,362,o),
(286,362,q),
(315,362,o),
(354,336,o),
(375,285,o),
(375,248,q),
(375,211,o),
(353,157,o),
(317,129,o),
(294,129,q),
(268,129,o),
(212,158,o),
(183,185,q),
(132,78,l),
(160,46,o),
(217,7,o),
(276,-11,o),
(306,-11,q),
(383,-11,o),
(498,47,o),
(563,163,o),
(563,249,q),
(563,336,o),
(498,448,o),
(386,502,o),
(314,502,q),
(277,502,o),
(207,476,o),
(150,435,o),
(132,413,q),
(183,296,l)
);
}
);
width = 583;
}
);
unicode = 98;
},
{
glyphname = c;
layers = (
{
layerId = m001;
shapes = (
{
closed = 1;
nodes = (
(362,49,o),
(309,28,o),
(259,28,q),
(205,28,o),
(130,87,o),
(91,187,o),
(91,246,q),
(91,303,o),
(133,399,o),
(211,457,o),
(264,457,q),
(310,457,o),
(368,435,o),
(393,423,q),
(413,456,l),
(394,469,o),
(340,487,o),
(286,498,o),
(266,498,q),
(195,498,o),
(93,432,o),
(40,318,o),
(40,245,q),
(40,170,o),
(90,53,o),
(188,-13,o),
(259,-13,q),
(280,-13,o),
(334,-3,o),
(388,16,o),
(408,28,q),
(388,62,l)
);
}
);
width = 449;
},
{
layerId = m003;
shapes = (
{
closed = 1;
nodes = (
(371,148,o),
(327,137,o),
(303,137,q),
(279,137,o),
(235,161,o),
(208,208,o),
(208,242,q),
(208,277,o),
(235,327,o),
(279,354,o),
(303,354,q),
(329,354,o),
(371,343,o),
(400,328,q),
(451,453,l),
(423,475,o),
(361,496,o),
(305,502,o),
(285,502,q),
(207,502,o),
(87,440,o),
(20,324,o),
(20,242,q),
(20,161,o),
(87,48,o),
(207,-11,o),
(285,-11,q),
(305,-11,o),
(361,-5,o),
(423,16,o),
(451,38,q),
(400,163,l)
);
}
);
width = 457;
}
);
unicode = 99;
},
{
glyphname = d;
layers = (
{
layerId = m001;
shapes = (
{
closed = 1;
nodes = (
(405,0,l),
(432,0,l),
(432,705,l),
(383,696,l),
(383,53,l)
);
},
{
closed = 1;
nodes = (
(362,70,o),
(299,28,o),
(249,28,q),
(195,28,o),
(125,87,o),
(91,187,o),
(91,246,q),
(91,303,o),
(128,399,o),
(201,457,o),
(254,457,q),
(300,457,o),
(368,417,o),
(393,393,q),
(413,426,l),
(400,441,o),
(350,474,o),
(288,498,o),
(256,498,q),
(185,498,o),
(88,432,o),
(40,318,o),
(40,245,q),
(40,170,o),
(85,53,o),
(178,-13,o),
(249,-13,q),
(282,-13,o),
(339,6,o),
(388,42,o),
(408,65,q),
(388,99,l)
);
}
);
width = 512;
},
{
layerId = m003;
shapes = (
{
closed = 1;
nodes = (
(431,0,l),
(523,0,l),
(523,706,l),
(341,695,l),
(341,117,l)
);
},
{
closed = 1;
nodes = (
(371,165,o),
(321,129,o),
(297,129,q),
(269,129,o),
(229,155,o),
(208,206,o),
(208,243,q),
(208,281,o),
(230,334,o),
(267,362,o),
(289,362,q),
(315,362,o),
(371,333,o),
(400,306,q),
(451,413,l),
(423,445,o),
(366,484,o),
(307,502,o),
(277,502,q),
(201,502,o),
(85,444,o),
(20,329,o),
(20,242,q),
(20,156,o),
(85,43,o),
(198,-11,o),
(269,-11,q),
(307,-11,o),
(376,15,o),
(433,56,o),
(451,78,q),
(400,195,l)
);
}
);
width = 583;
}
);
unicode = 100;
},
{
glyphname = dcaron;
layers = (
{
layerId = m001;
shapes = (
{
closed = 1;
nodes = (
(555,702,o),
(538,691,o),
(529,673,o),
(529,663,q),
(529,657,o),
(537,639,o),
(553,625,o),
(565,625,q),
(564,598,o),
(530,557,o),
(504,543,q),
(520,518,l),
(548,532,o),
(586,574,o),
(606,629,o),
(606,659,q),
(606,674,o),
(585,702,o),
(567,702,q)
);
},
{
closed = 1;
nodes = (
(405,0,l),
(432,0,l),
(432,705,l),
(383,696,l),
(383,53,l)
);
},
{
closed = 1;
nodes = (
(362,70,o),
(299,28,o),
(249,28,q),
(195,28,o),
(125,87,o),
(91,187,o),
(91,246,q),
(91,303,o),
(128,399,o),
(201,457,o),
(254,457,q),
(300,457,o),
(368,417,o),
(393,393,q),
(413,426,l),
(400,441,o),
(350,474,o),
(288,498,o),
(256,498,q),
(185,498,o),
(88,432,o),
(40,318,o),
(40,245,q),
(40,170,o),
(85,53,o),
(178,-13,o),
(249,-13,q),
(282,-13,o),
(339,6,o),
(388,42,o),
(408,65,q),
(388,99,l)
);
}
);
width = 636;
},
{
layerId = m003;
shapes = (
{
closed = 1;
nodes = (
(648,742,o),
(606,715,o),
(582,673,o),
(582,650,q),
(582,634,o),
(594,604,o),
(613,580,o),
(625,572,q),
(621,559,o),
(587,529,o),
(573,521,q),
(609,441,l),
(653,458,o),
(724,519,o),
(766,596,o),
(766,635,q),
(766,683,o),
(712,742,o),
(674,742,q)
);
},
{
closed = 1;
nodes = (
(431,0,l),
(523,0,l),
(523,706,l),
(341,695,l),
(341,117,l)
);
},
{
closed = 1;
nodes = (
(371,165,o),
(321,129,o),
(297,129,q),
(269,129,o),
(229,155,o),
(208,206,o),
(208,243,q),
(208,281,o),
(230,334,o),
(267,362,o),
(289,362,q),
(315,362,o),
(371,333,o),
(400,306,q),
(451,413,l),
(423,445,o),
(366,484,o),
(307,502,o),
(277,502,q),
(201,502,o),
(85,444,o),
(20,329,o),
(20,242,q),
(20,156,o),
(85,43,o),
(198,-11,o),
(269,-11,q),
(307,-11,o),
(376,15,o),
(433,56,o),
(451,78,q),
(400,195,l)
);
}
);
width = 796;
}
);
unicode = 271;
},
{
glyphname = dcroat;
layers = (
{
layerId = m001;
shapes = (
{
closed = 1;
nodes = (
(408,65,l),
(388,42,o),
(339,6,o),
(282,-13,o),
(249,-13,q),
(178,-13,o),
(85,53,o),
(40,170,o),
(40,245,q),
(40,318,o),
(88,432,o),
(185,498,o),
(256,498,q),
(288,498,o),
(350,474,o),
(400,441,o),
(413,426,q),
(393,393,l),
(368,417,o),
(300,457,o),
(254,457,q),
(201,457,o),
(128,399,o),
(91,303,o),
(91,246,q),
(91,187,o),
(125,87,o),
(195,28,o),
(249,28,q),
(299,28,o),
(362,70,o),
(388,99,q)
);
},
{
closed = 1;
nodes = (
(432,0,l),
(405,0,l),
(383,53,l),
(383,580,l),
(252,580,l),
(242,615,l),
(383,615,l),
(383,696,l),
(432,705,l),
(432,615,l),
(490,615,l),
(500,580,l),
(432,580,l)
);
}
);
width = 512;
},
{
layerId = m003;
shapes = (
{
closed = 1;
nodes = (
(451,78,l),
(433,56,o),
(368,15,o),
(297,-11,o),
(269,-11,q),
(198,-11,o),
(85,43,o),
(20,156,o),
(20,242,q),
(20,329,o),
(85,444,o),
(201,502,o),
(277,502,q),
(297,502,o),
(357,484,o),
(423,445,o),
(451,413,q),
(400,306,l),
(371,333,o),
(315,362,o),
(289,362,q),
(267,362,o),
(230,334,o),
(208,281,o),
(208,243,q),
(208,206,o),
(229,155,o),
(269,129,o),
(297,129,q),
(321,129,o),
(371,165,o),
(400,195,q)
);
},
{
closed = 1;
nodes = (
(523,0,l),
(431,0,l),
(341,117,l),
(341,550,l),
(254,550,l),
(237,663,l),
(341,663,l),
(341,695,l),
(523,706,l),
(523,663,l),
(566,663,l),
(583,550,l),
(523,550,l)
);
}
);
width = 583;
}
);
unicode = 273;
},
{
glyphname = eth;
layers = (
{
layerId = m001;
shapes = (
{
closed = 1;
nodes = (
(483,324,o),
(439,476,o),
(349,607,o),
(210,712,o),
(114,750,q),
(101,718,l),
(196,676,o),
(324,568,o),
(399,443,o),
(432,308,o),
(432,239,q),
(432,183,o),
(390,86,o),
(313,28,o),
(259,28,q),
(205,28,o),
(130,87,o),
(91,187,o),
(91,246,q),
(91,303,o),
(133,399,o),
(211,457,o),
(264,457,q),
(294,457,o),
(350,438,o),
(401,404,o),
(422,381,q),
(444,402,l),
(420,432,o),
(369,474,o),
(307,498,o),
(265,498,q),
(194,498,o),
(93,431,o),
(40,317,o),
(40,245,q),
(40,170,o),
(90,54,o),
(187,-12,o),
(259,-13,q),
(330,-12,o),
(430,54,o),
(483,168,o),
(483,240,q)
);
},
{
closed = 1;
nodes = (
(376,707,l),
(358,742,l),
(90,610,l),
(109,572,l)
);
}
);
width = 523;
},
{
layerId = m003;
shapes = (
{
closed = 1;
nodes = (
(570,332,o),
(511,488,o),
(395,624,o),
(225,725,o),
(114,750,q),
(53,638,l),
(141,615,o),
(266,537,o),
(345,433,o),
(382,309,o),
(382,240,q),
(382,206,o),
(361,160,o),
(322,137,o),
(293,137,q),
(266,137,o),
(228,164,o),
(208,213,o),
(208,245,q),
(208,279,o),
(229,328,o),
(269,354,o),
(297,354,q),
(314,354,o),
(363,342,o),
(416,314,o),
(438,288,q),
(517,391,l),
(493,422,o),
(406,472,o),
(312,502,o),
(275,502,q),
(209,502,o),
(93,441,o),
(20,327,o),
(20,245,q),
(20,159,o),
(96,45,o),
(224,-11,o),
(302,-11,q),
(380,-11,o),
(501,54,o),
(570,173,o),
(570,254,q)
);
},
{
closed = 1;
nodes = (
(466,642,l),
(412,752,l),
(56,580,l),
(106,474,l)
);
}
);
width = 590;
}
);
unicode = 240;
},
{
glyphname = e;
layers = (
{
layerId = m001;
shapes = (
{
closed = 1;
nodes = (
(440,250,l),
(440,321,o),
(391,433,o),
(307,498,o),
(252,498,q),
(181,498,o),
(86,432,o),
(40,318,o),
(40,245,q),
(40,170,o),
(89,53,o),
(191,-13,o),
(270,-13,q),
(290,-13,o),
(347,-4,o),
(405,13,o),
(425,25,q),
(405,62,l),
(380,49,o),
(315,28,o),
(262,28,q),
(202,28,o),
(127,87,o),
(92,184,o),
(91,242,q),
(440,242,l)
);
},
{
closed = 1;
nodes = (
(98,327,o),
(133,408,o),
(197,457,o),
(245,457,q),
(293,457,o),
(353,408,o),
(384,327,o),
(388,279,q),
(93,279,l)
);
}
);
width = 480;
},
{
layerId = m003;
shapes = (
{
closed = 1;
nodes = (
(513,250,l),
(513,318,o),
(462,433,o),
(359,502,o),
(281,502,q),
(208,502,o),
(89,440,o),
(20,324,o),
(20,242,q),
(20,160,o),
(95,47,o),
(227,-11,o),
(310,-11,q),
(351,-11,o),
(429,3,o),
(493,27,o),
(512,41,q),
(461,164,l),
(439,153,o),
(372,131,o),
(328,131,q),
(297,131,o),
(253,147,o),
(225,177,o),
(218,197,q),
(513,197,l)
);
},
{
closed = 1;
nodes = (
(213,306,o),
(230,337,o),
(260,356,o),
(276,356,q),
(299,356,o),
(326,333,o),
(339,301,o),
(339,287,q),
(213,287,l)
);
}
);
width = 533;
}
);
unicode = 101;
},
{
glyphname = f;
layers = (
{
layerId = m001;
shapes = (
{
closed = 1;
nodes = (
(93,433,l),
(93,0,l),
(142,0,l),
(142,433,l),
(251,433,l),
(230,470,l),
(142,470,l),
(142,579,l),
(142,615,o),
(173,661,o),
(211,661,q),
(221,661,o),
(246,655,o),
(252,652,q),
(264,689,l),
(258,692,o),
(237,698,o),
(212,702,o),
(198,702,q),
(162,702,o),
(115,668,o),
(93,605,o),
(93,563,q),
(93,470,l),
(20,470,l),
(20,433,l)
);
}
);
width = 264;
},
{
layerId = m003;
shapes = (
{
closed = 1;
nodes = (
(90,322,l),
(90,0,l),
(272,0,l),
(272,322,l),
(423,322,l),
(406,465,l),
(272,465,l),
(272,490,l),
(272,520,o),
(303,555,o),
(329,555,q),
(344,555,o),
(382,546,o),
(399,536,q),
(451,660,l),
(439,671,o),
(394,690,o),
(341,703,o),
(317,703,q),
(259,703,o),
(155,660,o),
(90,575,o),
(90,510,q),
(90,465,l),
(10,465,l),
(10,322,l)
);
}
);
width = 451;
}
);
unicode = 102;
},
{
glyphname = g;
layers = (
{
layerId = m001;
shapes = (
{
closed = 1;
nodes = (
(405,485,l),
(383,412,l),
(383,-72,l),
(383,-132,o),
(299,-189,o),
(238,-189,q),
(192,-189,o),
(128,-169,o),
(94,-154,q),
(75,-189,l),
(89,-198,o),
(132,-213,o),
(181,-224,o),
(225,-230,o),
(240,-230,q),
(304,-230,o),
(389,-186,o),
(432,-110,o),
(432,-62,q),
(432,485,l)
);
},
{
closed = 1;
nodes = (
(362,70,o),
(299,28,o),
(249,28,q),
(195,28,o),
(125,87,o),
(91,187,o),
(91,246,q),
(91,303,o),
(128,399,o),
(201,457,o),
(254,457,q),
(300,457,o),
(368,417,o),
(393,393,q),
(413,426,l),
(400,441,o),
(350,474,o),
(288,498,o),
(256,498,q),
(185,498,o),
(88,432,o),
(40,318,o),
(40,245,q),
(40,170,o),
(85,53,o),
(178,-13,o),
(249,-13,q),
(282,-13,o),
(339,6,o),
(388,42,o),
(408,65,q),
(388,99,l)
);
}
);
width = 508;
},
{
layerId = m003;
shapes = (
{
closed = 1;
nodes = (
(432,484,l),
(341,370,l),
(341,-15,l),
(341,-44,o),
(286,-83,o),
(243,-83,q),
(213,-83,o),
(138,-70,o),
(89,-46,q),
(34,-174,l),
(58,-189,o),
(121,-211,o),
(186,-224,o),
(241,-230,o),
(256,-230,q),
(337,-230,o),
(457,-175,o),
(523,-78,o),
(523,-16,q),
(523,484,l)
);
},
{
closed = 1;
nodes = (
(371,165,o),
(321,129,o),
(297,129,q),
(269,129,o),
(229,155,o),
(208,206,o),
(208,243,q),
(208,281,o),
(230,334,o),
(267,362,o),
(289,362,q),
(315,362,o),
(371,333,o),
(400,306,q),
(451,413,l),
(423,445,o),
(366,484,o),
(307,502,o),
(277,502,q),
(201,502,o),
(85,444,o),
(20,329,o),
(20,242,q),
(20,156,o),
(85,43,o),
(198,-11,o),
(269,-11,q),
(307,-11,o),
(376,15,o),
(433,56,o),
(451,78,q),
(400,195,l)
);
}
);
width = 579;
}
);
unicode = 103;
},
{
glyphname = gcedilla;
layers = (
{
layerId = m001;
shapes = (
{
closed = 1;
nodes = (
(269,575,o),
(285,586,o),
(294,604,o),
(294,614,q),
(294,621,o),
(286,638,o),
(270,652,o),
(258,652,q),
(259,679,o),
(293,720,o),
(319,734,q),
(303,759,l),
(275,746,o),
(237,703,o),
(217,649,o),
(217,618,q),
(217,603,o),
(238,575,o),
(256,575,q)
);
},
{
closed = 1;
nodes = (
(405,485,l),
(383,412,l),
(383,-72,l),
(383,-132,o),
(299,-189,o),
(238,-189,q),
(192,-189,o),
(128,-169,o),
(94,-154,q),
(75,-189,l),
(89,-198,o),
(132,-213,o),
(181,-224,o),
(225,-230,o),
(240,-230,q),
(304,-230,o),
(389,-186,o),
(432,-110,o),
(432,-62,q),
(432,485,l)
);
},
{
closed = 1;
nodes = (
(362,70,o),
(299,28,o),
(249,28,q),
(195,28,o),
(125,87,o),
(91,187,o),
(91,246,q),
(91,303,o),
(128,399,o),
(201,457,o),
(254,457,q),
(300,457,o),
(368,417,o),
(393,393,q),
(413,426,l),
(400,441,o),
(350,474,o),
(288,498,o),
(256,498,q),
(185,498,o),
(88,432,o),
(40,318,o),
(40,245,q),
(40,170,o),
(85,53,o),
(178,-13,o),
(249,-13,q),
(282,-13,o),
(339,6,o),
(388,42,o),
(408,65,q),
(388,99,l)
);
}
);
width = 508;
},
{
layerId = m003;
shapes = (
{
closed = 1;
nodes = (
(299,541,o),
(341,568,o),
(365,611,o),
(365,633,q),
(365,650,o),
(354,680,o),
(334,704,o),
(322,711,q),
(326,724,o),
(360,754,o),
(374,762,q),
(338,842,l),
(294,826,o),
(223,764,o),
(181,688,o),
(181,648,q),
(181,600,o),
(235,541,o),
(273,541,q)
);
},
{
closed = 1;
nodes = (
(432,484,l),
(341,370,l),
(341,-15,l),
(341,-44,o),
(286,-83,o),
(243,-83,q),
(213,-83,o),
(138,-70,o),
(89,-46,q),
(34,-174,l),
(58,-189,o),
(121,-211,o),
(186,-224,o),
(241,-230,o),
(256,-230,q),
(337,-230,o),
(457,-175,o),
(523,-78,o),
(523,-16,q),
(523,484,l)
);
},
{
closed = 1;
nodes = (
(371,165,o),
(321,129,o),
(297,129,q),
(269,129,o),
(229,155,o),
(208,206,o),
(208,243,q),
(208,281,o),
(230,334,o),
(267,362,o),
(289,362,q),
(315,362,o),
(371,333,o),
(400,306,q),
(451,413,l),
(423,445,o),
(357,484,o),
(297,502,o),
(277,502,q),
(201,502,o),
(85,444,o),
(20,329,o),
(20,242,q),
(20,156,o),
(85,43,o),
(198,-11,o),
(269,-11,q),
(297,-11,o),
(368,15,o),
(433,56,o),
(451,78,q),
(400,195,l)
);
}
);
width = 579;
}
);
unicode = 291;
},
{
glyphname = h;
layers = (
{
layerId = m001;
shapes = (
{
closed = 1;
nodes = (
(157,388,o),
(216,432,o),
(275,457,o),
(304,457,q),
(359,457,o),
(395,387,o),
(395,337,q),
(395,0,l),
(444,0,l),
(444,337,l),
(444,384,o),
(415,456,o),
(352,498,o),
(300,498,q),
(270,498,o),
(206,473,o),
(149,433,o),
(128,409,q),
(129,359,l)
);
},
{
closed = 1;
nodes = (
(129,706,l),
(80,696,l),
(80,0,l),
(129,0,l)
);
}
);
width = 510;
},
{
layerId = m003;
shapes = (
{
closed = 1;
nodes = (
(257,333,o),
(294,345,o),
(329,354,o),
(340,354,q),
(371,354,o),
(392,319,o),
(392,296,q),
(392,0,l),
(574,0,l),
(574,313,l),
(574,367,o),
(537,452,o),
(460,501,o),
(398,501,q),
(359,501,o),
(287,481,o),
(224,450,o),
(200,435,q),
(242,326,l)
);
},
{
closed = 1;
nodes = (
(242,706,l),
(60,695,l),
(60,0,l),
(242,0,l)
);
}
);
width = 620;
}
);
unicode = 104;
},
{
glyphname = i;
layers = (
{
layerId = m001;
shapes = (
{
closed = 1;
nodes = (
(119,485,l),
(70,485,l),
(70,0,l),
(119,0,l)
);
},
{
closed = 1;
nodes = (
(111,600,o),
(133,622,o),
(133,638,q),
(133,654,o),
(110,676,o),
(94,676,q),
(77,676,o),
(56,654,o),
(56,638,q),
(56,622,o),
(77,600,o),
(94,600,q)
);
}
);
width = 189;
},
{
layerId = m003;
shapes = (
{
closed = 1;
nodes = (
(232,485,l),
(50,485,l),
(50,0,l),
(232,0,l)
);
},
{
closed = 1;
nodes = (
(181,551,o),
(240,609,o),
(240,649,q),
(240,690,o),
(181,749,o),
(140,749,q),
(100,749,o),
(42,690,o),
(42,649,q),
(42,609,o),
(100,551,o),
(140,551,q)
);
}
);
width = 282;
}
);
unicode = 105;
},
{
glyphname = idotless;
layers = (
{
layerId = m001;
shapes = (
{
closed = 1;
nodes = (
(119,485,l),
(70,485,l),
(70,0,l),
(119,0,l)
);
}
);
width = 189;
},
{
layerId = m003;
shapes = (
{
closed = 1;
nodes = (
(232,485,l),
(50,485,l),
(50,0,l),
(232,0,l)
);
}
);
width = 282;
}
);
unicode = 305;
},
{
glyphname = iogonek;
layers = (
{
layerId = m001;
shapes = (
{
closed = 1;
nodes = (
(53,-18,o),
(20,-75,o),
(20,-111,q),
(20,-139,o),
(48,-183,o),
(95,-207,o),
(125,-207,q),
(150,-207,o),
(192,-190,o),
(205,-177,q),
(183,-150,l),
(171,-160,o),
(144,-171,o),
(128,-171,q),
(109,-171,o),
(66,-142,o),
(66,-112,q),
(66,-90,o),
(78,-51,o),
(101,-16,o),
(119,0,q),
(72,4,l)
);
},
{
closed = 1;
nodes = (
(119,485,l),
(70,485,l),
(70,0,l),
(119,0,l)
);
},
{
closed = 1;
nodes = (
(110,618,o),
(133,640,o),
(133,656,q),
(133,672,o),
(110,694,o),
(94,694,q),
(77,694,o),
(56,672,o),
(56,656,q),
(56,640,o),
(77,618,o),
(94,618,q)
);
}
);
width = 189;
},
{
layerId = m003;
shapes = (
{
closed = 1;
nodes = (
(43,-19,o),
(35,-79,o),
(35,-98,q),
(35,-135,o),
(69,-203,o),
(135,-245,o),
(183,-245,q),
(223,-245,o),
(289,-218,o),
(306,-198,q),
(245,-96,l),
(231,-109,o),
(211,-116,o),
(201,-116,q),
(188,-116,o),
(172,-96,o),
(172,-84,q),
(172,-57,o),
(197,-22,o),
(226,-3,o),
(232,0,q),
(50,0,l)
);
},
{
closed = 1;
nodes = (
(232,485,l),
(50,485,l),
(50,0,l),
(232,0,l)
);
},
{
closed = 1;
nodes = (
(185,594,o),
(235,646,o),
(235,686,q),
(235,724,o),
(185,778,o),
(145,778,q),
(107,778,o),
(53,724,o),
(53,686,q),
(53,646,o),
(107,594,o),
(145,594,q)
);
}
);
width = 282;
}
);
unicode = 303;
},
{
glyphname = j;
layers = (
{
layerId = m001;
shapes = (
{
closed = 1;
nodes = (
(90,600,o),
(72,610,o),
(63,628,o),
(63,638,q),
(63,654,o),
(84,676,o),
(101,676,q),
(117,676,o),
(140,654,o),
(140,638,q),
(140,622,o),
(118,600,o),
(101,600,q)
);
},
{
closed = 1;
nodes = (
(126,-62,l),
(126,-104,o),
(112,-163,o),
(66,-203,o),
(18,-219,q),
(0,-183,l),
(34,-170,o),
(66,-140,o),
(77,-92,o),
(77,-54,q),
(77,485,l),
(126,485,l)
);
}
);
width = 206;
},
{
layerId = m003;
shapes = (
{
closed = 1;
nodes = (
(132,551,o),
(87,578,o),
(58,623,o),
(58,649,q),
(58,690,o),
(116,749,o),
(156,749,q),
(197,749,o),
(256,690,o),
(256,649,q),
(256,609,o),
(197,551,o),
(156,551,q)
);
},
{
closed = 1;
nodes = (
(248,2,l),
(248,-50,o),
(214,-121,o),
(133,-171,o),
(62,-194,q),
(-10,-63,l),
(26,-50,o),
(58,-23,o),
(66,10,o),
(66,29,q),
(66,485,l),
(248,485,l)
);
}
);
width = 302;
}
);
unicode = 106;
},
{
glyphname = k;
layers = (
{
layerId = m001;
shapes = (
{
closed = 1;
nodes = (
(129,206,l),
(203,280,l),
(390,0,l),
(449,0,l),
(236,313,l),
(391,467,l),
(354,498,l),
(129,264,l),
(129,706,l),
(80,696,l),
(80,0,l),
(129,0,l)
);
}
);
width = 449;
},
{
layerId = m003;
shapes = (
{
closed = 1;
nodes = (
(242,156,l),
(275,181,l),
(371,0,l),
(567,0,l),
(403,277,l),
(532,374,l),
(423,499,l),
(242,346,l),
(242,706,l),
(60,695,l),
(60,0,l),
(242,0,l)
);
}
);
width = 567;
}
);
unicode = 107;
},
{
glyphname = l;
layers = (
{
layerId = m001;
shapes = (
{
closed = 1;
nodes = (
(129,706,l),
(80,696,l),
(80,0,l),
(129,0,l)
);
}
);
width = 209;
},
{
layerId = m003;
shapes = (
{
closed = 1;
nodes = (
(242,706,l),
(60,695,l),
(60,0,l),
(242,0,l)
);
}
);
width = 302;
}
);
unicode = 108;
},
{
glyphname = lacute;
layers = (
{
layerId = m001;
shapes = (
{
closed = 1;
nodes = (
(129,684,l),
(80,674,l),
(80,0,l),
(129,0,l)
);
},
{
closed = 1;
nodes = (
(201,892,l),
(140,892,l),
(84,750,l),
(116,739,l)
);
}
);
width = 209;
},
{
layerId = m003;
shapes = (
{
closed = 1;
nodes = (
(242,706,l),
(60,695,l),
(60,0,l),
(242,0,l)
);
},
{
closed = 1;
nodes = (
(330,932,l),
(150,932,l),
(84,755,l),
(216,733,l)
);
}
);
width = 302;
}
);
unicode = 314;
},
{
glyphname = lcaron;
layers = (
{
layerId = m001;
shapes = (
{
closed = 1;
nodes = (
(252,702,o),
(235,691,o),
(226,673,o),
(226,663,q),
(226,657,o),
(234,639,o),
(250,625,o),
(262,625,q),
(261,598,o),
(227,557,o),
(201,543,q),
(217,518,l),
(245,532,o),
(283,574,o),
(303,629,o),
(303,659,q),
(303,674,o),
(282,702,o),
(264,702,q)
);
},
{
closed = 1;
nodes = (
(129,706,l),
(80,696,l),
(80,0,l),
(129,0,l)
);
}
);
width = 333;
},
{
layerId = m003;
shapes = (
{
closed = 1;
nodes = (
(366,742,o),
(324,715,o),
(300,673,o),
(300,650,q),
(300,634,o),
(311,604,o),
(331,580,o),
(343,572,q),
(339,559,o),
(305,529,o),
(291,521,q),
(327,441,l),
(371,458,o),
(442,519,o),
(484,596,o),
(484,635,q),
(484,683,o),
(430,742,o),
(392,742,q)
);
},
{
closed = 1;
nodes = (
(242,706,l),
(60,695,l),
(60,0,l),
(242,0,l)
);
}
);
width = 514;
}
);
unicode = 318;
},
{
glyphname = lslash;
layers = (
{
layerId = m001;
shapes = (
{
closed = 1;
nodes = (
(160,394,l),
(160,706,l),
(111,696,l),
(111,351,l),
(0,255,l),
(22,219,l),
(111,297,l),
(111,0,l),
(160,0,l),
(160,340,l),
(271,438,l),
(249,472,l)
);
}
);
width = 271;
},
{
layerId = m003;
shapes = (
{
closed = 1;
nodes = (
(280,510,l),
(280,706,l),
(98,695,l),
(98,384,l),
(0,316,l),
(40,156,l),
(98,196,l),
(98,0,l),
(280,0,l),
(280,322,l),
(386,395,l),
(345,555,l)
);
}
);
width = 386;
}
);
unicode = 322;
},
{
glyphname = m;
layers = (
{
layerId = m001;
shapes = (
{
closed = 1;
nodes = (
(119,359,l),
(147,388,o),
(205,432,o),
(263,457,o),
(289,457,q),
(323,457,o),
(358,425,o),
(370,371,o),
(370,337,q),
(370,0,l),
(419,0,l),
(419,337,l),
(419,384,o),
(393,456,o),
(335,498,o),
(285,498,q),
(260,498,o),
(197,473,o),
(139,433,o),
(118,409,q),
(108,485,l),
(70,485,l),
(70,0,l),
(119,0,l)
);
},
{
closed = 1;
nodes = (
(438,388,o),
(496,432,o),
(554,457,o),
(580,457,q),
(614,457,o),
(649,425,o),
(661,371,o),
(661,337,q),
(661,0,l),
(710,0,l),
(710,337,l),
(710,384,o),
(684,456,o),
(626,498,o),
(576,498,q),
(551,498,o),
(488,473,o),
(430,433,o),
(409,409,q),
(410,359,l)
);
}
);
width = 776;
},
{
layerId = m003;
shapes = (
{
closed = 1;
nodes = (
(232,326,l),
(247,333,o),
(283,345,o),
(316,354,o),
(325,354,q),
(347,354,o),
(367,338,o),
(372,311,o),
(372,296,q),
(372,0,l),
(554,0,l),
(554,313,l),
(554,367,o),
(522,452,o),
(447,501,o),
(383,501,q),
(347,501,o),
(276,481,o),
(214,450,o),
(190,435,q),
(158,485,l),
(50,485,l),
(50,0,l),
(232,0,l)
);
},
{
closed = 1;
nodes = (
(568,333,o),
(604,345,o),
(637,354,o),
(646,354,q),
(668,354,o),
(688,338,o),
(693,311,o),
(693,296,q),
(693,0,l),
(875,0,l),
(875,313,l),
(875,367,o),
(843,452,o),
(768,501,o),
(704,501,q),
(668,501,o),
(597,481,o),
(535,450,o),
(511,435,q),
(553,326,l)
);
}
);
width = 921;
}
);
unicode = 109;
},
{
glyphname = n;
layers = (
{
layerId = m001;
shapes = (
{
closed = 1;
nodes = (
(119,359,l),
(147,388,o),
(206,432,o),
(265,457,o),
(294,457,q),
(349,457,o),
(385,387,o),
(385,337,q),
(385,0,l),
(434,0,l),
(434,337,l),
(434,384,o),
(405,456,o),
(342,498,o),
(290,498,q),
(260,498,o),
(196,473,o),
(139,433,o),
(118,409,q),
(108,485,l),
(70,485,l),
(70,0,l),
(119,0,l)
);
}
);
width = 500;
},
{
layerId = m003;
shapes = (
{
closed = 1;
nodes = (
(232,326,l),
(247,333,o),
(284,345,o),
(319,354,o),
(330,354,q),
(360,354,o),
(382,319,o),
(382,296,q),
(382,0,l),
(564,0,l),
(564,313,l),
(564,367,o),
(527,452,o),
(450,501,o),
(388,501,q),
(349,501,o),
(277,481,o),
(214,450,o),
(190,435,q),
(158,485,l),
(50,485,l),
(50,0,l),
(232,0,l)
);
}
);
width = 610;
}
);
unicode = 110;
},
{
glyphname = o;
layers = (
{
layerId = m001;
shapes = (
{
closed = 1;
nodes = (
(187,-12,o),
(90,54,o),
(40,170,o),
(40,245,q),
(40,317,o),
(93,431,o),
(194,498,o),
(265,498,q),
(337,498,o),
(434,431,o),
(483,315,o),
(483,240,q),
(483,168,o),
(430,54,o),
(330,-12,o),
(259,-13,q)
);
},
{
closed = 1;
nodes = (
(313,28,o),
(390,86,o),
(432,183,o),
(432,239,q),
(432,299,o),
(393,398,o),
(319,457,o),
(264,457,q),
(211,457,o),
(133,399,o),
(91,303,o),
(91,246,q),
(91,187,o),
(130,87,o),
(205,28,o),
(259,28,q)
);
}
);
width = 523;
},
{
layerId = m003;
shapes = (
{
closed = 1;
nodes = (
(213,-11,o),
(90,45,o),
(20,159,o),
(20,245,q),
(20,327,o),
(94,441,o),
(219,502,o),
(295,502,q),
(375,502,o),
(499,443,o),
(570,327,o),
(570,240,q),
(570,159,o),
(495,47,o),
(369,-11,o),
(291,-11,q)
);
},
{
closed = 1;
nodes = (
(322,137,o),
(361,160,o),
(382,206,o),
(382,240,q),
(382,273,o),
(362,324,o),
(325,354,o),
(297,354,q),
(269,354,o),
(229,328,o),
(208,279,o),
(208,245,q),
(208,213,o),
(228,164,o),
(266,137,o),
(293,137,q)
);
}
);
width = 590;
}
);
unicode = 111;
},
{
glyphname = oslash;
layers = (
{
layerId = m001;
shapes = (
{
closed = 1;
nodes = (
(187,-12,o),
(90,54,o),
(40,170,o),
(40,245,q),
(40,317,o),
(93,431,o),
(194,498,o),
(265,498,q),
(337,498,o),
(434,431,o),
(483,315,o),
(483,240,q),
(483,168,o),
(430,54,o),
(330,-12,o),
(259,-13,q)
);
},
{
closed = 1;
nodes = (
(313,28,o),
(390,86,o),
(432,183,o),
(432,239,q),
(432,299,o),
(393,398,o),
(319,457,o),
(264,457,q),
(211,457,o),
(133,399,o),
(91,303,o),
(91,246,q),
(91,187,o),
(130,87,o),
(205,28,o),
(259,28,q)
);
},
{
closed = 1;
nodes = (
(142,49,l),
(347,444,l),
(384,417,l),
(182,28,l)
);
}
);
width = 523;
},
{
layerId = m003;
shapes = (
{
closed = 1;
nodes = (
(213,-11,o),
(90,45,o),
(20,159,o),
(20,245,q),
(20,327,o),
(94,441,o),
(219,502,o),
(295,502,q),
(375,502,o),
(499,443,o),
(570,327,o),
(570,240,q),
(570,159,o),
(495,47,o),
(369,-11,o),
(291,-11,q)
);
},
{
closed = 1;
nodes = (
(322,137,o),
(361,160,o),
(382,206,o),
(382,240,q),
(382,273,o),
(362,324,o),
(325,354,o),
(297,354,q),
(269,354,o),
(229,328,o),
(208,279,o),
(208,245,q),
(208,213,o),
(228,164,o),
(266,137,o),
(293,137,q)
);
},
{
closed = 1;
nodes = (
(187,142,l),
(316,380,l),
(399,332,l),
(263,91,l)
);
}
);
width = 590;
}
);
unicode = 248;
},
{
glyphname = oe;
layers = (
{
layerId = m001;
shapes = (
{
closed = 1;
nodes = (
(369,242,l),
(370,184,o),
(405,87,o),
(480,28,o),
(540,28,q),
(593,28,o),
(658,49,o),
(683,62,q),
(703,25,l),
(683,13,o),
(625,-4,o),
(568,-13,o),
(548,-13,q),
(504,-13,o),
(434,8,o),
(407,27,q),
(387,15,o),
(343,-3,o),
(291,-13,o),
(259,-13,q),
(188,-13,o),
(90,53,o),
(40,170,o),
(40,245,q),
(40,318,o),
(93,432,o),
(195,498,o),
(266,498,q),
(294,498,o),
(343,489,o),
(387,472,o),
(406,461,q),
(430,478,o),
(492,498,o),
(530,498,q),
(586,498,o),
(671,431,o),
(718,317,o),
(718,245,q),
(718,242,l)
);
},
{
closed = 1;
nodes = (
(666,279,l),
(662,327,o),
(631,408,o),
(571,457,o),
(523,457,q),
(475,457,o),
(411,408,o),
(376,327,o),
(371,279,q)
);
},
{
closed = 1;
nodes = (
(91,187,o),
(130,87,o),
(205,28,o),
(259,28,q),
(303,28,o),
(354,45,o),
(376,56,q),
(347,91,o),
(318,187,o),
(318,245,q),
(318,302,o),
(347,398,o),
(375,432,q),
(354,442,o),
(302,457,o),
(264,457,q),
(211,457,o),
(133,399,o),
(91,303,o),
(91,246,q)
);
}
);
width = 758;
},
{
layerId = m003;
shapes = (
{
closed = 1;
nodes = (
(541,197,l),
(548,177,o),
(576,147,o),
(620,131,o),
(651,131,q),
(695,131,o),
(762,153,o),
(784,164,q),
(835,41,l),
(816,27,o),
(752,3,o),
(674,-11,o),
(633,-11,q),
(580,-11,o),
(486,13,o),
(449,36,q),
(421,15,o),
(360,-5,o),
(305,-11,o),
(285,-11,q),
(207,-11,o),
(87,48,o),
(20,161,o),
(20,242,q),
(20,324,o),
(87,440,o),
(207,502,o),
(285,502,q),
(305,502,o),
(359,496,o),
(420,477,o),
(447,456,q),
(479,479,o),
(559,502,o),
(604,502,q),
(682,502,o),
(785,433,o),
(836,318,o),
(836,250,q),
(836,197,l)
);
},
{
closed = 1;
nodes = (
(662,287,l),
(662,301,o),
(649,333,o),
(622,356,o),
(599,356,q),
(583,356,o),
(553,337,o),
(536,306,o),
(536,287,q)
);
},
{
closed = 1;
nodes = (
(208,208,o),
(235,161,o),
(279,137,o),
(303,137,q),
(318,137,o),
(345,141,o),
(360,146,q),
(352,167,o),
(343,215,o),
(343,242,q),
(343,271,o),
(352,323,o),
(361,345,q),
(347,350,o),
(320,354,o),
(303,354,q),
(279,354,o),
(235,327,o),
(208,277,o),
(208,242,q)
);
}
);
width = 856;
}
);
unicode = 339;
},
{
glyphname = p;
layers = (
{
layerId = m001;
shapes = (
{
closed = 1;
nodes = (
(125,418,l),
(104,485,l),
(76,485,l),
(76,-219,l),
(125,-208,l)
);
},
{
closed = 1;
nodes = (
(146,415,o),
(209,457,o),
(259,457,q),
(314,457,o),
(383,398,o),
(417,299,o),
(417,239,q),
(417,183,o),
(380,86,o),
(308,28,o),
(254,28,q),
(208,28,o),
(140,68,o),
(115,92,q),
(95,59,l),
(109,45,o),
(159,11,o),
(221,-13,o),
(252,-13,q),
(324,-13,o),
(420,53,o),
(468,168,o),
(468,240,q),
(468,316,o),
(423,432,o),
(331,498,o),
(259,498,q),
(226,498,o),
(169,479,o),
(120,444,o),
(100,420,q),
(120,386,l)
);
}
);
width = 508;
},
{
layerId = m003;
shapes = (
{
closed = 1;
nodes = (
(238,393,l),
(147,484,l),
(56,484,l),
(56,-219,l),
(238,-209,l)
);
},
{
closed = 1;
nodes = (
(208,326,o),
(258,362,o),
(282,362,q),
(311,362,o),
(350,336,o),
(371,285,o),
(371,248,q),
(371,211,o),
(349,157,o),
(313,129,o),
(290,129,q),
(264,129,o),
(208,158,o),
(179,185,q),
(128,78,l),
(156,46,o),
(213,7,o),
(272,-11,o),
(302,-11,q),
(379,-11,o),
(494,47,o),
(559,163,o),
(559,249,q),
(559,336,o),
(494,448,o),
(382,502,o),
(310,502,q),
(273,502,o),
(203,476,o),
(146,435,o),
(128,413,q),
(179,296,l)
);
}
);
width = 579;
}
);
unicode = 112;
},
{
glyphname = thorn;
layers = (
{
layerId = m001;
shapes = (
{
closed = 1;
nodes = (
(331,498,o),
(423,432,o),
(468,316,o),
(468,240,q),
(468,168,o),
(420,53,o),
(324,-13,o),
(252,-13,q),
(218,-13,o),
(150,16,o),
(125,33,q),
(125,-208,l),
(76,-219,l),
(76,696,l),
(125,706,l),
(125,446,l),
(152,470,o),
(219,498,o),
(259,498,q)
);
},
{
closed = 1;
nodes = (
(308,28,o),
(380,86,o),
(417,183,o),
(417,239,q),
(417,299,o),
(383,398,o),
(314,457,o),
(259,457,q),
(211,457,o),
(150,419,o),
(125,392,q),
(125,83,l),
(149,61,o),
(213,28,o),
(254,28,q)
);
}
);
width = 508;
},
{
layerId = m003;
shapes = (
{
closed = 1;
nodes = (
(382,502,o),
(494,448,o),
(559,336,o),
(559,249,q),
(559,163,o),
(494,47,o),
(379,-11,o),
(302,-11,q),
(290,-11,o),
(257,-4,o),
(238,2,q),
(238,-209,l),
(56,-219,l),
(56,695,l),
(238,706,l),
(238,486,l),
(257,493,o),
(295,502,o),
(310,502,q)
);
},
{
closed = 1;
nodes = (
(313,129,o),
(349,157,o),
(371,211,o),
(371,248,q),
(371,285,o),
(350,336,o),
(311,362,o),
(282,362,q),
(271,362,o),
(249,354,o),
(238,347,q),
(238,142,l),
(251,136,o),
(277,129,o),
(290,129,q)
);
}
);
width = 579;
}
);
unicode = 254;
},
{
glyphname = q;
layers = (
{
layerId = m001;
shapes = (
{
closed = 1;
nodes = (
(383,419,l),
(383,-219,l),
(432,-208,l),
(432,485,l),
(405,485,l)
);
},
{
closed = 1;
nodes = (
(362,70,o),
(299,28,o),
(249,28,q),
(195,28,o),
(125,87,o),
(91,187,o),
(91,246,q),
(91,303,o),
(128,399,o),
(201,457,o),
(254,457,q),
(300,457,o),
(368,417,o),
(393,393,q),
(413,426,l),
(400,441,o),
(350,474,o),
(288,498,o),
(256,498,q),
(185,498,o),
(88,432,o),
(40,318,o),
(40,245,q),
(40,170,o),
(85,53,o),
(178,-13,o),
(249,-13,q),
(282,-13,o),
(339,6,o),
(388,42,o),
(408,65,q),
(388,99,l)
);
}
);
width = 508;
},
{
layerId = m003;
shapes = (
{
closed = 1;
nodes = (
(341,389,l),
(341,-219,l),
(523,-208,l),
(523,484,l),
(432,484,l)
);
},
{
closed = 1;
nodes = (
(371,165,o),
(321,129,o),
(297,129,q),
(269,129,o),
(229,155,o),
(208,206,o),
(208,243,q),
(208,281,o),
(230,334,o),
(267,362,o),
(289,362,q),
(315,362,o),
(371,333,o),
(400,306,q),
(451,413,l),
(423,445,o),
(366,484,o),
(307,502,o),
(277,502,q),
(201,502,o),
(85,444,o),
(20,329,o),
(20,242,q),
(20,156,o),
(85,43,o),
(198,-11,o),
(269,-11,q),
(307,-11,o),
(376,15,o),
(433,56,o),
(451,78,q),
(400,195,l)
);
}
);
width = 579;
}
);
unicode = 113;
},
{
glyphname = r;
layers = (
{
layerId = m001;
shapes = (
{
closed = 1;
nodes = (
(119,357,l),
(138,378,o),
(195,419,o),
(262,447,o),
(292,447,q),
(275,485,l),
(250,485,o),
(189,459,o),
(134,423,o),
(116,408,q),
(98,485,l),
(70,485,l),
(70,0,l),
(119,0,l)
);
}
);
width = 302;
},
{
layerId = m003;
shapes = (
{
closed = 1;
nodes = (
(232,285,l),
(253,301,o),
(306,325,o),
(361,339,o),
(385,339,q),
(348,485,l),
(321,485,o),
(260,466,o),
(205,439,o),
(185,425,q),
(141,484,l),
(50,484,l),
(50,0,l),
(232,0,l)
);
}
);
width = 395;
}
);
unicode = 114;
},
{
glyphname = s;
layers = (
{
layerId = m001;
shapes = (
{
closed = 1;
nodes = (
(61,13,o),
(114,-4,o),
(169,-13,o),
(189,-13,q),
(282,-13,o),
(366,59,o),
(366,123,q),
(366,157,o),
(325,210,o),
(259,250,o),
(219,266,q),
(169,286,o),
(97,334,o),
(97,368,q),
(97,403,o),
(159,457,o),
(210,457,q),
(255,457,o),
(314,433,o),
(334,423,q),
(354,458,l),
(338,470,o),
(289,488,o),
(238,498,o),
(217,498,q),
(135,498,o),
(50,421,o),
(50,364,q),
(50,333,o),
(89,282,o),
(154,244,o),
(191,229,q),
(227,215,o),
(285,182,o),
(319,143,o),
(319,119,q),
(319,92,o),
(288,51,o),
(231,28,o),
(191,28,q),
(166,28,o),
(119,40,o),
(78,58,o),
(60,66,q),
(42,25,l)
);
}
);
width = 406;
},
{
layerId = m003;
shapes = (
{
closed = 1;
nodes = (
(50,24,o),
(132,-1,o),
(209,-11,o),
(229,-11,q),
(330,-11,o),
(431,75,o),
(431,151,q),
(431,196,o),
(379,257,o),
(301,298,o),
(261,312,q),
(239,320,o),
(210,336,o),
(210,342,q),
(210,352,o),
(238,364,o),
(260,364,q),
(286,364,o),
(350,348,o),
(379,335,q),
(430,450,l),
(402,472,o),
(332,494,o),
(267,502,o),
(247,502,q),
(146,502,o),
(32,416,o),
(32,340,q),
(32,296,o),
(85,234,o),
(165,193,o),
(205,179,q),
(219,175,o),
(241,164,o),
(253,153,o),
(253,149,q),
(253,143,o),
(242,133,o),
(223,127,o),
(211,127,q),
(194,127,o),
(144,137,o),
(93,152,o),
(73,161,q),
(22,46,l)
);
}
);
width = 451;
}
);
unicode = 115;
},
{
glyphname = germandbls;
layers = (
{
layerId = m001;
shapes = (
{
closed = 1;
nodes = (
(130,0,l),
(130,473,l),
(130,519,o),
(163,594,o),
(230,639,o),
(279,639,q),
(333,639,o),
(413,568,o),
(413,502,q),
(413,439,o),
(338,372,o),
(248,372,q),
(221,372,l),
(221,333,l),
(266,333,l),
(348,333,o),
(447,262,o),
(447,186,q),
(447,134,o),
(396,69,o),
(310,39,o),
(256,39,q),
(205,39,l),
(205,0,l),
(243,0,l),
(314,0,o),
(430,34,o),
(499,117,o),
(499,188,q),
(499,232,o),
(464,300,o),
(405,346,o),
(369,356,q),
(399,369,o),
(442,410,o),
(465,468,o),
(465,503,q),
(465,561,o),
(414,640,o),
(328,680,o),
(276,680,q),
(214,680,o),
(126,630,o),
(80,538,o),
(80,473,q),
(80,0,l)
);
}
);
width = 544;
},
{
layerId = m003;
shapes = (
{
closed = 1;
nodes = (
(242,0,l),
(242,457,l),
(242,488,o),
(269,528,o),
(310,549,o),
(329,549,q),
(368,549,o),
(414,510,o),
(414,485,q),
(414,461,o),
(362,416,o),
(327,416,q),
(300,416,l),
(300,286,l),
(379,286,l),
(405,286,o),
(445,249,o),
(445,214,q),
(445,194,o),
(425,164,o),
(391,149,o),
(371,149,q),
(295,149,l),
(295,0,l),
(388,0,l),
(460,0,o),
(569,49,o),
(630,139,o),
(630,200,q),
(630,235,o),
(603,301,o),
(558,353,o),
(529,364,q),
(554,381,o),
(583,429,o),
(596,481,o),
(596,503,q),
(596,564,o),
(525,653,o),
(402,702,o),
(323,702,q),
(243,702,o),
(125,638,o),
(60,525,o),
(60,452,q),
(60,0,l)
);
}
);
width = 660;
}
);
unicode = 223;
},
{
glyphname = t;
layers = (
{
layerId = m001;
shapes = (
{
closed = 1;
nodes = (
(141,470,l),
(141,623,l),
(92,601,l),
(92,470,l),
(20,470,l),
(20,433,l),
(92,433,l),
(92,116,l),
(92,74,o),
(118,17,o),
(165,-13,o),
(196,-13,q),
(209,-13,o),
(234,-9,o),
(255,-3,o),
(262,-1,q),
(250,37,l),
(245,35,o),
(220,28,o),
(209,28,q),
(172,28,o),
(141,87,o),
(141,123,q),
(141,433,l),
(250,433,l),
(229,470,l)
);
}
);
width = 292;
},
{
layerId = m003;
shapes = (
{
closed = 1;
nodes = (
(267,465,l),
(267,621,l),
(85,596,l),
(85,465,l),
(10,465,l),
(10,322,l),
(85,322,l),
(85,182,l),
(85,118,o),
(150,32,o),
(254,-11,o),
(312,-11,q),
(336,-11,o),
(389,2,o),
(434,22,o),
(446,32,q),
(394,156,l),
(377,146,o),
(339,137,o),
(324,137,q),
(298,137,o),
(267,172,o),
(267,202,q),
(267,322,l),
(411,322,l),
(394,465,l)
);
}
);
width = 456;
}
);
unicode = 116;
},
{
glyphname = tcaron;
layers = (
{
layerId = m001;
shapes = (
{
closed = 1;
nodes = (
(331,702,o),
(314,691,o),
(305,673,o),
(305,663,q),
(305,657,o),
(313,639,o),
(329,625,o),
(341,625,q),
(340,598,o),
(306,557,o),
(280,543,q),
(296,518,l),
(324,532,o),
(362,574,o),
(382,629,o),
(382,659,q),
(382,674,o),
(361,702,o),
(343,702,q)
);
},
{
closed = 1;
nodes = (
(141,470,l),
(141,623,l),
(92,601,l),
(92,470,l),
(20,470,l),
(20,433,l),
(92,433,l),
(92,116,l),
(92,74,o),
(118,17,o),
(165,-13,o),
(196,-13,q),
(209,-13,o),
(234,-9,o),
(255,-3,o),
(262,-1,q),
(250,37,l),
(245,35,o),
(220,28,o),
(209,28,q),
(172,28,o),
(141,87,o),
(141,123,q),
(141,433,l),
(250,433,l),
(229,470,l)
);
}
);
width = 412;
},
{
layerId = m003;
shapes = (
{
closed = 1;
nodes = (
(493,742,o),
(451,715,o),
(427,673,o),
(427,650,q),
(427,634,o),
(438,604,o),
(458,580,o),
(470,572,q),
(466,559,o),
(432,529,o),
(418,521,q),
(454,441,l),
(498,458,o),
(569,519,o),
(611,596,o),
(611,635,q),
(611,683,o),
(557,742,o),
(519,742,q)
);
},
{
closed = 1;
nodes = (
(267,465,l),
(267,621,l),
(85,596,l),
(85,465,l),
(10,465,l),
(10,322,l),
(85,322,l),
(85,182,l),
(85,118,o),
(150,32,o),
(254,-11,o),
(312,-11,q),
(336,-11,o),
(389,2,o),
(434,22,o),
(446,32,q),
(394,156,l),
(377,146,o),
(339,137,o),
(324,137,q),
(298,137,o),
(267,172,o),
(267,202,q),
(267,322,l),
(411,322,l),
(394,465,l)
);
}
);
width = 641;
}
);
unicode = 357;
},
{
glyphname = u;
layers = (
{
layerId = m001;
shapes = (
{
closed = 1;
nodes = (
(381,126,l),
(353,98,o),
(294,53,o),
(235,28,o),
(206,28,q),
(151,28,o),
(115,98,o),
(115,148,q),
(115,485,l),
(66,485,l),
(66,148,l),
(66,102,o),
(95,29,o),
(158,-13,o),
(210,-13,q),
(240,-13,o),
(304,11,o),
(362,52,o),
(382,76,q),
(392,0,l),
(430,0,l),
(430,485,l),
(381,485,l)
);
}
);
width = 500;
},
{
layerId = m003;
shapes = (
{
closed = 1;
nodes = (
(378,158,l),
(364,152,o),
(327,139,o),
(292,130,o),
(280,130,q),
(250,130,o),
(228,166,o),
(228,188,q),
(228,484,l),
(46,484,l),
(46,171,l),
(46,117,o),
(83,32,o),
(161,-17,o),
(222,-17,q),
(261,-17,o),
(334,4,o),
(396,34,o),
(420,49,q),
(472,-1,l),
(560,-1,l),
(560,484,l),
(378,484,l)
);
}
);
width = 610;
}
);
unicode = 117;
},
{
glyphname = uogonek;
layers = (
{
layerId = m001;
shapes = (
{
closed = 1;
nodes = (
(375,-11,o),
(347,-50,o),
(331,-92,o),
(331,-111,q),
(331,-139,o),
(359,-183,o),
(406,-207,o),
(436,-207,q),
(461,-207,o),
(503,-190,o),
(516,-177,q),
(494,-150,l),
(482,-160,o),
(455,-171,o),
(439,-171,q),
(420,-171,o),
(377,-142,o),
(377,-112,q),
(377,-90,o),
(389,-51,o),
(412,-16,o),
(430,0,q),
(393,4,l)
);
},
{
closed = 1;
nodes = (
(381,126,l),
(353,98,o),
(294,53,o),
(235,28,o),
(206,28,q),
(151,28,o),
(115,98,o),
(115,148,q),
(115,485,l),
(66,485,l),
(66,148,l),
(66,102,o),
(95,29,o),
(158,-13,o),
(210,-13,q),
(240,-13,o),
(304,11,o),
(362,52,o),
(382,76,q),
(392,0,l),
(430,0,l),
(430,485,l),
(381,485,l)
);
}
);
width = 500;
},
{
layerId = m003;
shapes = (
{
closed = 1;
nodes = (
(417,11,o),
(396,-49,o),
(391,-91,o),
(391,-109,q),
(391,-141,o),
(425,-205,o),
(491,-246,o),
(539,-246,q),
(579,-246,o),
(645,-219,o),
(662,-199,q),
(601,-97,l),
(587,-110,o),
(567,-117,o),
(557,-117,q),
(544,-117,o),
(528,-97,o),
(528,-85,q),
(528,-72,o),
(539,-40,o),
(554,-9,o),
(560,-1,q),
(442,53,l)
);
},
{
closed = 1;
nodes = (
(378,158,l),
(364,152,o),
(327,139,o),
(292,130,o),
(280,130,q),
(250,130,o),
(228,166,o),
(228,188,q),
(228,484,l),
(46,484,l),
(46,171,l),
(46,117,o),
(83,32,o),
(161,-17,o),
(222,-17,q),
(261,-17,o),
(334,4,o),
(396,34,o),
(420,49,q),
(472,-1,l),
(560,-1,l),
(560,484,l),
(378,484,l)
);
}
);
width = 610;
}
);
unicode = 371;
},
{
glyphname = v;
layers = (
{
layerId = m001;
shapes = (
{
closed = 1;
nodes = (
(420,485,l),
(370,485,l),
(216,56,l),
(56,492,l),
(10,474,l),
(193,0,l),
(240,0,l)
);
}
);
width = 430;
},
{
layerId = m003;
shapes = (
{
closed = 1;
nodes = (
(559,485,l),
(378,485,l),
(285,211,l),
(188,503,l),
(20,455,l),
(196,0,l),
(368,0,l)
);
}
);
width = 569;
}
);
unicode = 118;
},
{
glyphname = w;
layers = (
{
layerId = m001;
shapes = (
{
closed = 1;
nodes = (
(632,485,l),
(582,485,l),
(466,64,l),
(340,485,l),
(298,485,l),
(175,64,l),
(56,491,l),
(10,473,l),
(153,0,l),
(200,0,l),
(315,409,l),
(441,0,l),
(488,0,l)
);
}
);
width = 642;
},
{
layerId = m003;
shapes = (
{
closed = 1;
nodes = (
(802,485,l),
(621,485,l),
(558,210,l),
(486,485,l),
(315,485,l),
(248,210,l),
(178,503,l),
(10,455,l),
(158,0,l),
(324,0,l),
(399,251,l),
(475,0,l),
(641,0,l)
);
}
);
width = 812;
}
);
unicode = 119;
},
{
glyphname = x;
layers = (
{
layerId = m001;
shapes = (
{
closed = 1;
nodes = (
(196,207,l),
(327,0,l),
(382,0,l),
(235,232,l),
(395,485,l),
(341,485,l),
(209,267,l),
(73,494,l),
(30,474,l),
(171,244,l),
(10,0,l),
(66,0,l)
);
}
);
width = 405;
},
{
layerId = m003;
shapes = (
{
closed = 1;
nodes = (
(278,104,l),
(343,0,l),
(547,0,l),
(382,231,l),
(547,485,l),
(346,485,l),
(272,368,l),
(187,500,l),
(11,458,l),
(168,241,l),
(10,0,l),
(215,0,l)
);
}
);
width = 557;
}
);
unicode = 120;
},
{
glyphname = y;
layers = (
{
layerId = m001;
shapes = (
{
closed = 1;
nodes = (
(154,-120,o),
(127,-151,o),
(89,-172,o),
(63,-181,q),
(68,-219,l),
(100,-212,o),
(153,-183,o),
(191,-139,o),
(201,-112,q),
(420,485,l),
(370,485,l),
(216,56,l),
(56,491,l),
(10,473,l),
(193,0,l),
(162,-98,l)
);
}
);
width = 430;
},
{
layerId = m003;
shapes = (
{
closed = 1;
nodes = (
(175,-16,o),
(133,-44,o),
(80,-68,o),
(56,-78,q),
(117,-219,l),
(165,-208,o),
(255,-162,o),
(323,-96,o),
(338,-57,q),
(551,485,l),
(370,485,l),
(277,211,l),
(178,503,l),
(10,455,l),
(184,9,l),
(180,-2,l)
);
}
);
width = 561;
}
);
unicode = 121;
},
{
glyphname = z;
layers = (
{
layerId = m001;
shapes = (
{
closed = 1;
nodes = (
(57,485,l),
(73,448,l),
(350,448,l),
(28,31,l),
(36,0,l),
(398,0,l),
(388,37,l),
(79,37,l),
(404,453,l),
(401,485,l)
);
}
);
width = 432;
},
{
layerId = m003;
shapes = (
{
closed = 1;
nodes = (
(30,485,l),
(47,342,l),
(207,342,l),
(8,94,l),
(30,0,l),
(444,0,l),
(427,143,l),
(230,143,l),
(426,384,l),
(417,485,l)
);
}
);
width = 452;
}
);
unicode = 122;
},
{
glyphname = ordfeminine;
layers = (
{
layerId = m001;
shapes = (
{
closed = 1;
nodes = (
(85,494,o),
(126,533,o),
(169,533,q),
(246,533,l),
(246,447,l),
(230,425,o),
(183,397,o),
(155,397,q),
(123,397,o),
(85,441,o),
(85,466,q)
);
},
{
closed = 1;
nodes = (
(92,648,o),
(132,663,o),
(166,663,q),
(206,663,o),
(246,621,o),
(246,587,q),
(246,564,l),
(160,564,l),
(109,564,o),
(40,512,o),
(40,466,q),
(40,423,o),
(101,363,o),
(155,363,q),
(181,363,o),
(232,388,o),
(249,408,q),
(260,372,l),
(292,372,l),
(292,580,l),
(292,612,o),
(264,667,o),
(208,702,o),
(165,702,q),
(152,702,o),
(113,695,o),
(75,682,o),
(62,673,q),
(74,641,l)
);
}
);
width = 332;
},
{
layerId = m003;
shapes = (
{
closed = 1;
nodes = (
(138,468,o),
(151,475,o),
(161,475,q),
(197,475,l),
(197,470,l),
(190,461,o),
(169,451,o),
(158,451,q),
(149,451,o),
(138,457,o),
(138,461,q)
);
},
{
closed = 1;
nodes = (
(85,567,o),
(134,580,o),
(152,580,q),
(164,580,o),
(184,574,o),
(188,566,q),
(189,564,l),
(155,564,l),
(95,564,o),
(20,512,o),
(20,456,q),
(20,402,o),
(84,337,o),
(150,337,q),
(179,337,o),
(230,355,o),
(246,371,q),
(269,344,l),
(327,344,l),
(327,558,l),
(327,602,o),
(294,667,o),
(231,702,o),
(184,702,q),
(156,702,o),
(99,693,o),
(50,678,o),
(31,669,q),
(66,559,l)
);
}
);
width = 347;
}
);
unicode = 170;
},
{
glyphname = ordmasculine;
layers = (
{
layerId = m001;
shapes = (
{
closed = 1;
nodes = (
(132,702,o),
(63,660,o),
(20,584,o),
(20,532,q),
(20,478,o),
(63,403,o),
(132,363,o),
(172,363,q),
(213,363,o),
(282,404,o),
(324,480,o),
(324,532,q),
(324,586,o),
(281,662,o),
(211,702,o),
(171,702,q)
);
},
{
closed = 1;
nodes = (
(217,667,o),
(279,595,o),
(279,532,q),
(279,489,o),
(248,429,o),
(199,399,o),
(172,399,q),
(130,399,o),
(65,470,o),
(65,532,q),
(65,576,o),
(96,636,o),
(145,667,o),
(171,667,q)
);
}
);
width = 344;
},
{
layerId = m003;
shapes = (
{
closed = 1;
nodes = (
(145,702,o),
(64,657,o),
(20,575,o),
(20,519,q),
(20,463,o),
(61,381,o),
(140,337,o),
(195,337,q),
(252,337,o),
(336,381,o),
(382,462,o),
(382,517,q),
(382,573,o),
(339,656,o),
(258,702,o),
(200,702,q)
);
},
{
closed = 1;
nodes = (
(226,578,o),
(244,545,o),
(244,517,q),
(244,497,o),
(234,471,o),
(214,458,o),
(198,458,q),
(176,458,o),
(158,489,o),
(158,519,q),
(158,540,o),
(169,566,o),
(189,578,o),
(202,578,q)
);
}
);
width = 402;
}
);
unicode = 186;
},
{
glyphname = "pi-grek";
layers = (
{
layerId = m001;
shapes = (
{
closed = 1;
nodes = (
(158,446,l),
(382,446,l),
(382,0,l),
(431,0,l),
(431,446,l),
(531,446,l),
(531,485,l),
(10,485,l),
(10,446,l),
(109,446,l),
(109,0,l),
(158,0,l)
);
}
);
width = 541;
},
{
layerId = m003;
shapes = (
{
closed = 1;
nodes = (
(292,342,l),
(430,342,l),
(430,0,l),
(612,0,l),
(612,342,l),
(712,342,l),
(712,485,l),
(10,485,l),
(10,342,l),
(110,342,l),
(110,0,l),
(292,0,l)
);
}
);
width = 722;
}
);
unicode = 960;
},
{
color = 5;
glyphname = "alef-hebr";
lastChange = "2023-07-08 03:13:51 +0000";
layers = (
{
anchors = (
{
name = Anchor_1;
pos = (329,0);
},
{
name = dagesh;
pos = (248,-99);
}
);
layerId = m001;
shapes = (
{
closed = 1;
nodes = (
(358,257,l),
(540,604,l),
(579,579,l),
(389,219,l)
);
},
{
closed = 1;
nodes = (
(520,0,l),
(75,587,l),
(122,604,l),
(581,0,l)
);
},
{
closed = 1;
nodes = (
(75,0,l),
(75,232,ls),
(75,337,o),
(126,391,o),
(224,439,c),
(251,408,l),
(159,360,o),
(124,320,o),
(124,237,cs),
(124,0,l)
);
}
);
width = 631;
},
{
anchors = (
{
name = Anchor_1;
pos = (329,0);
},
{
name = dagesh;
pos = (266,-159);
}
);
layerId = m003;
shapes = (
{
closed = 1;
nodes = (
(335,373,l),
(517,615,l),
(637,498,l),
(448,255,l)
);
},
{
closed = 1;
nodes = (
(424,0,l),
(40,555,l),
(200,616,l),
(629,0,l)
);
},
{
closed = 1;
nodes = (
(25,0,l),
(25,191,ls),
(25,319,o),
(97,395,o),
(208,449,c),
(276,345,l),
(226,306,o),
(205,285,o),
(205,227,cs),
(205,0,l)
);
}
);
width = 657;
},
{
anchors = (
{
name = Anchor_1;
pos = (329,0);
},
{
name = dagesh;
pos = (266,-159);
}
);
associatedMasterId = m003;
layerId = "87F4DE94-8CF7-459A-AC7D-57522B72DD93";
name = "Jul 7, 23, 20:10";
shapes = (
{
closed = 1;
nodes = (
(335,373,l),
(517,615,l),
(637,498,l),
(448,255,l)
);
},
{
closed = 1;
nodes = (
(424,0,l),
(40,555,l),
(200,616,l),
(629,0,l)
);
},
{
closed = 1;
nodes = (
(25,0,l),
(25,191,l),
(25,254,o),
(44,304,o),
(65,336,c),
(94,379,o),
(154,423,o),
(208,449,c),
(276,345,l),
(257,328,o),
(241,312,o),
(227,298,c),
(212,284,o),
(205,260,o),
(205,227,c),
(205,0,l)
);
}
);
visible = 1;
width = 657;
},
{
anchors = (
{
name = Anchor_1;
pos = (329,0);
},
{
name = dagesh;
pos = (248,-99);
}
);
associatedMasterId = m001;
layerId = "75AD5841-AE30-4FE5-B811-6BD72EECCC84";
name = "Jul 7, 23, 20:11";
shapes = (
{
closed = 1;
nodes = (
(358,257,l),
(540,604,l),
(579,579,l),
(389,219,l)
);
},
{
closed = 1;
nodes = (
(520,0,l),
(75,587,l),
(122,604,l),
(581,0,l)
);
},
{
closed = 1;
nodes = (
(75,0,l),
(75,232,l),
(75,293,o),
(94,335,o),
(117,363,c),
(143,395,o),
(187,421,o),
(224,439,c),
(251,408,l),
(238,400,o),
(205,384,o),
(177,360,c),
(143,331,o),
(124,293,o),
(124,237,c),
(124,0,l)
);
}
);
visible = 1;
width = 631;
}
);
unicode = 1488;
},
{
color = 5;
glyphname = "bet-hebr";
lastChange = "2023-07-08 03:16:05 +0000";
layers = (
{
anchors = (
{
name = Anchor_1;
pos = (268,0);
},
{
name = dagesh;
pos = (206,0);
}
);
layerId = m001;
shapes = (
{
closed = 1;
nodes = (
(430,39,l),
(490,39,l),
(485,0,l),
(65,0,l),
(65,39,l),
(381,39,l),
(381,551,l),
(65,551,l),
(75,590,l),
(430,590,l)
);
}
);
width = 520;
},
{
anchors = (
{
name = Anchor_1;
pos = (268,0);
},
{
name = dagesh;
pos = (141,0);
}
);
layerId = m003;
shapes = (
{
closed = 1;
nodes = (
(25,0,l),
(25,143,l),
(260,143,l),
(260,447,l),
(25,447,l),
(45,590,l),
(442,590,l),
(442,143,l),
(500,143,l),
(495,0,l)
);
}
);
width = 516;
}
);
unicode = 1489;
},
{
color = 5;
glyphname = "gimel-hebr";
lastChange = "2023-07-08 03:22:51 +0000";
layers = (
{
anchors = (
{
name = Anchor_1;
pos = (210,0);
},
{
name = dagesh;
pos = (121,21);
}
);
layerId = m001;
shapes = (
{
closed = 1;
nodes = (
(303,-10,l),
(278,65,ls),
(265.333,104.333,o),
(257,134.333,o),
(253,155,c),
(216,59,o),
(154,-8,o),
(52,-6,c),
(57,40,l),
(162.96,45.728,o),
(237,160.816,o),
(237,258,cs),
(237,551,l),
(68,551,l),
(78,590,l),
(286,590,l),
(286,259,ls),
(286,209.667,o),
(297,153.667,o),
(319,91,cs),
(350,3,l)
);
}
);
width = 380;
},
{
anchors = (
{
name = Anchor_1;
pos = (198,0);
},
{
name = dagesh;
pos = (100,36);
}
);
layerId = m003;
shapes = (
{
closed = 1;
nodes = (
(250,-10,l),
(238,52,ls),
(228.667,94,o),
(223,127,o),
(221,151,c),
(194.924,51.299,o),
(126.924,-18.573,o),
(6,-16,c),
(11,150,l),
(66,147,o),
(194,189,o),
(194,354,cs),
(194,447,l),
(26,447,l),
(46,590,l),
(376,590,l),
(376,295,ls),
(376,226.333,o),
(386.333,154.333,o),
(407,79,cs),
(426,3,l)
);
}
);
width = 424;
},
{
anchors = (
{
name = Anchor_1;
pos = (198,0);
},
{
name = dagesh;
pos = (100,36);
}
);
associatedMasterId = m003;
layerId = "BA1A0D17-218A-402E-AEDF-08BFA31148C2";
name = "Jul 7, 23, 20:15";
shapes = (
{
closed = 1;
nodes = (
(26,447,l),
(194,447,l),
(194,354,ls),
(194,281,o),
(135,189,o),
(45,148,o),
(11,150,q),
(6,-16,l),
(53,-17,o),
(125,5,o),
(204,86,o),
(221,151,q),
(224,115,o),
(238,52,q),
(250,-10,l),
(426,3,l),
(407,79,l),
(376,192,o),
(376,295,q),
(376,590,l),
(46,590,l)
);
}
);
visible = 1;
width = 424;
}
);
unicode = 1490;
},
{
color = 5;
glyphname = "dalet-hebr";
lastChange = "2023-07-08 03:22:51 +0000";
layers = (
{
anchors = (
{
name = Anchor_1;
pos = (367,0);
},
{
name = dagesh;
pos = (199,0);
}
);
layerId = m001;
shapes = (
{
closed = 1;
nodes = (
(354,0,l),
(354,551,l),
(60,551,l),
(70,590,l),
(485,590,l),
(480,551,l),
(403,551,l),
(403,0,l)
);
}
);
width = 523;
},
{
anchors = (
{
name = Anchor_1;
pos = (313,0);
},
{
name = dagesh;
pos = (121,0);
}
);
layerId = m003;
shapes = (
{
closed = 1;
nodes = (
(229,0,l),
(229,447,l),
(20,447,l),
(40,590,l),
(475,590,l),
(470,447,l),
(411,447,l),
(411,0,l)
);
}
);
width = 508;
}
);
unicode = 1491;
},
{
color = 5;
glyphname = "he-hebr";
lastChange = "2023-07-08 03:26:55 +0000";
layers = (
{
anchors = (
{
name = Anchor_1;
pos = (304,0);
},
{
name = dagesh;
pos = (295,0);
},
{
name = holam;
pos = (34,0);
}
);
layerId = m001;
shapes = (
{
closed = 1;
nodes = (
(462,0,l),
(462,409,ls),
(462,512,o),
(410,554,o),
(288,554,cs),
(202,554,o),
(136,535,o),
(87,516,c),
(68,553,l),
(106,571,o),
(189,595,o),
(288,595,cs),
(474,595,o),
(511,497,o),
(511,408,cs),
(511,0,l)
);
},
{
closed = 1;
nodes = (
(68,0,l),
(68,340,l),
(117,366,l),
(117,0,l)
);
}
);
width = 596;
},
{
anchors = (
{
name = Anchor_1;
pos = (304,0);
},
{
name = dagesh;
pos = (303,-24);
},
{
name = holam;
pos = (19,0);
}
);
layerId = m003;
shapes = (
{
closed = 1;
nodes = (
(369,0,l),
(369,319,ls),
(369,402,o),
(346,441,o),
(244,444,cs),
(172,446,o),
(100,429,o),
(41,414,c),
(15,563,l),
(52,574,o),
(144,595,o),
(253,595,cs),
(474,595,o),
(551,497,o),
(551,391,cs),
(551,0,l)
);
},
{
closed = 1;
nodes = (
(51,0,l),
(51,316,l),
(233,359,l),
(233,0,l)
);
}
);
width = 596;
}
);
unicode = 1492;
},
{
color = 5;
glyphname = "vav-hebr";
lastChange = "2023-07-08 03:26:55 +0000";
layers = (
{
anchors = (
{
name = Anchor_1;
pos = (218,0);
},
{
name = dagesh;
pos = (110,0);
}
);
layerId = m001;
shapes = (
{
closed = 1;
nodes = (
(190,0,l),
(190,551,l),
(60,551,l),
(70,590,l),
(239,590,l),
(239,0,l)
);
}
);
width = 329;
},
{
anchors = (
{
name = Anchor_1;
pos = (218,0);
},
{
name = dagesh;
pos = (65,-24);
}
);
layerId = m003;
shapes = (
{
closed = 1;
nodes = (
(123,0,l),
(123,447,l),
(20,447,l),
(40,590,l),
(305,590,l),
(305,0,l)
);
}
);
width = 355;
}
);
unicode = 1493;
},
{
color = 5;
glyphname = "zayin-hebr";
lastChange = "2023-07-08 03:30:26 +0000";
layers = (
{
anchors = (
{
name = Anchor_1;
pos = (275,0);
},
{
name = dagesh;
pos = (110,0);
}
);
layerId = m001;
shapes = (
{
closed = 1;
nodes = (
(243,-4,l),
(140,550,l),
(60,550,l),
(70,590,l),
(339,590,l),
(330,550,l),
(189,550,l),
(292,3,l)
);
}
);
width = 394;
},
{
anchors = (
{
name = Anchor_1;
pos = (275,0);
},
{
name = dagesh;
pos = (65,-27);
}
);
layerId = m003;
shapes = (
{
closed = 1;
nodes = (
(175,-14,l),
(100,447,l),
(20,447,l),
(40,590,l),
(366,590,l),
(345,447,l),
(283,447,l),
(356,11,l)
);
}
);
width = 386;
}
);
unicode = 1494;
},
{
color = 5;
glyphname = "het-hebr";
lastChange = "2023-07-08 03:30:26 +0000";
layers = (
{
anchors = (
{
name = Anchor_1;
pos = (313,0);
},
{
name = dagesh;
pos = (301,0);
}
);
layerId = m001;
shapes = (
{
closed = 1;
nodes = (
(476,0,l),
(476,422,ls),
(476,536,o),
(393,552,o),
(257,552,cs),
(216,552,o),
(176,551,o),
(139,548,c),
(139,0,l),
(90,0,l),
(90,582,l),
(148,590,o),
(221,596,o),
(295,596,cs),
(487,596,o),
(525,519,o),
(525,421,cs),
(525,0,l)
);
}
);
width = 610;
},
{
anchors = (
{
name = Anchor_1;
pos = (320,0);
},
{
name = dagesh;
pos = (308,-21);
}
);
layerId = m003;
shapes = (
{
closed = 1;
nodes = (
(399,0,l),
(399,349,ls),
(399,416,o),
(376,444,o),
(298,444,cs),
(264,444,o),
(242,443,o),
(227,442,c),
(227,0,l),
(45,0,l),
(45,574,l),
(90,585,o),
(184,598,o),
(306,595,cs),
(497,590,o),
(581,506,o),
(581,385,cs),
(581,0,l)
);
}
);
width = 626;
}
);
unicode = 1495;
},
{
color = 5;
glyphname = "tet-hebr";
lastChange = "2023-07-08 03:31:52 +0000";
layers = (
{
anchors = (
{
name = Anchor_1;
pos = (312,0);
},
{
name = dagesh;
pos = (396,0);
}
);
layerId = m001;
shapes = (
{
closed = 1;
nodes = (
(141,-12,o),
(85,116,o),
(85,253,cs),
(85,590,l),
(132,590,l),
(134,253,ls),
(134,87,o),
(217,33,o),
(319,33,cs),
(421,33,o),
(504,87,o),
(504,253,cs),
(505,551,l),
(459,549,o),
(371,514,o),
(320,346,c),
(281,367,l),
(329,535,o),
(431,590,o),
(524,590,cs),
(553,590,l),
(553,253,ls),
(553,116,o),
(497,-10,o),
(319,-11,cs)
);
}
);
width = 638;
},
{
anchors = (
{
name = Anchor_1;
pos = (312,0);
},
{
name = dagesh;
pos = (337,-9);
}
);
layerId = m003;
shapes = (
{
closed = 1;
nodes = (
(199,-11,o),
(45,54,o),
(45,290,c),
(45,590,l),
(227,590,l),
(227,265,l),
(227,180,o),
(272,150,o),
(337,150,cs),
(416,150,o),
(439,197,o),
(439,265,c),
(439,418,l),
(421,417,o),
(390,381,o),
(362,354,c),
(275,460,l),
(330,535,o),
(410,590,o),
(512,590,cs),
(621,590,l),
(621,290,ls),
(621,54,o),
(480,-11,o),
(337,-11,cs)
);
}
);
width = 666;
}
);
unicode = 1496;
},
{
color = 5;
glyphname = "yod-hebr";
lastChange = "2023-07-08 03:53:16 +0000";
layers = (
{
anchors = (
{
name = Anchor_1;
pos = (210,0);
},
{
name = dagesh;
pos = (108,138);
}
);
layerId = m001;
shapes = (
{
closed = 1;
nodes = (
(191,267,l),
(191,551,l),
(60,551,l),
(70,590,l),
(240,590,l),
(240,284,l)
);
}
);
width = 330;
},
{
anchors = (
{
name = Anchor_1;
pos = (210,0);
},
{
name = dagesh;
pos = (54,51);
}
);
layerId = m003;
shapes = (
{
closed = 1;
nodes = (
(123,230,l),
(123,447,l),
(20,447,l),
(40,590,l),
(305,590,l),
(305,270,l)
);
}
);
width = 355;
}
);
unicode = 1497;
},
{
color = 5;
glyphname = "finalkaf-hebr";
lastChange = "2023-07-08 03:53:16 +0000";
layers = (
{
anchors = (
{
name = Anchor_1;
pos = (249,351);
},
{
name = dagesh;
pos = (225,0);
}
);
layerId = m001;
shapes = (
{
closed = 1;
nodes = (
(411,-198,l),
(411,329,ls),
(411,446,o),
(381,554,o),
(222,554,cs),
(184,554,o),
(134,549,o),
(79,533,c),
(65,572,l),
(113,585,o),
(169,593,o),
(226,593,cs),
(380,593,o),
(460,522,o),
(460,338,cs),
(460,-179,l)
);
}
);
width = 540;
},
{
anchors = (
{
name = Anchor_1;
pos = (204,351);
},
{
name = dagesh;
pos = (186,-42);
}
);
layerId = m003;
shapes = (
{
closed = 1;
nodes = (
(320,-208,l),
(320,329,ls),
(320,402,o),
(293,444,o),
(214,444,cs),
(165,444,o),
(110,431,o),
(58,414,c),
(35,563,l),
(70,574,o),
(144,595,o),
(234,595,cs),
(425,595,o),
(502,497,o),
(502,391,cs),
(502,-172,l)
);
}
);
width = 547;
}
);
unicode = 1498;
},
{
color = 5;
glyphname = "kaf-hebr";
lastChange = "2023-07-08 03:53:16 +0000";
layers = (
{
anchors = (
{
name = Anchor_1;
pos = (261,0);
},
{
name = dagesh;
pos = (216,0);
}
);
layerId = m001;
shapes = (
{
closed = 1;
nodes = (
(152,-14,o),
(95,-1,o),
(55,17,c),
(71,57,l),
(121,41,o),
(163,29,o),
(222,29,cs),
(318,29,o),
(419,67,o),
(419,289,cs),
(419,509,o),
(332,554,o),
(215,554,cs),
(166,554,o),
(120,547,o),
(73,533,c),
(59,572,l),
(101,585,o),
(158,595,o),
(209,595,cs),
(338,595,o),
(468,552,o),
(468,290,cs),
(468,38,o),
(339,-14,o),
(216,-14,cs)
);
}
);
width = 533;
},
{
anchors = (
{
name = Anchor_1;
pos = (261,0);
},
{
name = dagesh;
pos = (153,0);
}
);
layerId = m003;
shapes = (
{
closed = 1;
nodes = (
(121,-13,o),
(63,0,o),
(15,14,c),
(38,162,l),
(93,149,o),
(130,148,o),
(171,148,cs),
(261,148,o),
(300,177,o),
(300,291,cs),
(300,401,o),
(282,445,o),
(177,445,cs),
(121,445,o),
(81,438,o),
(37,430,c),
(16,575,l),
(53,584,o),
(117,596,o),
(190,596,cs),
(373,596,o),
(482,525,o),
(482,291,cs),
(482,57,o),
(374,-13,o),
(214,-13,cs)
);
}
);
width = 507;
},
{
anchors = (
{
name = Anchor_1;
pos = (261,0);
},
{
name = dagesh;
pos = (153,0);
}
);
associatedMasterId = m003;
layerId = "B9B19AB0-196D-413A-94FD-4514DA15790B";
name = "Jul 7, 23, 20:46";
shapes = (
{
closed = 1;
nodes = (
(121,-13,o),
(63,0,o),
(15,14,c),
(38,162,l),
(93,149,o),
(153,146,o),
(194,149,cs),
(270,155,o),
(300,188,o),
(300,291,cs),
(300,385,o),
(286,437,o),
(205,444,cs),
(143,449,o),
(81,438,o),
(37,430,c),
(16,575,l),
(53,584,o),
(131,600,o),
(214,595,cs),
(377,585,o),
(482,525,o),
(482,291,cs),
(482,57,o),
(374,-13,o),
(214,-13,cs)
);
}
);
width = 507;
},
{
anchors = (
{
name = Anchor_1;
pos = (261,0);
},
{
name = dagesh;
pos = (216,0);
}
);
associatedMasterId = m001;
layerId = "6F01744F-27A4-4A16-A14B-8DA56D9ACBE4";
name = "Jul 7, 23, 20:49";
shapes = (
{
closed = 1;
nodes = (
(342,-6,o),
(468,38,o),
(468,290,c),
(468,552,o),
(334,585,o),
(244,593,c),
(177,599,o),
(101,586,o),
(59,572,c),
(73,533,l),
(120,547,o),
(184,558,o),
(244,553,c),
(311,546,o),
(419,529,o),
(419,289,c),
(419,67,o),
(319,37,o),
(252,31,c),
(189,25,o),
(121,41,o),
(71,57,c),
(55,17,l),
(95,-1,o),
(168,-18,o),
(241,-13,c)
);
}
);
visible = 1;
width = 533;
}
);
unicode = 1499;
},
{
color = 5;
glyphname = "lamed-hebr";
lastChange = "2023-07-08 03:55:03 +0000";
layers = (
{
anchors = (
{
name = Anchor_1;
pos = (261,0);
},
{
name = dagesh;
pos = (201,90);
},
{
name = holam;
pos = (-33,0);
}
);
layerId = m001;
shapes = (
{
closed = 1;
nodes = (
(168,17,l),
(443,550,l),
(60,550,l),
(60,725,l),
(111,725,l),
(111,590,l),
(496,590,l),
(495,553,l),
(211,-8,l)
);
}
);
width = 556;
},
{
anchors = (
{
name = Anchor_1;
pos = (261,0);
},
{
name = dagesh;
pos = (118,57);
},
{
name = holam;
pos = (-33,0);
}
);
layerId = m003;
shapes = (
{
closed = 1;
nodes = (
(59,49,l),
(275,447,l),
(20,447,l),
(20,725,l),
(202,725,l),
(202,590,l),
(486,590,l),
(485,447,l),
(231,-12,l)
);
}
);
width = 506;
}
);
unicode = 1500;
},
{
color = 5;
glyphname = "finalmem-hebr";
lastChange = "2023-07-08 03:55:49 +0000";
layers = (
{
anchors = (
{
name = Anchor_1;
pos = (312,0);
},
{
name = dagesh;
pos = (303,0);
}
);
layerId = m001;
shapes = (
{
closed = 1;
nodes = (
(464,553,l),
(134,553,l),
(134,37,l),
(464,37,l)
);
},
{
closed = 1;
nodes = (
(85,0,l),
(85,590,l),
(513,590,l),
(513,0,l)
);
}
);
width = 603;
},
{
anchors = (
{
name = Anchor_1;
pos = (312,0);
},
{
name = dagesh;
pos = (319,3);
}
);
layerId = m003;
shapes = (
{
closed = 1;
nodes = (
(402,447,l),
(232,447,l),
(232,143,l),
(402,143,l)
);
},
{
closed = 1;
nodes = (
(50,0,l),
(50,590,l),
(584,590,l),
(584,0,l)
);
}
);
width = 634;
}
);
unicode = 1501;
},
{
color = 5;
glyphname = "mem-hebr";
lastChange = "2023-07-08 04:26:46 +0000";
layers = (
{
anchors = (
{
name = Anchor_1;
pos = (350,0);
},
{
name = dagesh;
pos = (386,0);
}
);
layerId = m001;
shapes = (
{
closed = 1;
nodes = (
(327,-9,o),
(294,-1,o),
(264,13,c),
(280,54,l),
(313,42,o),
(340,37,o),
(372,37,cs),
(506,37,o),
(523,161,o),
(523,289,cs),
(523,551,l),
(236,551,o),
(197,221,o),
(111,-11,c),
(64,4,l),
(163,289,o),
(212,590,o),
(522,590,cs),
(570,590,l),
(570,258,ls),
(570,64,o),
(494,-9,o),
(363,-9,cs)
);
},
{
closed = 1;
nodes = (
(55,579,l),
(101,598,l),
(233,413,l),
(215,355,l)
);
}
);
width = 654;
},
{
anchors = (
{
name = Anchor_1;
pos = (350,0);
},
{
name = dagesh;
pos = (374,-12);
}
);
layerId = m003;
shapes = (
{
closed = 1;
nodes = (
(365,-13,o),
(323,-7,o),
(294,4,c),
(327,153,l),
(348,149,o),
(366,147,o),
(381,147,cs),
(440,147,o),
(454,176,o),
(454,289,cs),
(454,445,l),
(296,445,o),
(238,127,o),
(203,-17,c),
(27,14,l),
(69,263,o),
(202,590,o),
(470,590,c),
(632,590,l),
(632,259,ls),
(632,73,o),
(542,-13,o),
(410,-13,cs)
);
},
{
closed = 1;
nodes = (
(9,557,l),
(163,614,l),
(258,470,l),
(190,267,l)
);
}
);
width = 676;
},
{
anchors = (
{
name = Anchor_1;
pos = (350,0);
},
{
name = dagesh;
pos = (374,-12);
}
);
associatedMasterId = m003;
layerId = "FCC064F0-9D35-4292-8296-D63F7946555B";
name = "Jul 7, 23, 20:55";
shapes = (
{
closed = 1;
nodes = (
(235,115,o),
(263,225,o),
(301,308,c),
(347,408,o),
(399,445,o),
(445,445,c),
(454,445,l),
(454,289,l),
(454,251,o),
(454,220,o),
(449,198,c),
(441,163,o),
(423,147,o),
(381,147,c),
(366,147,o),
(348,149,o),
(327,153,c),
(294,4,l),
(323,-7,o),
(365,-13,o),
(410,-13,cs),
(542,-13,o),
(636,73,o),
(636,259,c),
(636,366,l),
(636,441,o),
(632,525,o),
(632,590,c),
(470,590,l),
(320,590,o),
(232,494,o),
(185,425,c),
(107,309,o),
(52,162,o),
(27,14,c),
(203,-17,l)
);
},
{
closed = 1;
nodes = (
(9,557,l),
(163,614,l),
(258,470,l),
(190,267,l)
);
}
);
visible = 1;
width = 676;
},
{
anchors = (
{
name = Anchor_1;
pos = (350,0);
},
{
name = dagesh;
pos = (386,0);
}
);
associatedMasterId = m001;
layerId = "5C7ADC41-DE7C-456F-9A19-B7C73F6CF2DC";
name = "Jul 7, 23, 20:57";
shapes = (
{
closed = 1;
nodes = (
(327,-9,o),
(294,-1,o),
(264,13,c),
(280,54,l),
(313,42,o),
(340,37,o),
(372,37,cs),
(443,37,o),
(486,74,o),
(506,135,c),
(517,167,o),
(523,218,o),
(523,289,c),
(523,551,l),
(354,551,o),
(279,450,o),
(240,352,c),
(197,248,o),
(163,145,o),
(111,-11,c),
(64,4,l),
(118,158,o),
(165,305,o),
(215,405,c),
(266,505,o),
(362,590,o),
(522,590,c),
(570,590,l),
(572,533,o),
(572,469,o),
(572,403,c),
(572,258,l),
(572,64,o),
(494,-9,o),
(363,-9,cs)
);
},
{
closed = 1;
nodes = (
(55,579,l),
(101,598,l),
(233,413,l),
(215,355,l)
);
}
);
visible = 1;
width = 654;
}
);
unicode = 1502;
},
{
color = 5;
glyphname = "finalnun-hebr";
lastChange = "2023-07-08 04:27:19 +0000";
layers = (
{
anchors = (
{
name = Anchor_1;
pos = (111,375);
},
{
name = dagesh;
pos = (117,0);
}
);
layerId = m001;
shapes = (
{
closed = 1;
nodes = (
(195,-198,l),
(195,551,l),
(60,551,l),
(70,590,l),
(244,590,l),
(244,-179,l)
);
}
);
width = 334;
},
{
anchors = (
{
name = Anchor_1;
pos = (60,360);
},
{
name = dagesh;
pos = (48,-48);
}
);
layerId = m003;
shapes = (
{
closed = 1;
nodes = (
(123,-208,l),
(123,447,l),
(20,447,l),
(40,590,l),
(305,590,l),
(305,-172,l)
);
}
);
width = 355;
}
);
unicode = 1503;
},
{
color = 5;
glyphname = "nun-hebr";
lastChange = "2023-07-08 04:32:58 +0000";
layers = (
{
anchors = (
{
name = Anchor_1;
pos = (220,0);
},
{
name = dagesh;
pos = (160,0);
}
);
layerId = m001;
shapes = (
{
closed = 1;
nodes = (
(60,0,l),
(60,39,l),
(284,39,l),
(284,399,ls),
(284,505,o),
(257,553,o),
(171,553,cs),
(145,553,o),
(117,548,o),
(87,539,c),
(77,575,l),
(106,587,o),
(137,593,o),
(171,593,cs),
(275,593,o),
(333,536,o),
(333,420,cs),
(333,0,l)
);
}
);
width = 418;
},
{
anchors = (
{
name = Anchor_1;
pos = (220,0);
},
{
name = dagesh;
pos = (99,0);
}
);
layerId = m003;
shapes = (
{
closed = 1;
nodes = (
(25,0,l),
(25,143,l),
(185,143,l),
(185,368,ls),
(185,421,o),
(160,441,o),
(118,441,cs),
(95,441,o),
(72,437,o),
(47,429,c),
(20,572,l),
(65,586,o),
(115,593,o),
(161,593,cs),
(302,593,o),
(363,520,o),
(363,400,cs),
(363,0,l)
);
}
);
width = 408;
},
{
anchors = (
{
name = Anchor_1;
pos = (220,0);
},
{
name = dagesh;
pos = (99,0);
}
);
associatedMasterId = m003;
layerId = "86EF9B81-A823-460D-8655-50440CDB7AEC";
name = "Jul 7, 23, 21:27";
shapes = (
{
closed = 1;
nodes = (
(25,0,l),
(25,143,l),
(185,143,l),
(185,368,l),
(182,421,o),
(160,441,o),
(118,441,cs),
(95,441,o),
(72,437,o),
(47,429,c),
(20,572,l),
(65,586,o),
(115,594,o),
(161,593,c),
(302,590,o),
(363,520,o),
(363,400,c),
(363,0,l)
);
}
);
visible = 1;
width = 408;
}
);
unicode = 1504;
},
{
color = 5;
glyphname = "samekh-hebr";
lastChange = "2023-07-08 04:32:58 +0000";
layers = (
{
anchors = (
{
name = Anchor_1;
pos = (327,0);
},
{
name = dagesh;
pos = (309,0);
}
);
layerId = m001;
shapes = (
{
closed = 1;
nodes = (
(416,25,o),
(505,95,o),
(505,290,cs),
(505,499,o),
(425,553,o),
(255,553,cs),
(216,553,o),
(184,551,o),
(134,544,c),
(134,266,ls),
(134,89,o),
(220,31,o),
(316,28,cs)
);
},
{
closed = 1;
nodes = (
(117,-10,o),
(85,154,o),
(85,284,cs),
(85,581,l),
(130,587,o),
(191,596,o),
(258,596,cs),
(479,596,o),
(554,514,o),
(554,290,cs),
(554,102,o),
(479,-16,o),
(312,-13,cs)
);
}
);
width = 617;
},
{
anchors = (
{
name = Anchor_1;
pos = (327,0);
},
{
name = dagesh;
pos = (316,15);
}
);
layerId = m003;
shapes = (
{
closed = 1;
nodes = (
(379,150,o),
(408,175,o),
(408,300,cs),
(408,401,o),
(384,442,o),
(295,442,cs),
(272,442,o),
(250,442,o),
(227,442,c),
(227,275,ls),
(227,163,o),
(275,150,o),
(314,150,cs)
);
},
{
closed = 1;
nodes = (
(53,-11,o),
(45,216,o),
(45,290,cs),
(45,574,l),
(111,586,o),
(183,595,o),
(298,595,cs),
(534,595,o),
(588,494,o),
(588,300,cs),
(588,80,o),
(478,-11,o),
(318,-11,cs)
);
}
);
width = 618;
},
{
anchors = (
{
name = Anchor_1;
pos = (327,0);
},
{
name = dagesh;
pos = (309,0);
}
);
associatedMasterId = m001;
layerId = "5B57FAD4-E8A3-4E57-AC2F-11387F7BFB7C";
name = "Jul 7, 23, 21:30";
shapes = (
{
closed = 1;
nodes = (
(416,25,o),
(505,95,o),
(505,290,c),
(505,510,o),
(405,544,o),
(316,550,c),
(255,555,o),
(184,551,o),
(134,544,c),
(134,266,ls),
(134,89,o),
(220,31,o),
(316,28,c)
);
},
{
closed = 1;
nodes = (
(117,-10,o),
(85,154,o),
(85,284,cs),
(85,581,l),
(130,587,o),
(207,600,o),
(310,593,c),
(469,583,o),
(554,514,o),
(554,290,c),
(554,102,o),
(479,-16,o),
(312,-13,c)
);
}
);
visible = 1;
width = 617;
},
{
anchors = (
{
name = Anchor_1;
pos = (327,0);
},
{
name = dagesh;
pos = (316,15);
}
);
associatedMasterId = m003;
layerId = "A70D5772-E391-4D18-BB65-CC06130CFBE0";
name = "Jul 7, 23, 21:30";
shapes = (
{
closed = 1;
nodes = (
(379,150,o),
(408,175,o),
(408,300,cs),
(408,401,o),
(384,442,o),
(295,442,cs),
(227,442,l),
(227,275,ls),
(227,163,o),
(275,150,o),
(314,150,cs)
);
},
{
closed = 1;
nodes = (
(53,-11,o),
(45,216,o),
(45,290,cs),
(45,574,l),
(111,586,o),
(183,595,o),
(298,595,cs),
(534,595,o),
(588,494,o),
(588,300,cs),
(588,80,o),
(478,-11,o),
(318,-11,cs)
);
}
);
width = 618;
}
);
unicode = 1505;
},
{
color = 5;
glyphname = "ayin-hebr";
lastChange = "2023-07-08 04:36:09 +0000";
layers = (
{
anchors = (
{
name = Anchor_1;
pos = (303,0);
},
{
name = dagesh;
pos = (321,0);
}
);
layerId = m001;
shapes = (
{
closed = 1;
nodes = (
(178,-13,o),
(100,0,o),
(50,16,c),
(63,57,l),
(125,40,o),
(184,28,o),
(247,28,cs),
(389,28,o),
(452,86,o),
(452,289,cs),
(452,590,l),
(501,590,l),
(501,290,ls),
(501,142,o),
(468,-13,o),
(247,-13,cs)
);
},
{
closed = 1;
nodes = (
(225,18,l),
(78,585,l),
(126,597,l),
(270,26,l)
);
}
);
width = 586;
},
{
anchors = (
{
name = Anchor_1;
pos = (303,0);
},
{
name = dagesh;
pos = (326,69);
}
);
layerId = m003;
shapes = (
{
closed = 1;
nodes = (
(138,-13,o),
(69,-4,o),
(10,13,c),
(31,169,l),
(88,155,o),
(142,148,o),
(201,148,cs),
(351,148,o),
(385,208,o),
(385,340,cs),
(385,590,l),
(567,590,l),
(567,323,ls),
(567,80,o),
(426,-13,o),
(233,-13,cs)
);
},
{
closed = 1;
nodes = (
(182,61,l),
(29,576,l),
(208,602,l),
(343,62,l)
);
}
);
width = 612;
},
{
anchors = (
{
name = Anchor_1;
pos = (303,0);
},
{
name = dagesh;
pos = (326,69);
}
);
associatedMasterId = m003;
layerId = "AC97674A-D23B-43F7-BF31-7CDCFC8C7AD0";
name = "Jul 7, 23, 21:33";
shapes = (
{
closed = 1;
nodes = (
(426,-12,o),
(567,80,o),
(567,323,c),
(567,590,l),
(385,590,l),
(385,340,l),
(385,208,o),
(351,148,o),
(201,148,c),
(142,148,o),
(88,155,o),
(31,169,c),
(10,13,l),
(69,-4,o),
(138,-13,o),
(233,-13,c)
);
},
{
closed = 1;
nodes = (
(29,576,l),
(208,602,l),
(343,62,l),
(182,61,l)
);
}
);
width = 612;
},
{
anchors = (
{
name = Anchor_1;
pos = (303,0);
},
{
name = dagesh;
pos = (321,0);
}
);
associatedMasterId = m001;
layerId = "82858D8C-3377-4B37-AC1E-F98FDE2A0A49";
name = "Jul 7, 23, 21:33";
shapes = (
{
closed = 1;
nodes = (
(468,-12,o),
(501,142,o),
(501,290,c),
(501,590,l),
(452,590,l),
(452,289,l),
(452,86,o),
(389,28,o),
(247,28,c),
(184,28,o),
(125,40,o),
(63,57,c),
(50,16,l),
(100,0,o),
(178,-13,o),
(247,-13,c)
);
},
{
closed = 1;
nodes = (
(78,585,l),
(126,597,l),
(270,26,l),
(225,18,l)
);
}
);
width = 586;
}
);
unicode = 1506;
},
{
color = 5;
glyphname = "finalpe-hebr";
lastChange = "2023-07-08 04:37:13 +0000";
layers = (
{
anchors = (
{
name = Anchor_1;
pos = (336,336);
},
{
name = dagesh;
pos = (315,0);
}
);
layerId = m001;
shapes = (
{
closed = 1;
nodes = (
(461,-198,l),
(461,320,ls),
(461,470,o),
(407,545,o),
(298,551,cs),
(221,556,o),
(146,550,o),
(124,548,c),
(115,364,ls),
(113,316,o),
(132,283,o),
(214,226,c),
(192,191,l),
(102,239,o),
(62,290,o),
(65,352,cs),
(75,581,l),
(130,589,o),
(183,595,o),
(244,595,cs),
(411,595,o),
(510,551,o),
(510,316,cs),
(510,-179,l)
);
}
);
width = 595;
},
{
anchors = (
{
name = Anchor_1;
pos = (312,336);
},
{
name = dagesh;
pos = (311,-66);
}
);
layerId = m003;
shapes = (
{
closed = 1;
nodes = (
(378,-208,l),
(378,334,ls),
(378,406,o),
(355,444,o),
(295,443,cs),
(262,442,o),
(234,443,o),
(220,443,c),
(220,405,ls),
(220,357,o),
(226,322,o),
(272,280,c),
(174,174,l),
(83,230,o),
(38,286,o),
(42,368,cs),
(52,581,l),
(118,590,o),
(202,598,o),
(288,595,cs),
(451,589,o),
(560,525,o),
(560,322,cs),
(560,-172,l)
);
}
);
width = 605;
}
);
unicode = 1507;
},
{
color = 5;
glyphname = "pe-hebr";
lastChange = "2023-07-08 04:40:00 +0000";
layers = (
{
anchors = (
{
name = Anchor_1;
pos = (314,0);
},
{
name = dagesh;
pos = (320,0);
}
);
layerId = m001;
shapes = (
{
closed = 1;
nodes = (
(179,-13,o),
(115,-1,o),
(65,23,c),
(84,64,l),
(140,40,o),
(199,29,o),
(261,29,cs),
(421,29,o),
(469,131,o),
(469,318,cs),
(469,488,o),
(412,554,o),
(248,554,cs),
(211,554,o),
(190,553,o),
(133,548,c),
(123,364,ls),
(121,320,o),
(140,284,o),
(203,237,c),
(181,202,l),
(108,240,o),
(70,293,o),
(73,352,cs),
(83,581,l),
(140,590,o),
(197,595,o),
(253,595,cs),
(413,595,o),
(518,551,o),
(518,316,cs),
(518,87,o),
(445,-13,o),
(252,-13,cs)
);
}
);
width = 581;
},
{
anchors = (
{
name = Anchor_1;
pos = (314,0);
},
{
name = dagesh;
pos = (288,-57);
}
);
layerId = m003;
shapes = (
{
closed = 1;
nodes = (
(144,-13,o),
(64,6,o),
(30,22,c),
(51,170,l),
(116,152,o),
(158,143,o),
(217,143,cs),
(345,143,o),
(370,198,o),
(370,307,cs),
(370,415,o),
(340,448,o),
(278,448,cs),
(258,448,o),
(237,448,o),
(213,447,c),
(211,412,ls),
(209,372,o),
(217,342,o),
(251,293,c),
(160,195,l),
(64,255,o),
(23,305,o),
(33,414,cs),
(48,575,l),
(108,590,o),
(185,597,o),
(279,597,cs),
(452,597,o),
(552,517,o),
(552,291,cs),
(552,98,o),
(465,-13,o),
(242,-13,cs)
);
}
);
width = 582;
},
{
anchors = (
{
name = Anchor_1;
pos = (314,0);
},
{
name = dagesh;
pos = (320,0);
}
);
associatedMasterId = m001;
layerId = "5D725D3B-CEC9-46F3-A17F-01C479F80369";
name = "Jul 7, 23, 21:37";
shapes = (
{
closed = 1;
nodes = (
(445,-13,o),
(518,87,o),
(518,316,c),
(518,551,o),
(413,595,o),
(253,595,c),
(197,595,o),
(140,590,o),
(83,581,c),
(73,352,l),
(73,293,o),
(108,240,o),
(181,202,c),
(203,237,l),
(140,284,o),
(123,320,o),
(123,364,c),
(133,548,l),
(190,554,o),
(251,555,o),
(296,552,c),
(410,545,o),
(469,477,o),
(469,318,c),
(469,131,o),
(421,29,o),
(261,29,c),
(199,29,o),
(140,40,o),
(84,64,c),
(65,23,l),
(115,-1,o),
(179,-13,o),
(252,-13,c)
);
}
);
visible = 1;
width = 581;
},
{
anchors = (
{
name = Anchor_1;
pos = (314,0);
},
{
name = dagesh;
pos = (288,-57);
}
);
associatedMasterId = m003;
layerId = "5C70D3C6-15EF-48D3-84CE-FB29936C9546";
name = "Jul 7, 23, 21:37";
shapes = (
{
closed = 1;
nodes = (
(465,-13,o),
(552,98,o),
(552,291,c),
(552,517,o),
(452,595,o),
(279,597,c),
(185,597,o),
(108,590,o),
(48,575,c),
(33,414,l),
(24,305,o),
(64,255,o),
(160,195,c),
(251,293,l),
(217,342,o),
(211,372,o),
(211,412,c),
(213,447,l),
(237,448,o),
(258,448,o),
(278,448,c),
(340,448,o),
(370,415,o),
(370,307,c),
(370,198,o),
(345,138,o),
(217,143,c),
(154,146,o),
(116,152,o),
(51,170,c),
(30,22,l),
(64,6,o),
(144,-13,o),
(242,-13,c)
);
}
);
width = 582;
}
);
unicode = 1508;
},
{
color = 5;
glyphname = "finaltsadi-hebr";
lastChange = "2023-07-08 04:42:29 +0000";
layers = (
{
anchors = (
{
name = Anchor_1;
pos = (175,252);
},
{
name = dagesh;
pos = (295,153);
}
);
layerId = m001;
shapes = (
{
closed = 1;
nodes = (
(441,-211,l),
(50,582,l),
(94,602,l),
(484,-187,l)
);
},
{
closed = 1;
nodes = (
(271,188,l),
(488,604,l),
(527,577,l),
(302,154,l)
);
}
);
width = 565;
},
{
anchors = (
{
name = Anchor_1;
pos = (170,252);
},
{
name = dagesh;
pos = (281,231);
}
);
layerId = m003;
shapes = (
{
closed = 1;
nodes = (
(417,-229,l),
(0,557,l),
(158,610,l),
(561,-147,l)
);
},
{
closed = 1;
nodes = (
(238,366,l),
(462,621,l),
(581,509,l),
(350,233,l)
);
}
);
width = 589;
},
{
anchors = (
{
name = Anchor_1;
pos = (175,252);
},
{
name = dagesh;
pos = (295,153);
}
);
associatedMasterId = m001;
layerId = "C1ABFB15-D822-4B92-B824-BCF1C87565EE";
name = "Jul 7, 23, 21:40";
shapes = (
{
closed = 1;
nodes = (
(441,-211,l),
(484,-187,l),
(94,602,l),
(50,582,l)
);
},
{
closed = 1;
nodes = (
(527,577,l),
(488,604,l),
(271,188,l),
(302,154,l)
);
}
);
width = 565;
},
{
anchors = (
{
name = Anchor_1;
pos = (170,252);
},
{
name = dagesh;
pos = (281,231);
}
);
associatedMasterId = m003;
layerId = "53FD6DC7-7870-4EA6-814A-6BF8D085E75B";
name = "Jul 7, 23, 21:40";
shapes = (
{
closed = 1;
nodes = (
(417,-229,l),
(561,-147,l),
(158,610,l),
(0,557,l)
);
},
{
closed = 1;
nodes = (
(581,509,l),
(462,621,l),
(238,366,l),
(350,233,l)
);
}
);
width = 589;
}
);
unicode = 1509;
},
{
color = 5;
glyphname = "tsadi-hebr";
lastChange = "2023-07-08 04:42:29 +0000";
layers = (
{
anchors = (
{
name = Anchor_1;
pos = (300,0);
},
{
name = dagesh;
pos = (189,-99);
}
);
layerId = m001;
shapes = (
{
closed = 1;
nodes = (
(75,0,l),
(75,39,l),
(444,39,l),
(45,586,l),
(91,603,l),
(498,39,l),
(485,0,l)
);
},
{
closed = 1;
nodes = (
(306,257,l),
(488,604,l),
(526,579,l),
(336,219,l)
);
}
);
width = 570;
},
{
anchors = (
{
name = Anchor_1;
pos = (300,0);
},
{
name = dagesh;
pos = (162,-75);
}
);
layerId = m003;
shapes = (
{
closed = 1;
nodes = (
(45,0,l),
(45,143,l),
(310,143,l),
(5,557,l),
(158,619,l),
(520,143,l),
(495,0,l)
);
},
{
closed = 1;
nodes = (
(271,372,l),
(467,618,l),
(581,503,l),
(378,259,l)
);
}
);
width = 585;
},
{
anchors = (
{
name = Anchor_1;
pos = (300,0);
},
{
name = dagesh;
pos = (189,-99);
}
);
associatedMasterId = m001;
layerId = "74B13810-4BCA-46A1-920F-04FD0F2714F2";
name = "Jul 7, 23, 21:41";
shapes = (
{
closed = 1;
nodes = (
(91,603,l),
(45,586,l),
(444,39,l),
(75,39,l),
(75,0,l),
(485,0,l),
(498,39,l)
);
},
{
closed = 1;
nodes = (
(526,579,l),
(488,604,l),
(306,257,l),
(336,219,l)
);
}
);
width = 570;
},
{
anchors = (
{
name = Anchor_1;
pos = (300,0);
},
{
name = dagesh;
pos = (162,-75);
}
);
associatedMasterId = m003;
layerId = "6CADA5F7-5B48-4F6A-8CA9-53B5A96ADDE3";
name = "Jul 7, 23, 21:41";
shapes = (
{
closed = 1;
nodes = (
(158,619,l),
(5,557,l),
(310,143,l),
(45,143,l),
(45,0,l),
(495,0,l),
(520,143,l)
);
},
{
closed = 1;
nodes = (
(581,503,l),
(467,618,l),
(271,372,l),
(378,259,l)
);
}
);
width = 585;
}
);
unicode = 1510;
},
{
color = 5;
glyphname = "qof-hebr";
lastChange = "2023-07-08 04:43:07 +0000";
layers = (
{
anchors = (
{
name = Anchor_1;
pos = (356,0);
},
{
name = dagesh;
pos = (281,0);
}
);
layerId = m001;
shapes = (
{
closed = 1;
nodes = (
(317,6,l),
(490,551,l),
(65,551,l),
(74,590,l),
(529,590,l),
(534,540,l),
(364,-12,l)
);
},
{
closed = 1;
nodes = (
(117,-198,l),
(117,372,l),
(166,397,l),
(166,-179,l)
);
}
);
width = 599;
},
{
anchors = (
{
name = Anchor_1;
pos = (380,0);
},
{
name = dagesh;
pos = (295,39);
}
);
layerId = m003;
shapes = (
{
closed = 1;
nodes = (
(264,71,l),
(396,447,l),
(25,447,l),
(43,590,l),
(582,590,l),
(581,447,l),
(427,-12,l)
);
},
{
closed = 1;
nodes = (
(53,-208,l),
(53,342,l),
(235,367,l),
(235,-172,l)
);
}
);
width = 607;
}
);
unicode = 1511;
},
{
color = 5;
glyphname = "resh-hebr";
lastChange = "2023-07-08 04:48:22 +0000";
layers = (
{
anchors = (
{
name = Anchor_1;
pos = (399,0);
},
{
name = dagesh;
pos = (225,0);
}
);
layerId = m001;
shapes = (
{
closed = 1;
nodes = (
(411,0,l),
(411,329,ls),
(411,456,o),
(374,553,o),
(231,553,cs),
(200,553,o),
(139,550,o),
(79,533,c),
(65,572,l),
(113,585,o),
(169,593,o),
(223,593,cs),
(380,593,o),
(460,522,o),
(460,338,cs),
(460,0,l)
);
}
);
width = 540;
},
{
anchors = (
{
name = Anchor_1;
pos = (399,0);
},
{
name = dagesh;
pos = (192,-21);
}
);
layerId = m003;
shapes = (
{
closed = 1;
nodes = (
(310,0,l),
(310,319,ls),
(310,406,o),
(289,444,o),
(203,444,cs),
(159,444,o),
(107,437,o),
(49,428,c),
(26,572,l),
(67,582,o),
(136,595,o),
(226,595,cs),
(427,595,o),
(492,497,o),
(492,391,cs),
(492,0,l)
);
}
);
width = 532;
},
{
anchors = (
{
name = Anchor_1;
pos = (399,0);
},
{
name = dagesh;
pos = (225,0);
}
);
associatedMasterId = m001;
layerId = "C57230F9-DDB4-4E28-9C35-2D4E0CC7E97B";
name = "Jul 7, 23, 21:44";
shapes = (
{
closed = 1;
nodes = (
(411,0,l),
(411,329,ls),
(411,456,o),
(374,548,o),
(231,553,cs),
(200,554,o),
(139,550,o),
(79,533,c),
(65,572,l),
(113,585,o),
(169,593,o),
(223,593,cs),
(380,593,o),
(460,522,o),
(460,338,cs),
(460,0,l)
);
}
);
width = 540;
}
);
unicode = 1512;
},
{
color = 5;
glyphname = "shin-hebr";
lastChange = "2023-07-08 04:48:22 +0000";
layers = (
{
anchors = (
{
name = Anchor_1;
pos = (363,0);
},
{
name = dagesh;
pos = (477,-24);
},
{
name = "shin - liga";
pos = (600,0);
},
{
name = sin;
pos = (108,0);
}
);
layerId = m001;
shapes = (
{
closed = 1;
nodes = (
(332,183,l),
(332,590,l),
(381,590,l),
(381,199,l)
);
},
{
closed = 1;
nodes = (
(164,-13,o),
(85,96,o),
(85,275,cs),
(85,590,l),
(134,590,l),
(134,270,ls),
(134,113,o),
(208,30,o),
(356,30,cs),
(504,30,o),
(578,113,o),
(578,270,cs),
(578,590,l),
(627,590,l),
(627,275,ls),
(627,96,o),
(548,-13,o),
(356,-13,cs)
);
}
);
width = 712;
},
{
anchors = (
{
name = Anchor_1;
pos = (396,0);
},
{
name = dagesh;
pos = (459,-69);
},
{
name = "shin - liga";
pos = (651,0);
},
{
name = sin;
pos = (135,0);
}
);
layerId = m003;
shapes = (
{
closed = 1;
nodes = (
(312,250,l),
(312,590,l),
(486,590,l),
(486,290,l)
);
},
{
closed = 1;
nodes = (
(166,-13,o),
(45,99,o),
(45,290,cs),
(45,590,l),
(223,590,l),
(223,300,ls),
(223,207,o),
(261,148,o),
(395,148,cs),
(529,148,o),
(565,217,o),
(565,300,cs),
(565,590,l),
(744,590,l),
(744,290,ls),
(744,99,o),
(625,-13,o),
(395,-13,cs)
);
}
);
width = 789;
}
);
unicode = 1513;
},
{
color = 5;
glyphname = "tav-hebr";
lastChange = "2023-07-08 04:50:23 +0000";
layers = (
{
anchors = (
{
name = Anchor_1;
pos = (362,0);
},
{
name = dagesh;
pos = (365,0);
}
);
layerId = m001;
shapes = (
{
closed = 1;
nodes = (
(514,0,l),
(514,551,l),
(232,551,l),
(232,189,ls),
(232,67,o),
(185,-7,o),
(85,-7,cs),
(58,-7,o),
(42,-5,o),
(28,-1,c),
(32,45,l),
(49,41,o),
(64,39,o),
(78,39,cs),
(144,39,o),
(183,77,o),
(183,177,cs),
(183,551,l),
(63,551,l),
(73,590,l),
(563,590,l),
(563,0,l)
);
}
);
width = 653;
},
{
anchors = (
{
name = Anchor_1;
pos = (362,0);
},
{
name = dagesh;
pos = (363,0);
}
);
layerId = m003;
shapes = (
{
closed = 1;
nodes = (
(438,0,l),
(438,447,l),
(292,447,l),
(292,209,ls),
(292,65,o),
(239,-7,o),
(107,-7,cs),
(65,-7,o),
(35,-4,o),
(7,2,c),
(12,152,l),
(32,149,o),
(46,148,o),
(56,148,cs),
(100,148,o),
(113,167,o),
(113,199,cs),
(113,447,l),
(24,447,l),
(44,590,l),
(620,590,l),
(620,0,l)
);
}
);
width = 670;
},
{
anchors = (
{
name = Anchor_1;
pos = (362,0);
},
{
name = dagesh;
pos = (365,0);
}
);
associatedMasterId = m001;
layerId = "1B23A24A-9DBE-4BA7-9C77-824193B9CF60";
name = "Jul 7, 23, 21:48";
shapes = (
{
closed = 1;
nodes = (
(514,0,l),
(514,551,l),
(232,551,l),
(232,189,l),
(232,67,o),
(185,-6,o),
(85,-7,c),
(58,-7,o),
(42,-5,o),
(28,-1,c),
(32,45,l),
(49,41,o),
(64,39,o),
(78,39,c),
(144,39,o),
(183,77,o),
(183,177,c),
(183,551,l),
(63,551,l),
(73,590,l),
(563,590,l),
(563,0,l)
);
}
);
visible = 1;
width = 653;
},
{
anchors = (
{
name = Anchor_1;
pos = (362,0);
},
{
name = dagesh;
pos = (363,0);
}
);
associatedMasterId = m003;
layerId = "FBE1451E-4DB2-45A8-BB70-2D5574675A45";
name = "Jul 7, 23, 21:48";
shapes = (
{
closed = 1;
nodes = (
(65,-8,o),
(35,-4,o),
(7,2,c),
(12,152,l),
(32,149,o),
(47,148,o),
(56,148,c),
(100,148,o),
(111,167,o),
(113,199,c),
(113,447,l),
(24,447,l),
(44,590,l),
(620,590,l),
(620,0,l),
(438,0,l),
(438,447,l),
(292,447,l),
(292,209,l),
(292,65,o),
(239,-5,o),
(107,-7,c)
);
}
);
width = 670;
}
);
unicode = 1514;
},
{
color = 5;
glyphname = "aleflamed-hebr";
lastChange = "2023-07-08 04:56:16 +0000";
layers = (
{
anchors = (
{
name = Anchor_1_ligComponent_0;
pos = (297,0);
},
{
name = dagesh_ligComponent_0;
pos = (339,249);
}
);
layerId = m001;
shapes = (
{
closed = 1;
nodes = (
(332,257,l),
(514,604,l),
(550,575,l),
(363,219,l)
);
},
{
closed = 1;
nodes = (
(493,0,l),
(26,579,l),
(27,591,l),
(180,741,l),
(214,707,l),
(82,581,l),
(555,0,l)
);
}
);
width = 587;
},
{
anchors = (
{
name = Anchor_1_ligComponent_0;
pos = (297,0);
},
{
name = dagesh_ligComponent_0;
pos = (339,249);
}
);
layerId = m003;
shapes = (
{
closed = 1;
nodes = (
(312,371,l),
(508,615,l),
(622,503,l),
(419,259,l)
);
},
{
closed = 1;
nodes = (
(415,0,l),
(14,579,l),
(15,591,l),
(182,754,l),
(300,654,l),
(219,576,l),
(620,0,l)
);
}
);
width = 637;
}
);
unicode = 64335;
},
{
glyphname = zero;
layers = (
{
layerId = m001;
shapes = (
{
closed = 1;
nodes = (
(40,201,o),
(103,65,o),
(215,-13,o),
(286,-13,q),
(357,-13,o),
(467,65,o),
(530,202,o),
(530,289,q),
(530,373,o),
(467,504,o),
(357,579,o),
(286,579,q),
(215,579,o),
(103,504,o),
(40,373,o),
(40,288,q)
);
},
{
closed = 1;
nodes = (
(91,363,o),
(141,474,o),
(230,538,o),
(286,538,q),
(342,538,o),
(429,473,o),
(479,359,o),
(479,286,q),
(479,211,o),
(429,94,o),
(342,28,o),
(286,28,q),
(230,28,o),
(141,96,o),
(91,215,o),
(91,291,q)
);
}
);
width = 570;
},
{
layerId = m003;
shapes = (
{
closed = 1;
nodes = (
(20,198,o),
(102,63,o),
(246,-14,o),
(338,-14,q),
(431,-14,o),
(576,64,o),
(658,199,o),
(658,286,q),
(658,371,o),
(576,503,o),
(432,579,o),
(339,579,q),
(246,579,o),
(102,503,o),
(20,370,o),
(20,284,q)
);
},
{
closed = 1;
nodes = (
(208,329,o),
(242,394,o),
(301,431,o),
(338,431,q),
(377,431,o),
(436,393,o),
(470,326,o),
(470,283,q),
(470,240,o),
(436,173,o),
(377,134,o),
(339,134,q),
(301,134,o),
(242,173,o),
(208,242,o),
(208,287,q)
);
}
);
width = 678;
}
);
unicode = 48;
},
{
glyphname = one;
layers = (
{
layerId = m001;
shapes = (
{
closed = 1;
nodes = (
(220,566,l),
(185,566,l),
(10,481,l),
(28,445,l),
(171,508,l),
(171,0,l),
(220,0,l)
);
}
);
width = 300;
},
{
layerId = m003;
shapes = (
{
closed = 1;
nodes = (
(379,566,l),
(258,566,l),
(10,459,l),
(81,313,l),
(197,363,l),
(197,0,l),
(379,0,l)
);
}
);
width = 439;
}
);
unicode = 49;
},
{
glyphname = two;
lastChange = "2023-07-08 04:53:37 +0000";
layers = (
{
layerId = m001;
shapes = (
{
closed = 1;
nodes = (
(25,0,l),
(25,50,l),
(250,238,ls),
(308,287,o),
(367,335,o),
(367,417,cs),
(367,487.667,o),
(303.667,539,o),
(217,539,cs),
(146.763,539,o),
(96.819,513.455,o),
(60,493,c),
(38,527,l),
(75.333,549.667,o),
(133.667,579,o),
(219,579,cs),
(334.252,579,o),
(419,511.676,o),
(419,418,cs),
(419,342.697,o),
(367.377,273.902,o),
(270,196,cs),
(75,39,l),
(442,39,l),
(450,0,l)
);
}
);
width = 470;
},
{
layerId = m003;
shapes = (
{
closed = 1;
nodes = (
(25,0,l),
(25,106,l),
(214,270,ls),
(259.922,309.66,o),
(308,344.734,o),
(308,382,cs),
(308,415.333,o),
(276,430,o),
(225,430,cs),
(165,430,o),
(100.372,400.873,o),
(61,379,c),
(38,527,l),
(75.333,549.667,o),
(142,579,o),
(231,579,cs),
(359,579,o),
(470,538,o),
(470,403,cs),
(470,309,o),
(396,239,o),
(324,178,cs),
(283,143,l),
(465,143,l),
(477,0,l)
);
}
);
width = 497;
}
);
unicode = 50;
},
{
glyphname = three;
layers = (
{
layerId = m001;
shapes = (
{
closed = 1;
nodes = (
(145,579,o),
(50,545,o),
(11,520,q),
(42,489,l),
(66,505,o),
(148,538,o),
(202,538,q),
(244,538,o),
(306,502,o),
(339,446,o),
(339,416,q),
(339,359,o),
(244,286,o),
(160,286,q),
(126,286,l),
(136,247,l),
(154,247,l),
(258,247,o),
(351,168,o),
(351,104,q),
(351,64,o),
(305,1,o),
(233,-35,o),
(193,-35,q),
(138,-35,o),
(68,-11,o),
(33,10,q),
(0,-24,l),
(34,-43,o),
(134,-76,o),
(190,-76,q),
(255,-76,o),
(350,-28,o),
(402,55,o),
(402,106,q),
(402,147,o),
(370,214,o),
(314,260,o),
(276,268,q),
(308,278,o),
(359,321,o),
(390,381,o),
(390,417,q),
(390,459,o),
(349,533,o),
(267,579,o),
(205,579,q)
);
}
);
width = 447;
},
{
layerId = m003;
shapes = (
{
closed = 1;
nodes = (
(196,579,o),
(74,547,o),
(21,505,q),
(108,382,l),
(143,406,o),
(209,431,o),
(237,431,q),
(263,431,o),
(296,419,o),
(312,399,o),
(312,386,q),
(312,361,o),
(261,330,o),
(218,330,q),
(136,330,l),
(151,187,l),
(254,187,l),
(284,187,o),
(323,155,o),
(323,126,q),
(323,109,o),
(302,83,o),
(267,69,o),
(244,69,q),
(209,69,o),
(140,92,o),
(97,119,q),
(0,-2,l),
(57,-39,o),
(188,-78,o),
(243,-78,q),
(324,-78,o),
(444,-27,o),
(511,63,o),
(511,121,q),
(511,151,o),
(488,209,o),
(449,258,o),
(425,272,q),
(443,282,o),
(478,325,o),
(500,378,o),
(500,402,q),
(500,455,o),
(439,534,o),
(329,579,o),
(255,579,q)
);
}
);
width = 536;
}
);
unicode = 51;
},
{
glyphname = four;
layers = (
{
layerId = m001;
shapes = (
{
closed = 1;
nodes = (
(375,113,l),
(375,571,l),
(347,571,l),
(10,125,l),
(19,74,l),
(326,74,l),
(326,-69,l),
(375,-69,l),
(375,74,l),
(484,74,l),
(492,113,l)
);
},
{
closed = 1;
nodes = (
(326,113,l),
(60,113,l),
(326,470,l)
);
}
);
width = 512;
},
{
layerId = m003;
shapes = (
{
closed = 1;
nodes = (
(491,197,l),
(491,571,l),
(355,571,l),
(10,187,l),
(31,54,l),
(309,54,l),
(309,-63,l),
(491,-63,l),
(491,54,l),
(582,54,l),
(591,197,l)
);
},
{
closed = 1;
nodes = (
(309,197,l),
(224,197,l),
(309,297,l)
);
}
);
width = 611;
}
);
unicode = 52;
},
{
glyphname = five;
layers = (
{
layerId = m001;
shapes = (
{
closed = 1;
nodes = (
(136,252,o),
(207,289,o),
(247,289,q),
(316,289,o),
(399,202,o),
(399,130,q),
(399,58,o),
(308,-35,o),
(224,-35,q),
(178,-35,o),
(99,-11,o),
(64,10,q),
(40,-26,l),
(64,-38,o),
(119,-61,o),
(184,-76,o),
(220,-76,q),
(296,-76,o),
(398,-19,o),
(451,75,o),
(451,130,q),
(451,184,o),
(408,275,o),
(317,330,o),
(243,330,q),
(218,330,o),
(156,309,o),
(129,289,q),
(140,527,l),
(409,527,l),
(412,566,l),
(95,566,l),
(80,230,l),
(116,230,l)
);
}
);
width = 491;
},
{
layerId = m003;
shapes = (
{
closed = 1;
nodes = (
(230,195,o),
(262,223,o),
(285,223,q),
(313,223,o),
(349,186,o),
(349,154,q),
(349,118,o),
(299,76,o),
(262,76,q),
(225,76,o),
(156,101,o),
(111,126,q),
(20,-3,l),
(54,-26,o),
(137,-61,o),
(223,-79,o),
(259,-79,q),
(338,-79,o),
(451,-19,o),
(513,86,o),
(513,154,q),
(513,213,o),
(465,313,o),
(373,374,o),
(305,374,q),
(284,374,o),
(255,365,o),
(243,358,q),
(243,423,l),
(466,423,l),
(484,566,l),
(90,566,l),
(71,180,l),
(224,180,l)
);
}
);
width = 533;
}
);
unicode = 53;
},
{
glyphname = six;
layers = (
{
layerId = m001;
shapes = (
{
closed = 1;
nodes = (
(82,248,l),
(97,272,o),
(149,317,o),
(217,346,o),
(253,346,q),
(300,346,o),
(366,303,o),
(401,230,o),
(401,185,q),
(401,147,o),
(366,75,o),
(300,28,o),
(252,28,q),
(199,28,o),
(125,85,o),
(87,193,o),
(87,270,q),
(87,328,o),
(125,426,o),
(189,505,o),
(269,561,o),
(354,592,o),
(393,594,q),
(375,634,l),
(327,628,o),
(231,590,o),
(145,527,o),
(78,439,o),
(40,328,o),
(40,260,q),
(40,172,o),
(94,50,o),
(191,-13,o),
(254,-13,q),
(313,-13,o),
(402,45,o),
(452,138,o),
(452,190,q),
(452,241,o),
(406,331,o),
(317,387,o),
(253,387,q),
(202,387,o),
(129,351,o),
(80,304,o),
(65,285,q)
);
}
);
width = 492;
},
{
layerId = m003;
shapes = (
{
closed = 1;
nodes = (
(139,181,l),
(163,207,o),
(213,252,o),
(267,280,o),
(295,280,q),
(319,280,o),
(356,262,o),
(377,230,o),
(377,209,q),
(377,188,o),
(357,154,o),
(325,134,o),
(307,134,q),
(277,134,o),
(234,167,o),
(211,224,o),
(211,261,q),
(211,318,o),
(251,390,o),
(316,432,o),
(392,453,o),
(468,463,o),
(498,467,q),
(480,634,l),
(432,631,o),
(310,607,o),
(187,558,o),
(83,473,o),
(20,344,o),
(20,252,q),
(20,175,o),
(94,55,o),
(226,-13,o),
(312,-13,q),
(391,-13,o),
(504,41,o),
(565,135,o),
(565,195,q),
(565,255,o),
(502,346,o),
(391,398,o),
(319,398,q),
(284,398,o),
(211,369,o),
(143,322,o),
(114,294,q)
);
}
);
width = 585;
}
);
unicode = 54;
},
{
glyphname = seven;
layers = (
{
layerId = m001;
shapes = (
{
closed = 1;
nodes = (
(409,537,l),
(387,566,l),
(10,566,l),
(18,527,l),
(360,527,l),
(123,-49,l),
(169,-69,l)
);
}
);
width = 429;
},
{
layerId = m003;
shapes = (
{
closed = 1;
nodes = (
(498,494,l),
(464,566,l),
(10,566,l),
(27,423,l),
(299,423,l),
(108,-30,l),
(289,-77,l)
);
}
);
width = 518;
}
);
unicode = 55;
},
{
glyphname = eight;
layers = (
{
layerId = m001;
shapes = (
{
closed = 1;
nodes = (
(187,643,o),
(106,597,o),
(68,523,o),
(68,481,q),
(68,431,o),
(131,357,o),
(177,339,q),
(139,331,o),
(77,277,o),
(40,205,o),
(40,169,q),
(40,119,o),
(86,36,o),
(180,-13,o),
(251,-13,q),
(322,-13,o),
(415,38,o),
(461,121,o),
(461,169,q),
(461,211,o),
(423,282,o),
(361,331,o),
(325,339,q),
(352,351,o),
(401,392,o),
(433,447,o),
(433,481,q),
(433,521,o),
(396,595,o),
(316,643,o),
(251,643,q)
);
},
{
closed = 1;
nodes = (
(318,602,o),
(384,530,o),
(384,484,q),
(384,458,o),
(352,405,o),
(293,366,o),
(251,360,q),
(187,369,o),
(118,442,o),
(118,484,q),
(118,514,o),
(146,568,o),
(204,602,o),
(248,602,q)
);
},
{
closed = 1;
nodes = (
(330,306,o),
(410,219,o),
(410,162,q),
(410,124,o),
(367,63,o),
(295,28,o),
(251,28,q),
(206,28,o),
(133,63,o),
(91,124,o),
(91,162,q),
(91,219,o),
(171,306,o),
(251,316,q)
);
}
);
width = 501;
},
{
layerId = m003;
shapes = (
{
closed = 1;
nodes = (
(220,643,o),
(108,597,o),
(42,514,o),
(42,457,q),
(42,423,o),
(79,362,o),
(103,341,q),
(81,325,o),
(43,279,o),
(20,226,o),
(20,197,q),
(20,131,o),
(86,37,o),
(207,-13,o),
(287,-13,q),
(371,-13,o),
(489,40,o),
(552,135,o),
(552,197,q),
(552,226,o),
(530,279,o),
(493,324,o),
(470,340,q),
(487,354,o),
(514,391,o),
(530,435,o),
(530,457,q),
(530,514,o),
(464,597,o),
(353,643,o),
(287,643,q)
);
},
{
closed = 1;
nodes = (
(315,494,o),
(341,461,o),
(341,447,q),
(341,435,o),
(329,410,o),
(305,392,o),
(287,389,q),
(259,393,o),
(231,428,o),
(231,446,q),
(231,456,o),
(243,478,o),
(267,494,o),
(285,494,q)
);
},
{
closed = 1;
nodes = (
(324,276,o),
(365,227,o),
(365,205,q),
(365,187,o),
(342,155,o),
(306,135,o),
(286,135,q),
(266,135,o),
(230,155,o),
(208,187,o),
(208,205,q),
(208,227,o),
(247,276,o),
(287,283,q)
);
}
);
width = 572;
}
);
unicode = 56;
},
{
glyphname = nine;
layers = (
{
layerId = m001;
shapes = (
{
closed = 1;
nodes = (
(410,317,l),
(396,294,o),
(343,248,o),
(276,219,o),
(239,219,q),
(193,219,o),
(126,262,o),
(91,336,o),
(91,380,q),
(91,418,o),
(126,490,o),
(193,537,o),
(240,537,q),
(294,537,o),
(367,480,o),
(405,372,o),
(405,295,q),
(405,237,o),
(367,139,o),
(303,60,o),
(223,4,o),
(138,-27,o),
(99,-29,q),
(117,-69,l),
(165,-63,o),
(261,-25,o),
(347,38,o),
(414,126,o),
(452,238,o),
(452,305,q),
(452,394,o),
(398,515,o),
(302,578,o),
(238,578,q),
(180,578,o),
(90,520,o),
(40,427,o),
(40,375,q),
(40,325,o),
(86,234,o),
(175,178,o),
(239,178,q),
(290,178,o),
(363,214,o),
(413,262,o),
(427,280,q)
);
}
);
width = 492;
},
{
layerId = m003;
shapes = (
{
closed = 1;
nodes = (
(446,385,l),
(423,360,o),
(372,314,o),
(318,286,o),
(290,286,q),
(267,286,o),
(229,304,o),
(208,337,o),
(208,357,q),
(208,379,o),
(228,412,o),
(260,432,o),
(278,432,q),
(308,432,o),
(351,399,o),
(374,342,o),
(374,305,q),
(374,248,o),
(334,176,o),
(270,134,o),
(193,113,o),
(117,104,o),
(87,99,q),
(105,-68,l),
(153,-65,o),
(275,-41,o),
(398,8,o),
(502,93,o),
(565,223,o),
(565,314,q),
(565,391,o),
(491,511,o),
(360,579,o),
(273,579,q),
(195,579,o),
(81,525,o),
(20,432,o),
(20,371,q),
(20,311,o),
(83,220,o),
(194,168,o),
(266,168,q),
(302,168,o),
(374,197,o),
(442,244,o),
(471,272,q)
);
}
);
width = 585;
}
);
unicode = 57;
},
{
glyphname = zero.zero;
layers = (
{
layerId = m001;
shapes = (
{
closed = 1;
nodes = (
(40,201,o),
(103,65,o),
(215,-13,o),
(286,-13,q),
(357,-13,o),
(467,65,o),
(530,202,o),
(530,289,q),
(530,373,o),
(467,504,o),
(357,579,o),
(286,579,q),
(215,579,o),
(103,504,o),
(40,373,o),
(40,288,q)
);
},
{
closed = 1;
nodes = (
(91,363,o),
(141,474,o),
(230,538,o),
(286,538,q),
(342,538,o),
(429,473,o),
(479,359,o),
(479,286,q),
(479,211,o),
(429,94,o),
(342,28,o),
(286,28,q),
(230,28,o),
(141,96,o),
(91,215,o),
(91,291,q)
);
},
{
closed = 1;
nodes = (
(455,453,l),
(426,485,l),
(110,114,l),
(143,88,l)
);
}
);
width = 570;
},
{
layerId = m003;
shapes = (
{
closed = 1;
nodes = (
(20,198,o),
(102,63,o),
(246,-14,o),
(338,-14,q),
(431,-14,o),
(576,64,o),
(658,199,o),
(658,286,q),
(658,371,o),
(576,503,o),
(432,579,o),
(339,579,q),
(246,579,o),
(102,503,o),
(20,370,o),
(20,284,q)
);
},
{
closed = 1;
nodes = (
(208,329,o),
(242,394,o),
(301,431,o),
(338,431,q),
(377,431,o),
(436,393,o),
(470,326,o),
(470,283,q),
(470,240,o),
(436,173,o),
(377,134,o),
(339,134,q),
(301,134,o),
(242,173,o),
(208,242,o),
(208,287,q)
);
},
{
closed = 1;
nodes = (
(561,413,l),
(486,468,l),
(126,170,l),
(190,101,l)
);
}
);
width = 678;
}
);
},
{
glyphname = fraction;
layers = (
{
layerId = m001;
shapes = (
{
closed = 1;
nodes = (
(-88,-134,l),
(-38,-134,l),
(463,700,l),
(418,700,l)
);
}
);
width = 375;
},
{
layerId = m003;
shapes = (
{
closed = 1;
nodes = (
(-129,-134,l),
(38,-134,l),
(635,700,l),
(467,700,l)
);
}
);
width = 506;
}
);
unicode = 8260;
},
{
glyphname = onesuperior;
layers = (
{
layerId = m001;
shapes = (
{
closed = 1;
nodes = (
(160,765,l),
(136,765,l),
(10,700,l),
(33,675,l),
(117,716,l),
(117,336,l),
(160,336,l)
);
}
);
width = 240;
},
{
layerId = m003;
shapes = (
{
closed = 1;
nodes = (
(276,764,l),
(185,764,l),
(10,683,l),
(45,566,l),
(139,608,l),
(139,337,l),
(276,337,l)
);
}
);
width = 336;
}
);
unicode = 185;
},
{
glyphname = twosuperior;
layers = (
{
layerId = m001;
shapes = (
{
closed = 1;
nodes = (
(148,771,o),
(95,760,o),
(46,742,o),
(29,733,q),
(46,702,l),
(59,708,o),
(102,724,o),
(150,736,o),
(170,736,q),
(204,736,o),
(245,707,o),
(263,666,o),
(263,647,q),
(263,625,o),
(231,560,o),
(181,515,q),
(25,373,l),
(25,336,l),
(322,336,l),
(316,369,l),
(76,369,l),
(207,485,l),
(261,534,o),
(308,611,o),
(308,653,q),
(308,681,o),
(279,735,o),
(219,771,o),
(172,771,q)
);
}
);
width = 342;
},
{
layerId = m003;
shapes = (
{
closed = 1;
nodes = (
(145,771,o),
(86,755,o),
(37,730,o),
(15,716,q),
(73,626,l),
(92,636,o),
(124,651,o),
(157,660,o),
(174,660,q),
(192,660,o),
(215,652,o),
(226,639,o),
(226,630,q),
(225,614,o),
(197,569,o),
(163,540,q),
(35,427,l),
(35,337,l),
(364,337,l),
(352,444,l),
(229,444,l),
(252,465,l),
(303,511,o),
(347,594,o),
(347,643,q),
(347,674,o),
(314,732,o),
(241,771,o),
(180,771,q)
);
}
);
width = 384;
}
);
unicode = 178;
},
{
glyphname = threesuperior;
layers = (
{
layerId = m001;
shapes = (
{
closed = 1;
nodes = (
(109,771,o),
(39,746,o),
(9,727,q),
(31,697,l),
(50,709,o),
(111,735,o),
(154,735,q),
(200,735,o),
(254,684,o),
(254,650,q),
(254,622,o),
(228,577,o),
(175,552,o),
(133,552,q),
(96,552,l),
(103,519,l),
(128,519,l),
(206,519,o),
(264,464,o),
(264,415,q),
(264,385,o),
(231,341,o),
(177,317,o),
(147,317,q),
(104,317,o),
(50,334,o),
(24,350,q),
(0,318,l),
(26,303,o),
(101,278,o),
(143,278,q),
(196,278,o),
(270,315,o),
(309,378,o),
(309,416,q),
(309,448,o),
(288,498,o),
(249,532,o),
(220,538,q),
(243,546,o),
(279,578,o),
(300,624,o),
(300,651,q),
(300,700,o),
(230,771,o),
(155,771,q)
);
}
);
width = 354;
},
{
layerId = m003;
shapes = (
{
closed = 1;
nodes = (
(147,771,o),
(56,747,o),
(16,716,q),
(81,623,l),
(107,641,o),
(156,660,o),
(177,660,q),
(206,660,o),
(234,640,o),
(234,626,q),
(234,614,o),
(217,595,o),
(185,585,o),
(163,585,q),
(102,585,l),
(113,477,l),
(190,477,l),
(212,477,o),
(242,454,o),
(242,432,q),
(242,420,o),
(226,400,o),
(200,389,o),
(183,389,q),
(157,389,o),
(105,407,o),
(73,427,q),
(0,336,l),
(43,308,o),
(141,279,o),
(182,279,q),
(242,279,o),
(333,317,o),
(383,384,o),
(383,428,q),
(383,450,o),
(365,494,o),
(336,531,o),
(318,541,q),
(332,548,o),
(357,580,o),
(374,621,o),
(374,638,q),
(374,698,o),
(274,771,o),
(191,771,q)
);
}
);
width = 408;
}
);
unicode = 179;
},
{
glyphname = foursuperior;
layers = (
{
layerId = m001;
shapes = (
{
closed = 1;
nodes = (
(291,415,l),
(291,767,l),
(263,767,l),
(10,415,l),
(14,381,l),
(247,381,l),
(247,283,l),
(291,283,l),
(291,381,l),
(372,381,l),
(376,415,l)
);
},
{
closed = 1;
nodes = (
(247,415,l),
(57,415,l),
(247,684,l)
);
}
);
width = 401;
},
{
layerId = m003;
shapes = (
{
closed = 1;
nodes = (
(383,483,l),
(383,773,l),
(278,773,l),
(10,475,l),
(26,372,l),
(242,372,l),
(242,281,l),
(383,281,l),
(383,372,l),
(454,372,l),
(461,483,l)
);
},
{
closed = 1;
nodes = (
(242,483,l),
(176,483,l),
(242,560,l)
);
}
);
width = 476;
}
);
unicode = 8308;
},
{
glyphname = .notdef;
layers = (
{
layerId = m001;
shapes = (
{
closed = 1;
nodes = (
(100,0,l),
(528,0,l),
(528,696,l),
(100,696,l)
);
},
{
closed = 1;
nodes = (
(478,39,l),
(149,39,l),
(149,657,l),
(478,657,l)
);
}
);
width = 628;
},
{
layerId = m003;
shapes = (
{
closed = 1;
nodes = (
(94,0,l),
(602,0,l),
(602,696,l),
(94,696,l)
);
},
{
closed = 1;
nodes = (
(440,122,l),
(255,122,l),
(255,573,l),
(440,573,l)
);
}
);
width = 697;
}
);
},
{
glyphname = "punctuationpaseq-hebr";
layers = (
{
layerId = m001;
shapes = (
{
closed = 1;
nodes = (
(100,0,l),
(149,-4,l),
(149,706,l),
(100,710,l)
);
}
);
width = 249;
},
{
layerId = m003;
shapes = (
{
closed = 1;
nodes = (
(100,0,l),
(149,-4,l),
(149,706,l),
(100,710,l)
);
}
);
width = 249;
}
);
unicode = 1472;
},
{
glyphname = "punctuationsofpasuq-hebr";
layers = (
{
layerId = m001;
shapes = (
{
closed = 1;
nodes = (
(84,415,l),
(84,506,l),
(159,506,l),
(159,415,l)
);
},
{
closed = 1;
nodes = (
(84,1,l),
(84,92,l),
(159,92,l),
(159,1,l)
);
}
);
width = 254;
},
{
layerId = m003;
shapes = (
{
closed = 1;
nodes = (
(84,415,l),
(84,506,l),
(159,506,l),
(159,415,l)
);
},
{
closed = 1;
nodes = (
(84,1,l),
(84,92,l),
(159,92,l),
(159,1,l)
);
}
);
width = 254;
}
);
unicode = 1475;
},
{
glyphname = "punctuationgeresh-hebr";
layers = (
{
layerId = m001;
shapes = (
{
closed = 1;
nodes = (
(66,485,l),
(66,518,l),
(99,537,o),
(120,583,o),
(120,621,q),
(120,635,l),
(65,635,l),
(65,710,l),
(147,710,l),
(147,627,l),
(147,573,o),
(114,512,o),
(70,485,q)
);
}
);
width = 212;
},
{
layerId = m003;
shapes = (
{
closed = 1;
nodes = (
(51,409,l),
(51,480,l),
(90,489,o),
(117,530,o),
(117,555,q),
(117,573,l),
(40,573,l),
(40,727,l),
(195,727,l),
(195,604,l),
(195,520,o),
(128,429,o),
(60,409,q)
);
}
);
width = 235;
}
);
unicode = 1523;
},
{
glyphname = "punctuationgershayim-hebr";
layers = (
{
layerId = m001;
shapes = (
{
closed = 1;
nodes = (
(204,485,l),
(204,518,l),
(237,537,o),
(258,583,o),
(258,621,q),
(258,635,l),
(203,635,l),
(203,710,l),
(285,710,l),
(285,627,l),
(285,573,o),
(252,512,o),
(208,485,q)
);
},
{
closed = 1;
nodes = (
(66,485,l),
(66,518,l),
(99,537,o),
(120,583,o),
(120,621,q),
(120,635,l),
(65,635,l),
(65,710,l),
(147,710,l),
(147,627,l),
(147,573,o),
(114,512,o),
(70,485,q)
);
}
);
width = 350;
},
{
layerId = m003;
shapes = (
{
closed = 1;
nodes = (
(247,409,l),
(247,480,l),
(286,489,o),
(312,530,o),
(312,555,q),
(312,573,l),
(236,573,l),
(236,727,l),
(391,727,l),
(391,594,l),
(391,520,o),
(323,429,o),
(255,409,q)
);
},
{
closed = 1;
nodes = (
(51,409,l),
(51,480,l),
(90,489,o),
(117,530,o),
(117,555,q),
(117,573,l),
(40,573,l),
(40,727,l),
(195,727,l),
(195,604,l),
(195,520,o),
(128,429,o),
(60,409,q)
);
}
);
width = 431;
}
);
unicode = 1524;
},
{
glyphname = "maqaf-hebr";
layers = (
{
anchors = (
{
name = Anchor_1;
}
);
layerId = m001;
shapes = (
{
closed = 1;
nodes = (
(29,546,l),
(37,589,l),
(239,589,l),
(229,546,l)
);
}
);
width = 262;
},
{
anchors = (
{
name = Anchor_1;
}
);
layerId = m003;
shapes = (
{
closed = 1;
nodes = (
(29,446,l),
(47,589,l),
(239,589,l),
(219,446,l)
);
}
);
width = 262;
}
);
unicode = 1470;
},
{
glyphname = period;
layers = (
{
layerId = m001;
shapes = (
{
closed = 1;
nodes = (
(84,0,o),
(107,22,o),
(107,38,q),
(107,54,o),
(84,76,o),
(68,76,q),
(51,76,o),
(30,54,o),
(30,38,q),
(30,22,o),
(51,0,o),
(68,0,q)
);
}
);
width = 137;
},
{
layerId = m003;
shapes = (
{
closed = 1;
nodes = (
(160,0,o),
(213,52,o),
(213,91,q),
(213,130,o),
(160,183,o),
(122,183,q),
(83,183,o),
(30,130,o),
(30,91,q),
(30,52,o),
(83,0,o),
(122,0,q)
);
}
);
width = 243;
}
);
unicode = 46;
},
{
glyphname = comma;
layers = (
{
layerId = m001;
shapes = (
{
closed = 1;
nodes = (
(71,76,o),
(54,65,o),
(45,47,o),
(45,37,q),
(45,30,o),
(53,13,o),
(69,-1,o),
(81,-1,q),
(80,-28,o),
(46,-69,o),
(20,-83,q),
(36,-108,l),
(64,-94,o),
(102,-52,o),
(122,2,o),
(122,33,q),
(122,48,o),
(101,76,o),
(83,76,q)
);
}
);
width = 152;
},
{
layerId = m003;
shapes = (
{
closed = 1;
nodes = (
(95,147,o),
(53,120,o),
(29,78,o),
(29,55,q),
(29,39,o),
(40,9,o),
(60,-15,o),
(72,-23,q),
(68,-36,o),
(34,-66,o),
(20,-74,q),
(56,-154,l),
(100,-137,o),
(171,-76,o),
(213,1,o),
(213,40,q),
(213,88,o),
(159,147,o),
(121,147,q)
);
}
);
width = 243;
}
);
unicode = 44;
},
{
glyphname = colon;
layers = (
{
layerId = m001;
shapes = (
{
closed = 1;
nodes = (
(84,365,o),
(107,387,o),
(107,403,q),
(107,419,o),
(84,441,o),
(68,441,q),
(51,441,o),
(30,419,o),
(30,403,q),
(30,387,o),
(51,365,o),
(68,365,q)
);
},
{
closed = 1;
nodes = (
(84,46,o),
(107,68,o),
(107,84,q),
(107,100,o),
(84,122,o),
(68,122,q),
(51,122,o),
(30,100,o),
(30,84,q),
(30,68,o),
(51,46,o),
(68,46,q)
);
}
);
width = 137;
},
{
layerId = m003;
shapes = (
{
closed = 1;
nodes = (
(160,293,o),
(213,345,o),
(213,384,q),
(213,423,o),
(160,476,o),
(122,476,q),
(83,476,o),
(30,423,o),
(30,384,q),
(30,345,o),
(83,293,o),
(122,293,q)
);
},
{
closed = 1;
nodes = (
(160,0,o),
(213,52,o),
(213,91,q),
(213,130,o),
(160,183,o),
(122,183,q),
(83,183,o),
(30,130,o),
(30,91,q),
(30,52,o),
(83,0,o),
(122,0,q)
);
}
);
width = 243;
}
);
unicode = 58;
},
{
glyphname = semicolon;
layers = (
{
layerId = m001;
shapes = (
{
closed = 1;
nodes = (
(99,365,o),
(122,387,o),
(122,403,q),
(122,419,o),
(99,441,o),
(83,441,q),
(66,441,o),
(45,419,o),
(45,403,q),
(45,387,o),
(66,365,o),
(83,365,q)
);
},
{
closed = 1;
nodes = (
(71,122,o),
(54,111,o),
(45,93,o),
(45,83,q),
(45,77,o),
(53,59,o),
(69,45,o),
(81,45,q),
(80,18,o),
(46,-23,o),
(20,-37,q),
(36,-62,l),
(64,-48,o),
(102,-6,o),
(122,49,o),
(122,79,q),
(122,94,o),
(101,122,o),
(83,122,q)
);
}
);
width = 152;
},
{
layerId = m003;
shapes = (
{
closed = 1;
nodes = (
(161,293,o),
(214,345,o),
(214,384,q),
(214,423,o),
(161,476,o),
(123,476,q),
(84,476,o),
(31,423,o),
(31,384,q),
(31,345,o),
(84,293,o),
(123,293,q)
);
},
{
closed = 1;
nodes = (
(95,183,o),
(53,156,o),
(29,114,o),
(29,91,q),
(29,75,o),
(40,45,o),
(60,21,o),
(72,13,q),
(68,0,o),
(34,-30,o),
(20,-38,q),
(56,-118,l),
(100,-101,o),
(171,-40,o),
(213,37,o),
(213,76,q),
(213,124,o),
(159,183,o),
(121,183,q)
);
}
);
width = 244;
}
);
unicode = 59;
},
{
glyphname = ellipsis;
layers = (
{
layerId = m001;
shapes = (
{
closed = 1;
nodes = (
(83,0,o),
(103,20,o),
(103,36,q),
(103,52,o),
(83,72,o),
(68,72,q),
(52,72,o),
(30,52,o),
(30,36,q),
(30,20,o),
(52,0,o),
(68,0,q)
);
},
{
closed = 1;
nodes = (
(195,0,o),
(215,20,o),
(215,36,q),
(215,52,o),
(195,72,o),
(180,72,q),
(164,72,o),
(142,52,o),
(142,36,q),
(142,20,o),
(164,0,o),
(180,0,q)
);
},
{
closed = 1;
nodes = (
(307,0,o),
(327,20,o),
(327,36,q),
(327,52,o),
(307,72,o),
(292,72,q),
(276,72,o),
(254,52,o),
(254,36,q),
(254,20,o),
(276,0,o),
(292,0,q)
);
}
);
width = 357;
},
{
layerId = m003;
shapes = (
{
closed = 1;
nodes = (
(148,0,o),
(196,47,o),
(196,83,q),
(196,118,o),
(148,166,o),
(113,166,q),
(78,166,o),
(30,118,o),
(30,83,q),
(30,47,o),
(78,0,o),
(113,0,q)
);
},
{
closed = 1;
nodes = (
(345,0,o),
(393,47,o),
(393,83,q),
(393,118,o),
(345,166,o),
(310,166,q),
(275,166,o),
(227,118,o),
(227,83,q),
(227,47,o),
(275,0,o),
(310,0,q)
);
},
{
closed = 1;
nodes = (
(542,0,o),
(590,47,o),
(590,83,q),
(590,118,o),
(542,166,o),
(507,166,q),
(472,166,o),
(424,118,o),
(424,83,q),
(424,47,o),
(473,0,o),
(507,0,q)
);
}
);
width = 620;
}
);
unicode = 8230;
},
{
glyphname = exclam;
layers = (
{
layerId = m001;
shapes = (
{
closed = 1;
nodes = (
(99,164,l),
(108,702,l),
(54,702,l),
(54,185,l)
);
},
{
closed = 1;
nodes = (
(51,76,o),
(30,54,o),
(30,38,q),
(30,22,o),
(51,0,o),
(68,0,q),
(84,0,o),
(107,22,o),
(107,38,q),
(107,54,o),
(84,76,o),
(68,76,q)
);
}
);
width = 138;
},
{
layerId = m003;
shapes = (
{
closed = 1;
nodes = (
(193,208,l),
(213,714,l),
(31,714,l),
(51,248,l)
);
},
{
closed = 1;
nodes = (
(83,183,o),
(30,130,o),
(30,91,q),
(30,52,o),
(83,0,o),
(122,0,q),
(160,0,o),
(213,52,o),
(213,91,q),
(213,130,o),
(160,183,o),
(122,183,q)
);
}
);
width = 243;
}
);
unicode = 33;
},
{
glyphname = exclamdown;
layers = (
{
layerId = m001;
shapes = (
{
closed = 1;
nodes = (
(87,626,o),
(108,648,o),
(108,664,q),
(108,680,o),
(87,702,o),
(70,702,q),
(54,702,o),
(31,680,o),
(31,664,q),
(31,648,o),
(54,626,o),
(70,626,q)
);
},
{
closed = 1;
nodes = (
(39,538,l),
(30,0,l),
(84,0,l),
(84,517,l)
);
}
);
width = 138;
},
{
layerId = m003;
shapes = (
{
closed = 1;
nodes = (
(160,531,o),
(213,584,o),
(213,623,q),
(213,662,o),
(160,714,o),
(121,714,q),
(83,714,o),
(30,662,o),
(30,623,q),
(30,584,o),
(83,531,o),
(121,531,q)
);
},
{
closed = 1;
nodes = (
(50,506,l),
(30,0,l),
(212,0,l),
(192,466,l)
);
}
);
width = 243;
}
);
unicode = 161;
},
{
glyphname = question;
layers = (
{
layerId = m001;
shapes = (
{
closed = 1;
nodes = (
(127,702,o),
(36,664,o),
(10,641,q),
(18,600,l),
(57,628,o),
(130,661,o),
(184,661,q),
(241,661,o),
(309,597,o),
(309,537,q),
(309,480,o),
(217,388,o),
(139,363,q),
(146,158,l),
(179,137,l),
(189,332,l),
(245,357,o),
(322,424,o),
(362,500,o),
(362,538,q),
(362,586,o),
(324,660,o),
(246,702,o),
(186,702,q)
);
},
{
closed = 1;
nodes = (
(137,76,o),
(116,54,o),
(116,38,q),
(116,22,o),
(137,0,o),
(154,0,q),
(170,0,o),
(193,22,o),
(193,38,q),
(193,54,o),
(170,76,o),
(154,76,q)
);
}
);
width = 392;
},
{
layerId = m003;
shapes = (
{
closed = 1;
nodes = (
(157,701,o),
(61,678,o),
(10,649,q),
(33,500,l),
(93,534,o),
(173,553,o),
(198,553,q),
(220,553,o),
(249,531,o),
(249,512,q),
(249,485,o),
(164,423,o),
(98,402,q),
(105,243,l),
(248,204,l),
(260,319,l),
(324,342,o),
(401,399,o),
(437,469,o),
(437,509,q),
(437,567,o),
(377,653,o),
(271,701,o),
(201,701,q)
);
},
{
closed = 1;
nodes = (
(128,183,o),
(75,130,o),
(75,91,q),
(75,52,o),
(128,0,o),
(167,0,q),
(205,0,o),
(258,52,o),
(258,91,q),
(258,130,o),
(205,183,o),
(167,183,q)
);
}
);
width = 467;
}
);
unicode = 63;
},
{
glyphname = questiondown;
layers = (
{
layerId = m001;
shapes = (
{
closed = 1;
nodes = (
(255,546,o),
(276,568,o),
(276,584,q),
(276,600,o),
(255,622,o),
(238,622,q),
(222,622,o),
(199,600,o),
(199,584,q),
(199,568,o),
(222,546,o),
(238,546,q)
);
},
{
closed = 1;
nodes = (
(265,-80,o),
(356,-42,o),
(382,-19,q),
(374,22,l),
(335,-6,o),
(262,-39,o),
(208,-39,q),
(151,-39,o),
(83,25,o),
(83,85,q),
(83,142,o),
(175,234,o),
(253,259,q),
(246,464,l),
(213,485,l),
(203,290,l),
(148,266,o),
(70,198,o),
(30,122,o),
(30,84,q),
(30,36,o),
(68,-38,o),
(147,-80,o),
(206,-80,q)
);
}
);
width = 392;
},
{
layerId = m003;
shapes = (
{
closed = 1;
nodes = (
(339,481,o),
(392,534,o),
(392,573,q),
(392,612,o),
(339,664,o),
(300,664,q),
(262,664,o),
(209,612,o),
(209,573,q),
(209,534,o),
(262,481,o),
(300,481,q)
);
},
{
closed = 1;
nodes = (
(310,-37,o),
(406,-14,o),
(457,15,q),
(434,164,l),
(374,130,o),
(294,111,o),
(269,111,q),
(247,111,o),
(218,133,o),
(218,152,q),
(218,179,o),
(303,241,o),
(369,262,q),
(362,421,l),
(219,460,l),
(207,345,l),
(144,323,o),
(66,265,o),
(30,196,o),
(30,155,q),
(30,98,o),
(90,11,o),
(196,-37,o),
(266,-37,q)
);
}
);
width = 467;
}
);
unicode = 191;
},
{
glyphname = periodcentered;
layers = (
{
layerId = m001;
shapes = (
{
closed = 1;
nodes = (
(84,224,o),
(107,246,o),
(107,262,q),
(107,278,o),
(84,300,o),
(68,300,q),
(51,300,o),
(30,278,o),
(30,262,q),
(30,246,o),
(51,224,o),
(68,224,q)
);
}
);
width = 137;
},
{
layerId = m003;
shapes = (
{
closed = 1;
nodes = (
(160,172,o),
(213,224,o),
(213,263,q),
(213,302,o),
(160,355,o),
(122,355,q),
(83,355,o),
(30,302,o),
(30,263,q),
(30,224,o),
(83,172,o),
(122,172,q)
);
}
);
width = 243;
}
);
unicode = 183;
},
{
glyphname = bullet;
layers = (
{
layerId = m001;
shapes = (
{
closed = 1;
nodes = (
(109,265,o),
(136,282,o),
(153,310,o),
(153,326,q),
(153,344,o),
(136,372,o),
(109,388,o),
(92,388,q),
(75,388,o),
(46,372,o),
(30,344,o),
(30,326,q),
(30,310,o),
(46,282,o),
(75,265,o),
(92,265,q)
);
}
);
width = 183;
},
{
layerId = m003;
shapes = (
{
closed = 1;
nodes = (
(187,208,o),
(244,241,o),
(278,297,o),
(278,331,q),
(278,365,o),
(244,421,o),
(187,455,o),
(153,455,q),
(119,455,o),
(63,421,o),
(30,365,o),
(30,331,q),
(30,297,o),
(63,241,o),
(119,208,o),
(153,208,q)
);
}
);
width = 308;
}
);
unicode = 8226;
},
{
glyphname = asterisk;
layers = (
{
layerId = m001;
shapes = (
{
closed = 1;
nodes = (
(137,774,l),
(137,654,l),
(22,685,l),
(10,653,l),
(125,624,l),
(46,505,l),
(82,489,l),
(156,602,l),
(235,489,l),
(266,505,l),
(187,624,l),
(303,653,l),
(290,685,l),
(172,654,l),
(172,774,l)
);
}
);
width = 313;
},
{
layerId = m003;
shapes = (
{
closed = 1;
nodes = (
(141,782,l),
(141,686,l),
(44,714,l),
(10,585,l),
(104,568,l),
(32,477,l),
(149,403,l),
(212,496,l),
(275,403,l),
(392,477,l),
(320,568,l),
(414,585,l),
(380,714,l),
(285,686,l),
(285,782,l)
);
}
);
width = 424;
}
);
unicode = 42;
},
{
glyphname = numbersign;
layers = (
{
layerId = m001;
shapes = (
{
closed = 1;
nodes = (
(347,371,l),
(216,371,l),
(249,502,l),
(202,502,l),
(169,371,l),
(30,371,l),
(38,332,l),
(159,332,l),
(121,179,l),
(30,179,l),
(38,140,l),
(111,140,l),
(77,4,l),
(123,0,l),
(158,140,l),
(289,140,l),
(255,4,l),
(301,0,l),
(336,140,l),
(467,140,l),
(460,179,l),
(346,179,l),
(384,332,l),
(467,332,l),
(460,371,l),
(394,371,l),
(427,502,l),
(380,502,l)
);
},
{
closed = 1;
nodes = (
(299,179,l),
(168,179,l),
(206,332,l),
(337,332,l)
);
}
);
width = 497;
},
{
layerId = m003;
shapes = (
{
closed = 1;
nodes = (
(411,426,l),
(316,426,l),
(338,517,l),
(189,517,l),
(167,426,l),
(30,426,l),
(41,293,l),
(135,293,l),
(117,215,l),
(30,215,l),
(41,82,l),
(85,82,l),
(64,-10,l),
(211,-15,l),
(234,82,l),
(329,82,l),
(308,-10,l),
(455,-15,l),
(478,82,l),
(617,82,l),
(607,215,l),
(510,215,l),
(528,293,l),
(617,293,l),
(607,426,l),
(560,426,l),
(582,517,l),
(433,517,l)
);
},
{
closed = 1;
nodes = (
(361,215,l),
(266,215,l),
(284,293,l),
(379,293,l)
);
}
);
width = 647;
}
);
unicode = 35;
},
{
glyphname = slash;
layers = (
{
layerId = m001;
shapes = (
{
closed = 1;
nodes = (
(10,0,l),
(56,-4,l),
(365,706,l),
(318,710,l)
);
}
);
width = 375;
},
{
layerId = m003;
shapes = (
{
closed = 1;
nodes = (
(10,0,l),
(197,0,l),
(496,706,l),
(308,706,l)
);
}
);
width = 506;
}
);
unicode = 47;
},
{
glyphname = backslash;
layers = (
{
layerId = m001;
shapes = (
{
closed = 1;
nodes = (
(57,710,l),
(10,706,l),
(318,-4,l),
(365,0,l)
);
}
);
width = 375;
},
{
layerId = m003;
shapes = (
{
closed = 1;
nodes = (
(198,710,l),
(10,710,l),
(309,0,l),
(496,0,l)
);
}
);
width = 506;
}
);
unicode = 92;
},
{
glyphname = hyphenminus;
layers = (
{
layerId = m001;
shapes = (
{
closed = 1;
nodes = (
(30,292,l),
(38,253,l),
(281,253,l),
(273,292,l)
);
}
);
width = 311;
},
{
layerId = m003;
shapes = (
{
closed = 1;
nodes = (
(30,345,l),
(41,202,l),
(322,202,l),
(312,345,l)
);
}
);
width = 352;
}
);
unicode = 45;
},
{
glyphname = endash;
layers = (
{
layerId = m001;
shapes = (
{
closed = 1;
nodes = (
(30,293,l),
(38,254,l),
(402,254,l),
(394,293,l)
);
}
);
width = 432;
},
{
layerId = m003;
shapes = (
{
closed = 1;
nodes = (
(30,345,l),
(41,202,l),
(426,202,l),
(416,345,l)
);
}
);
width = 456;
}
);
unicode = 8211;
},
{
glyphname = emdash;
layers = (
{
layerId = m001;
shapes = (
{
closed = 1;
nodes = (
(30,293,l),
(38,254,l),
(494,254,l),
(486,293,l)
);
}
);
width = 524;
},
{
layerId = m003;
shapes = (
{
closed = 1;
nodes = (
(30,345,l),
(41,202,l),
(543,202,l),
(533,345,l)
);
}
);
width = 573;
}
);
unicode = 8212;
},
{
glyphname = underscore;
layers = (
{
layerId = m001;
shapes = (
{
closed = 1;
nodes = (
(30,39,l),
(38,0,l),
(399,0,l),
(391,39,l)
);
}
);
width = 429;
},
{
layerId = m003;
shapes = (
{
closed = 1;
nodes = (
(30,143,l),
(41,0,l),
(426,0,l),
(416,143,l)
);
}
);
width = 456;
}
);
unicode = 95;
},
{
glyphname = parenleft;
layers = (
{
layerId = m001;
shapes = (
{
closed = 1;
nodes = (
(187,4,o),
(148,87,o),
(118,188,o),
(101,285,o),
(101,321,q),
(101,357,o),
(118,452,o),
(148,550,o),
(187,633,o),
(209,657,q),
(169,675,l),
(127,622,o),
(75,497,o),
(50,373,o),
(50,320,q),
(50,267,o),
(75,142,o),
(127,17,o),
(169,-37,q),
(209,-19,l)
);
}
);
width = 239;
},
{
layerId = m003;
shapes = (
{
closed = 1;
nodes = (
(318,25,o),
(279,103,o),
(249,193,o),
(232,283,o),
(232,322,q),
(232,360,o),
(249,447,o),
(280,536,o),
(319,615,o),
(340,645,q),
(177,682,l),
(137,624,o),
(80,507,o),
(50,386,o),
(50,321,q),
(50,255,o),
(81,129,o),
(138,13,o),
(177,-39,q),
(339,-1,l)
);
}
);
width = 370;
}
);
unicode = 40;
},
{
glyphname = parenright;
layers = (
{
layerId = m001;
shapes = (
{
closed = 1;
nodes = (
(51,633,o),
(90,550,o),
(121,451,o),
(138,355,o),
(138,319,q),
(138,283,o),
(121,187,o),
(90,87,o),
(51,4,o),
(30,-19,q),
(70,-37,l),
(111,17,o),
(163,142,o),
(189,267,o),
(189,320,q),
(189,373,o),
(163,497,o),
(111,622,o),
(70,675,q),
(30,657,l)
);
}
);
width = 239;
},
{
layerId = m003;
shapes = (
{
closed = 1;
nodes = (
(52,618,o),
(91,540,o),
(121,450,o),
(138,360,o),
(138,321,q),
(138,284,o),
(121,196,o),
(90,107,o),
(51,28,o),
(30,-2,q),
(193,-39,l),
(234,19,o),
(290,136,o),
(320,258,o),
(320,322,q),
(320,388,o),
(289,514,o),
(233,630,o),
(193,682,q),
(31,644,l)
);
}
);
width = 370;
}
);
unicode = 41;
},
{
glyphname = braceleft;
layers = (
{
layerId = m001;
shapes = (
{
closed = 1;
nodes = (
(154,319,o),
(193,375,o),
(193,419,q),
(193,432,o),
(184,467,o),
(174,489,q),
(164,511,o),
(155,547,o),
(155,560,q),
(155,581,o),
(190,620,o),
(227,620,q),
(246,620,l),
(255,659,l),
(229,659,l),
(166,659,o),
(105,602,o),
(105,554,q),
(105,538,o),
(114,502,o),
(123,482,q),
(132,462,o),
(141,426,o),
(141,410,q),
(141,373,o),
(93,326,o),
(63,326,q),
(30,326,l),
(30,288,l),
(63,288,l),
(93,288,o),
(141,241,o),
(141,204,q),
(141,188,o),
(132,152,o),
(123,132,q),
(114,112,o),
(105,76,o),
(105,60,q),
(105,12,o),
(166,-45,o),
(229,-45,q),
(255,-45,l),
(246,-6,l),
(227,-6,l),
(190,-6,o),
(155,33,o),
(155,54,q),
(155,68,o),
(164,103,o),
(174,125,q),
(184,147,o),
(193,182,o),
(193,195,q),
(193,239,o),
(154,295,o),
(129,307,q)
);
}
);
width = 265;
},
{
layerId = m003;
shapes = (
{
closed = 1;
nodes = (
(262,317,o),
(286,343,o),
(286,372,q),
(286,395,o),
(275,420,o),
(268,430,q),
(262,441,o),
(251,463,o),
(251,482,q),
(251,496,o),
(267,517,o),
(289,517,q),
(326,517,l),
(339,659,l),
(226,659,l),
(152,659,o),
(84,590,o),
(84,533,q),
(84,517,o),
(92,487,o),
(98,473,q),
(105,455,o),
(117,423,o),
(117,411,q),
(117,394,o),
(91,373,o),
(75,373,q),
(30,373,l),
(30,247,l),
(75,247,l),
(91,247,o),
(117,226,o),
(117,209,q),
(117,196,o),
(106,168,o),
(100,151,q),
(94,136,o),
(84,104,o),
(84,87,q),
(84,30,o),
(152,-39,o),
(226,-39,q),
(339,-39,l),
(326,103,l),
(289,103,l),
(267,103,o),
(251,124,o),
(251,138,q),
(251,158,o),
(262,182,o),
(269,193,q),
(275,204,o),
(286,228,o),
(286,248,q),
(286,276,o),
(262,303,o),
(252,310,q)
);
}
);
width = 349;
}
);
unicode = 123;
},
{
glyphname = braceright;
layers = (
{
layerId = m001;
shapes = (
{
closed = 1;
nodes = (
(111,295,o),
(72,239,o),
(72,195,q),
(72,182,o),
(81,147,o),
(91,125,q),
(101,103,o),
(110,68,o),
(110,54,q),
(110,33,o),
(75,-6,o),
(38,-6,q),
(19,-6,l),
(10,-45,l),
(36,-45,l),
(99,-45,o),
(160,12,o),
(160,60,q),
(160,76,o),
(151,112,o),
(142,132,q),
(133,152,o),
(124,188,o),
(124,204,q),
(124,241,o),
(172,288,o),
(202,288,q),
(235,288,l),
(235,326,l),
(202,326,l),
(172,326,o),
(124,373,o),
(124,410,q),
(124,426,o),
(133,462,o),
(142,482,q),
(151,502,o),
(160,538,o),
(160,554,q),
(160,602,o),
(99,659,o),
(36,659,q),
(10,659,l),
(19,620,l),
(38,620,l),
(75,620,o),
(110,581,o),
(110,560,q),
(110,547,o),
(101,511,o),
(91,489,q),
(81,467,o),
(72,432,o),
(72,419,q),
(72,375,o),
(111,319,o),
(136,307,q)
);
}
);
width = 265;
},
{
layerId = m003;
shapes = (
{
closed = 1;
nodes = (
(87,303,o),
(63,277,o),
(63,248,q),
(63,228,o),
(73,204,o),
(80,194,q),
(87,184,o),
(98,159,o),
(98,138,q),
(98,124,o),
(82,103,o),
(60,103,q),
(23,103,l),
(10,-39,l),
(123,-39,l),
(197,-39,o),
(265,30,o),
(265,87,q),
(265,104,o),
(254,141,o),
(248,158,q),
(242,173,o),
(232,199,o),
(232,209,q),
(232,226,o),
(258,247,o),
(274,247,q),
(319,247,l),
(319,373,l),
(274,373,l),
(258,373,o),
(232,394,o),
(232,411,q),
(232,424,o),
(245,456,o),
(252,474,q),
(257,488,o),
(265,518,o),
(265,533,q),
(265,590,o),
(197,659,o),
(123,659,q),
(10,659,l),
(23,517,l),
(60,517,l),
(82,517,o),
(98,496,o),
(98,482,q),
(98,463,o),
(88,440,o),
(82,430,q),
(75,419,o),
(63,394,o),
(63,372,q),
(63,344,o),
(87,317,o),
(97,310,q)
);
}
);
width = 349;
}
);
unicode = 125;
},
{
glyphname = bracketleft;
layers = (
{
layerId = m001;
shapes = (
{
closed = 1;
nodes = (
(255,-88,l),
(247,-49,l),
(149,-49,l),
(149,657,l),
(247,657,l),
(255,696,l),
(100,696,l),
(100,-88,l)
);
}
);
width = 265;
},
{
layerId = m003;
shapes = (
{
closed = 1;
nodes = (
(468,-87,l),
(451,56,l),
(282,56,l),
(282,553,l),
(452,553,l),
(468,696,l),
(100,696,l),
(100,-87,l)
);
}
);
width = 478;
}
);
unicode = 91;
},
{
glyphname = bracketright;
layers = (
{
layerId = m001;
shapes = (
{
closed = 1;
nodes = (
(10,696,l),
(18,657,l),
(116,657,l),
(116,-49,l),
(18,-49,l),
(10,-88,l),
(165,-88,l),
(165,696,l)
);
}
);
width = 265;
},
{
layerId = m003;
shapes = (
{
closed = 1;
nodes = (
(10,696,l),
(26,553,l),
(196,553,l),
(196,56,l),
(27,56,l),
(10,-87,l),
(378,-87,l),
(378,696,l)
);
}
);
width = 478;
}
);
unicode = 93;
},
{
glyphname = quotesinglbase;
layers = (
{
layerId = m001;
shapes = (
{
closed = 1;
nodes = (
(71,76,o),
(54,65,o),
(45,47,o),
(45,37,q),
(45,30,o),
(53,13,o),
(69,-1,o),
(81,-1,q),
(80,-28,o),
(46,-69,o),
(20,-83,q),
(36,-108,l),
(64,-94,o),
(102,-52,o),
(122,2,o),
(122,33,q),
(122,48,o),
(101,76,o),
(83,76,q)
);
}
);
width = 152;
},
{
layerId = m003;
shapes = (
{
closed = 1;
nodes = (
(95,147,o),
(53,120,o),
(29,78,o),
(29,55,q),
(29,39,o),
(40,9,o),
(60,-15,o),
(72,-23,q),
(68,-36,o),
(34,-66,o),
(20,-74,q),
(56,-154,l),
(100,-137,o),
(171,-76,o),
(213,1,o),
(213,40,q),
(213,88,o),
(159,147,o),
(121,147,q)
);
}
);
width = 243;
}
);
unicode = 8218;
},
{
glyphname = quotedblbase;
layers = (
{
layerId = m001;
shapes = (
{
closed = 1;
nodes = (
(71,76,o),
(54,65,o),
(45,47,o),
(45,37,q),
(45,30,o),
(53,13,o),
(69,-1,o),
(81,-1,q),
(80,-28,o),
(46,-69,o),
(20,-83,q),
(36,-108,l),
(64,-94,o),
(102,-52,o),
(122,2,o),
(122,33,q),
(122,48,o),
(101,76,o),
(83,76,q)
);
},
{
closed = 1;
nodes = (
(194,76,o),
(177,65,o),
(168,47,o),
(168,37,q),
(168,27,o),
(186,-1,o),
(204,-1,q),
(203,-28,o),
(169,-69,o),
(143,-83,q),
(159,-108,l),
(187,-94,o),
(225,-52,o),
(245,2,o),
(245,33,q),
(245,48,o),
(224,76,o),
(206,76,q)
);
}
);
width = 275;
},
{
layerId = m003;
shapes = (
{
closed = 1;
nodes = (
(95,147,o),
(53,120,o),
(29,78,o),
(29,55,q),
(29,39,o),
(40,9,o),
(60,-15,o),
(72,-23,q),
(68,-36,o),
(34,-66,o),
(20,-74,q),
(56,-154,l),
(100,-137,o),
(171,-76,o),
(213,1,o),
(213,40,q),
(213,88,o),
(159,147,o),
(121,147,q)
);
},
{
closed = 1;
nodes = (
(305,147,o),
(263,120,o),
(239,78,o),
(239,55,q),
(239,30,o),
(264,-12,o),
(282,-23,q),
(278,-36,o),
(244,-66,o),
(230,-74,q),
(266,-154,l),
(310,-137,o),
(381,-76,o),
(423,1,o),
(423,40,q),
(423,88,o),
(369,147,o),
(331,147,q)
);
}
);
width = 453;
}
);
unicode = 8222;
},
{
glyphname = quotedblleft;
layers = (
{
layerId = m001;
shapes = (
{
closed = 1;
nodes = (
(82,518,o),
(98,529,o),
(107,547,o),
(107,557,q),
(107,567,o),
(89,595,o),
(71,595,q),
(72,622,o),
(106,663,o),
(132,677,q),
(116,702,l),
(88,689,o),
(50,646,o),
(30,592,o),
(30,561,q),
(30,546,o),
(51,518,o),
(69,518,q)
);
},
{
closed = 1;
nodes = (
(205,518,o),
(221,529,o),
(230,547,o),
(230,557,q),
(230,564,o),
(222,581,o),
(206,595,o),
(194,595,q),
(195,622,o),
(229,663,o),
(255,677,q),
(239,702,l),
(211,689,o),
(173,646,o),
(153,592,o),
(153,561,q),
(153,546,o),
(174,518,o),
(192,518,q)
);
}
);
width = 275;
},
{
layerId = m003;
shapes = (
{
closed = 1;
nodes = (
(148,441,o),
(190,468,o),
(214,511,o),
(214,533,q),
(214,558,o),
(189,600,o),
(171,611,q),
(175,624,o),
(209,654,o),
(223,662,q),
(187,742,l),
(143,726,o),
(72,664,o),
(30,588,o),
(30,548,q),
(30,500,o),
(84,441,o),
(122,441,q)
);
},
{
closed = 1;
nodes = (
(358,441,o),
(400,468,o),
(424,511,o),
(424,533,q),
(424,550,o),
(413,580,o),
(393,604,o),
(381,611,q),
(385,624,o),
(419,654,o),
(433,662,q),
(397,742,l),
(353,726,o),
(282,664,o),
(240,588,o),
(240,548,q),
(240,500,o),
(294,441,o),
(332,441,q)
);
}
);
width = 453;
}
);
unicode = 8220;
},
{
glyphname = quotedblright;
layers = (
{
layerId = m001;
shapes = (
{
closed = 1;
nodes = (
(194,702,o),
(177,691,o),
(168,673,o),
(168,663,q),
(168,653,o),
(186,625,o),
(204,625,q),
(203,598,o),
(169,557,o),
(143,543,q),
(159,518,l),
(187,532,o),
(225,574,o),
(245,629,o),
(245,659,q),
(245,674,o),
(224,702,o),
(206,702,q)
);
},
{
closed = 1;
nodes = (
(71,702,o),
(54,691,o),
(45,673,o),
(45,663,q),
(45,657,o),
(53,639,o),
(69,625,o),
(81,625,q),
(80,598,o),
(46,557,o),
(20,543,q),
(36,518,l),
(64,532,o),
(102,574,o),
(122,629,o),
(122,659,q),
(122,674,o),
(101,702,o),
(83,702,q)
);
}
);
width = 275;
},
{
layerId = m003;
shapes = (
{
closed = 1;
nodes = (
(305,742,o),
(263,715,o),
(239,673,o),
(239,650,q),
(239,625,o),
(264,583,o),
(282,572,q),
(278,559,o),
(244,529,o),
(230,521,q),
(266,441,l),
(310,458,o),
(381,519,o),
(423,596,o),
(423,635,q),
(423,683,o),
(369,742,o),
(331,742,q)
);
},
{
closed = 1;
nodes = (
(95,742,o),
(53,715,o),
(29,673,o),
(29,650,q),
(29,634,o),
(40,604,o),
(60,580,o),
(72,572,q),
(68,559,o),
(34,529,o),
(20,521,q),
(56,441,l),
(100,458,o),
(171,519,o),
(213,596,o),
(213,635,q),
(213,683,o),
(159,742,o),
(121,742,q)
);
}
);
width = 453;
}
);
unicode = 8221;
},
{
glyphname = quoteleft;
layers = (
{
layerId = m001;
shapes = (
{
closed = 1;
nodes = (
(82,518,o),
(98,529,o),
(107,547,o),
(107,557,q),
(107,567,o),
(89,595,o),
(71,595,q),
(72,622,o),
(106,663,o),
(132,677,q),
(116,702,l),
(88,689,o),
(50,646,o),
(30,592,o),
(30,561,q),
(30,546,o),
(51,518,o),
(69,518,q)
);
}
);
width = 152;
},
{
layerId = m003;
shapes = (
{
closed = 1;
nodes = (
(148,441,o),
(190,468,o),
(214,511,o),
(214,533,q),
(214,558,o),
(189,600,o),
(171,611,q),
(175,624,o),
(209,654,o),
(223,662,q),
(187,742,l),
(143,726,o),
(72,664,o),
(30,588,o),
(30,548,q),
(30,500,o),
(84,441,o),
(122,441,q)
);
}
);
width = 243;
}
);
unicode = 8216;
},
{
glyphname = quoteright;
layers = (
{
layerId = m001;
shapes = (
{
closed = 1;
nodes = (
(71,702,o),
(54,691,o),
(45,673,o),
(45,663,q),
(45,657,o),
(53,639,o),
(69,625,o),
(81,625,q),
(80,598,o),
(46,557,o),
(20,543,q),
(36,518,l),
(64,532,o),
(102,574,o),
(122,629,o),
(122,659,q),
(122,674,o),
(101,702,o),
(83,702,q)
);
}
);
width = 152;
},
{
layerId = m003;
shapes = (
{
closed = 1;
nodes = (
(95,742,o),
(53,715,o),
(29,673,o),
(29,650,q),
(29,634,o),
(40,604,o),
(60,580,o),
(72,572,q),
(68,559,o),
(34,529,o),
(20,521,q),
(56,441,l),
(100,458,o),
(171,519,o),
(213,596,o),
(213,635,q),
(213,683,o),
(159,742,o),
(121,742,q)
);
}
);
width = 243;
}
);
unicode = 8217;
},
{
glyphname = guillemetleft;
layers = (
{
layerId = m001;
shapes = (
{
closed = 1;
nodes = (
(322,84,l),
(343,115,l),
(220,245,l),
(343,375,l),
(322,406,l),
(182,261,l),
(182,229,l)
);
},
{
closed = 1;
nodes = (
(170,84,l),
(191,115,l),
(69,245,l),
(191,375,l),
(170,406,l),
(30,261,l),
(30,229,l)
);
}
);
width = 363;
},
{
layerId = m003;
shapes = (
{
closed = 1;
nodes = (
(368,73,l),
(401,179,l),
(335,247,l),
(401,314,l),
(368,421,l),
(211,269,l),
(211,224,l)
);
},
{
closed = 1;
nodes = (
(187,73,l),
(220,179,l),
(154,247,l),
(220,314,l),
(187,421,l),
(30,269,l),
(30,224,l)
);
}
);
width = 421;
}
);
unicode = 171;
},
{
glyphname = guillemetright;
layers = (
{
layerId = m001;
shapes = (
{
closed = 1;
nodes = (
(41,406,l),
(20,375,l),
(143,245,l),
(20,115,l),
(41,84,l),
(181,229,l),
(181,261,l)
);
},
{
closed = 1;
nodes = (
(193,406,l),
(172,375,l),
(294,245,l),
(172,115,l),
(193,84,l),
(333,229,l),
(333,261,l)
);
}
);
width = 363;
},
{
layerId = m003;
shapes = (
{
closed = 1;
nodes = (
(53,421,l),
(20,315,l),
(86,247,l),
(20,180,l),
(53,73,l),
(210,225,l),
(210,270,l)
);
},
{
closed = 1;
nodes = (
(234,421,l),
(201,315,l),
(267,247,l),
(201,180,l),
(234,73,l),
(391,225,l),
(391,270,l)
);
}
);
width = 421;
}
);
unicode = 187;
},
{
glyphname = guilsinglleft;
layers = (
{
layerId = m001;
shapes = (
{
closed = 1;
nodes = (
(170,83,l),
(191,117,l),
(72,245,l),
(191,373,l),
(170,408,l),
(30,259,l),
(30,231,l)
);
}
);
width = 211;
},
{
layerId = m003;
shapes = (
{
closed = 1;
nodes = (
(217,58,l),
(250,194,l),
(184,252,l),
(250,309,l),
(217,446,l),
(30,284,l),
(30,219,l)
);
}
);
width = 270;
}
);
unicode = 8249;
},
{
glyphname = guilsinglright;
layers = (
{
layerId = m001;
shapes = (
{
closed = 1;
nodes = (
(41,408,l),
(20,374,l),
(139,246,l),
(20,118,l),
(41,83,l),
(181,232,l),
(181,260,l)
);
}
);
width = 211;
},
{
layerId = m003;
shapes = (
{
closed = 1;
nodes = (
(53,446,l),
(20,310,l),
(86,252,l),
(20,195,l),
(53,58,l),
(240,220,l),
(240,285,l)
);
}
);
width = 270;
}
);
unicode = 8250;
},
{
glyphname = quotedbl;
layers = (
{
layerId = m001;
shapes = (
{
closed = 1;
nodes = (
(194,702,o),
(177,691,o),
(168,673,o),
(168,663,q),
(168,653,o),
(186,625,o),
(204,625,q),
(203,598,o),
(169,557,o),
(143,543,q),
(159,518,l),
(187,532,o),
(225,574,o),
(245,629,o),
(245,659,q),
(245,674,o),
(224,702,o),
(206,702,q)
);
},
{
closed = 1;
nodes = (
(71,702,o),
(54,691,o),
(45,673,o),
(45,663,q),
(45,657,o),
(53,639,o),
(69,625,o),
(81,625,q),
(80,598,o),
(46,557,o),
(20,543,q),
(36,518,l),
(64,532,o),
(102,574,o),
(122,629,o),
(122,659,q),
(122,674,o),
(101,702,o),
(83,702,q)
);
}
);
width = 275;
},
{
layerId = m003;
shapes = (
{
closed = 1;
nodes = (
(305,742,o),
(263,715,o),
(239,673,o),
(239,650,q),
(239,625,o),
(264,583,o),
(282,572,q),
(278,559,o),
(244,529,o),
(230,521,q),
(266,441,l),
(310,458,o),
(381,519,o),
(423,596,o),
(423,635,q),
(423,683,o),
(369,742,o),
(331,742,q)
);
},
{
closed = 1;
nodes = (
(95,742,o),
(53,715,o),
(29,673,o),
(29,650,q),
(29,634,o),
(40,604,o),
(60,580,o),
(72,572,q),
(68,559,o),
(34,529,o),
(20,521,q),
(56,441,l),
(100,458,o),
(171,519,o),
(213,596,o),
(213,635,q),
(213,683,o),
(159,742,o),
(121,742,q)
);
}
);
width = 453;
}
);
unicode = 34;
},
{
glyphname = quotesingle;
layers = (
{
layerId = m001;
shapes = (
{
closed = 1;
nodes = (
(71,702,o),
(54,691,o),
(45,673,o),
(45,663,q),
(45,657,o),
(53,639,o),
(69,625,o),
(81,625,q),
(80,598,o),
(46,557,o),
(20,543,q),
(36,518,l),
(64,532,o),
(102,574,o),
(122,629,o),
(122,659,q),
(122,674,o),
(101,702,o),
(83,702,q)
);
}
);
width = 152;
},
{
layerId = m003;
shapes = (
{
closed = 1;
nodes = (
(95,742,o),
(53,715,o),
(29,673,o),
(29,650,q),
(29,634,o),
(40,604,o),
(60,580,o),
(72,572,q),
(68,559,o),
(34,529,o),
(20,521,q),
(56,441,l),
(100,458,o),
(171,519,o),
(213,596,o),
(213,635,q),
(213,683,o),
(159,742,o),
(121,742,q)
);
}
);
width = 243;
}
);
unicode = 39;
},
{
glyphname = at;
layers = (
{
layerId = m001;
shapes = (
{
closed = 1;
nodes = (
(511,404,l),
(440,404,l),
(397,404,o),
(319,375,o),
(261,324,o),
(227,253,o),
(227,211,q),
(227,147,o),
(314,66,o),
(384,66,q),
(407,66,o),
(459,85,o),
(478,99,q),
(491,82,o),
(531,61,o),
(558,61,q),
(596,61,o),
(655,92,o),
(698,154,o),
(720,244,o),
(720,304,q),
(720,367,o),
(676,472,o),
(596,551,o),
(485,594,o),
(417,594,q),
(326,594,o),
(185,534,o),
(89,428,o),
(40,291,o),
(40,213,q),
(40,141,o),
(89,27,o),
(176,-54,o),
(287,-96,o),
(348,-96,q),
(397,-96,o),
(493,-80,o),
(535,-58,q),
(522,-20,l),
(502,-31,o),
(447,-47,o),
(388,-55,o),
(359,-55,q),
(285,-55,o),
(163,10,o),
(91,131,o),
(91,214,q),
(91,291,o),
(139,415,o),
(226,505,o),
(344,553,o),
(414,553,q),
(495,553,o),
(610,488,o),
(672,373,o),
(672,297,q),
(672,231,o),
(641,145,o),
(591,102,o),
(560,102,q),
(529,102,o),
(498,140,o),
(503,183,q),
(527,384,l)
);
},
{
closed = 1;
nodes = (
(352,103,o),
(304,129,o),
(278,177,o),
(278,211,q),
(278,259,o),
(322,329,o),
(393,367,o),
(435,367,q),
(480,367,l),
(457,190,l),
(456,176,o),
(455,142,o),
(462,125,q),
(449,116,o),
(406,103,o),
(384,103,q)
);
}
);
width = 760;
},
{
layerId = m003;
shapes = (
{
closed = 1;
nodes = (
(548,444,l),
(459,444,l),
(420,444,o),
(337,424,o),
(265,376,o),
(221,293,o),
(221,229,q),
(221,153,o),
(312,57,o),
(408,57,q),
(430,57,o),
(469,67,o),
(487,76,q),
(501,64,o),
(538,54,o),
(557,54,q),
(598,54,o),
(680,87,o),
(750,153,o),
(792,248,o),
(792,309,q),
(792,374,o),
(738,490,o),
(641,579,o),
(510,630,o),
(433,630,q),
(334,630,o),
(181,566,o),
(75,455,o),
(20,314,o),
(20,238,q),
(20,152,o),
(84,22,o),
(194,-66,o),
(336,-111,o),
(414,-111,q),
(463,-111,o),
(571,-95,o),
(634,-62,q),
(590,39,l),
(568,31,o),
(501,20,o),
(439,16,o),
(423,16,q),
(359,16,o),
(248,64,o),
(179,160,o),
(179,231,q),
(179,291,o),
(217,387,o),
(287,457,o),
(382,494,o),
(439,494,q),
(511,494,o),
(601,439,o),
(643,352,o),
(643,304,q),
(643,269,o),
(614,218,o),
(580,191,o),
(571,191,q),
(568,191,o),
(565,195,o),
(566,200,q),
(589,383,l)
);
},
{
closed = 1;
nodes = (
(392,199,o),
(375,211,o),
(367,229,o),
(367,237,q),
(367,261,o),
(382,301,o),
(414,325,o),
(438,325,q),
(440,325,l),
(428,231,l),
(427,227,o),
(426,210,o),
(426,205,q),
(425,202,o),
(411,199,o),
(406,199,q)
);
}
);
width = 812;
}
);
unicode = 64;
},
{
glyphname = ampersand;
layers = (
{
layerId = m001;
shapes = (
{
closed = 1;
nodes = (
(424,78,o),
(340,28,o),
(289,28,q),
(241,28,o),
(153,70,o),
(97,149,o),
(97,202,q),
(97,253,o),
(139,340,o),
(182,371,q),
(195,355,o),
(226,324,o),
(242,310,q),
(453,117,l)
);
},
{
closed = 1;
nodes = (
(607,27,l),
(507,120,l),
(535,166,o),
(563,274,o),
(563,328,q),
(527,339,l),
(527,293,o),
(500,193,o),
(475,150,q),
(277,335,l),
(243,368,o),
(194,428,o),
(168,490,o),
(168,526,q),
(168,560,o),
(202,619,o),
(262,655,o),
(299,655,q),
(345,655,o),
(396,634,o),
(421,622,q),
(441,657,l),
(418,671,o),
(340,696,o),
(290,696,q),
(242,696,o),
(165,649,o),
(121,570,o),
(121,522,q),
(121,488,o),
(141,430,o),
(158,404,q),
(110,372,o),
(50,266,o),
(50,200,q),
(50,134,o),
(113,38,o),
(220,-13,o),
(286,-13,q),
(349,-13,o),
(451,42,o),
(485,88,q),
(582,0,l)
);
}
);
width = 647;
},
{
layerId = m003;
shapes = (
{
closed = 1;
nodes = (
(354,139,o),
(325,126,o),
(309,126,q),
(280,126,o),
(239,149,o),
(218,190,o),
(218,218,q),
(218,231,o),
(224,258,o),
(230,270,q),
(239,263,o),
(256,247,o),
(265,239,q),
(368,150,l)
);
},
{
closed = 1;
nodes = (
(669,113,l),
(593,177,l),
(615,219,o),
(644,311,o),
(649,357,q),
(489,421,l),
(485,393,o),
(469,326,o),
(456,293,q),
(327,403,l),
(305,424,o),
(275,453,o),
(261,478,o),
(261,490,q),
(261,504,o),
(277,530,o),
(309,547,o),
(333,547,q),
(364,547,o),
(428,530,o),
(462,511,q),
(511,635,l),
(468,666,o),
(367,696,o),
(309,696,q),
(243,696,o),
(141,640,o),
(83,547,o),
(83,493,q),
(83,462,o),
(100,411,o),
(116,387,q),
(77,353,o),
(30,259,o),
(30,212,q),
(30,133,o),
(105,28,o),
(230,-24,o),
(305,-24,q),
(356,-24,o),
(449,14,o),
(488,45,q),
(562,-19,l)
);
}
);
width = 689;
}
);
unicode = 38;
},
{
glyphname = paragraph;
layers = (
{
layerId = m001;
shapes = (
{
closed = 1;
nodes = (
(383,641,l),
(607,641,l),
(607,0,l),
(656,0,l),
(656,641,l),
(768,641,l),
(768,680,l),
(285,680,l),
(214,680,o),
(103,635,o),
(40,545,o),
(40,475,q),
(40,423,o),
(80,344,o),
(150,291,o),
(243,264,o),
(296,264,q),
(334,264,l),
(334,0,l),
(383,0,l)
);
}
);
width = 808;
},
{
layerId = m003;
shapes = (
{
closed = 1;
nodes = (
(534,537,l),
(713,537,l),
(713,0,l),
(895,0,l),
(895,537,l),
(1033,537,l),
(1033,680,l),
(315,680,l),
(234,680,o),
(100,632,o),
(20,526,o),
(20,439,q),
(20,375,o),
(70,281,o),
(156,220,o),
(267,191,o),
(328,191,q),
(353,191,l),
(353,0,l),
(534,0,l)
);
}
);
width = 1053;
}
);
unicode = 182;
},
{
glyphname = section;
layers = (
{
layerId = m001;
shapes = (
{
closed = 1;
nodes = (
(464,109,o),
(508,153,o),
(530,209,o),
(530,241,q),
(530,275,o),
(507,331,o),
(462,379,o),
(394,420,o),
(349,439,q),
(290,464,o),
(209,516,o),
(168,576,o),
(168,614,q),
(168,666,o),
(252,739,o),
(324,739,q),
(359,739,o),
(410,729,o),
(451,713,o),
(468,705,q),
(490,741,l),
(460,756,o),
(372,780,o),
(322,780,q),
(258,780,o),
(166,738,o),
(116,665,o),
(116,619,q),
(116,583,o),
(140,523,o),
(186,474,o),
(254,432,o),
(298,414,q),
(359,389,o),
(439,339,o),
(479,281,o),
(479,244,q),
(479,213,o),
(448,159,o),
(417,141,q),
(432,95,l)
);
},
{
closed = 1;
nodes = (
(64,-84,o),
(106,-99,o),
(161,-112,o),
(216,-119,o),
(237,-119,q),
(311,-119,o),
(412,-76,o),
(464,1,o),
(464,51,q),
(464,85,o),
(441,141,o),
(396,189,o),
(328,230,o),
(283,249,q),
(224,274,o),
(143,326,o),
(102,386,o),
(102,424,q),
(102,456,o),
(136,512,o),
(167,528,q),
(147,569,l),
(116,556,o),
(73,514,o),
(50,460,o),
(50,429,q),
(50,393,o),
(74,333,o),
(120,284,o),
(188,242,o),
(232,224,q),
(293,199,o),
(373,149,o),
(413,91,o),
(413,54,q),
(413,20,o),
(372,-40,o),
(294,-77,o),
(236,-77,q),
(203,-77,o),
(140,-65,o),
(88,-46,o),
(70,-38,q),
(55,-77,l)
);
}
);
width = 570;
},
{
layerId = m003;
shapes = (
{
closed = 1;
nodes = (
(503,74,o),
(624,126,o),
(690,217,o),
(690,274,q),
(690,316,o),
(653,383,o),
(593,439,o),
(520,485,o),
(484,506,q),
(457,522,o),
(410,545,o),
(381,569,o),
(381,583,q),
(381,602,o),
(417,631,o),
(448,631,q),
(471,631,o),
(509,626,o),
(556,614,o),
(592,601,q),
(646,724,l),
(606,751,o),
(497,780,o),
(446,780,q),
(369,780,o),
(255,729,o),
(194,641,o),
(193,585,q),
(193,542,o),
(231,473,o),
(293,419,o),
(364,375,o),
(397,355,q),
(423,340,o),
(471,313,o),
(502,288,o),
(502,276,q),
(502,257,o),
(457,223,o),
(414,223,q),
(419,74,l)
);
},
{
closed = 1;
nodes = (
(53,-76,o),
(108,-96,o),
(169,-111,o),
(230,-119,o),
(256,-119,q),
(340,-119,o),
(462,-67,o),
(527,24,o),
(527,81,q),
(527,123,o),
(490,190,o),
(430,246,o),
(357,292,o),
(321,313,q),
(294,329,o),
(247,352,o),
(218,376,o),
(218,390,q),
(218,409,o),
(254,438,o),
(285,438,q),
(283,587,l),
(206,587,o),
(92,536,o),
(31,448,o),
(30,392,q),
(30,349,o),
(68,280,o),
(130,226,o),
(201,182,o),
(234,162,q),
(260,147,o),
(308,120,o),
(339,95,o),
(339,83,q),
(339,71,o),
(319,46,o),
(280,30,o),
(251,30,q),
(227,30,o),
(166,43,o),
(111,63,o),
(93,73,q),
(33,-64,l)
);
}
);
width = 710;
}
);
unicode = 167;
},
{
glyphname = copyright;
layers = (
{
layerId = m001;
shapes = (
{
closed = 1;
nodes = (
(747,411,o),
(697,538,o),
(603,633,o),
(473,686,o),
(393,686,q),
(312,686,o),
(182,633,o),
(90,538,o),
(40,411,o),
(40,336,q),
(40,262,o),
(88,135,o),
(179,41,o),
(310,-12,o),
(393,-12,q),
(473,-12,o),
(603,41,o),
(697,135,o),
(747,262,o),
(747,336,q)
);
},
{
closed = 1;
nodes = (
(87,425,o),
(162,565,o),
(300,648,o),
(393,648,q),
(487,648,o),
(624,565,o),
(700,425,o),
(700,337,q),
(700,250,o),
(624,108,o),
(487,25,o),
(393,25,q),
(300,25,o),
(162,108,o),
(87,250,o),
(87,337,q)
);
},
{
closed = 1;
nodes = (
(426,120,o),
(474,131,o),
(519,150,o),
(533,162,q),
(513,193,l),
(493,180,o),
(437,159,o),
(404,159,q),
(337,159,o),
(249,256,o),
(249,341,q),
(249,398,o),
(289,479,o),
(360,523,o),
(404,523,q),
(426,523,o),
(466,513,o),
(500,498,o),
(513,489,q),
(533,520,l),
(519,533,o),
(474,551,o),
(426,562,o),
(406,562,q),
(350,562,o),
(256,512,o),
(200,414,o),
(200,341,q),
(200,269,o),
(256,170,o),
(350,120,o),
(406,120,q)
);
}
);
width = 787;
},
{
layerId = m003;
shapes = (
{
closed = 1;
nodes = (
(805,416,o),
(749,554,o),
(645,658,o),
(501,716,o),
(412,716,q),
(325,716,o),
(181,658,o),
(77,554,o),
(20,416,o),
(20,336,q),
(20,258,o),
(77,121,o),
(181,17,o),
(325,-42,o),
(412,-42,q),
(501,-42,o),
(645,17,o),
(749,121,o),
(805,258,o),
(805,336,q)
);
},
{
closed = 1;
nodes = (
(155,410,o),
(219,525,o),
(335,593,o),
(412,593,q),
(498,593,o),
(611,525,o),
(668,410,o),
(668,337,q),
(668,265,o),
(605,150,o),
(490,82,o),
(412,82,q),
(335,82,o),
(219,150,o),
(155,265,o),
(155,337,q)
);
},
{
closed = 1;
nodes = (
(442,115,o),
(491,120,o),
(545,139,o),
(569,158,q),
(525,267,l),
(500,254,o),
(461,244,o),
(440,244,q),
(408,244,o),
(357,291,o),
(357,336,q),
(357,367,o),
(381,410,o),
(419,434,o),
(440,434,q),
(456,434,o),
(482,430,o),
(509,420,o),
(525,411,q),
(569,520,l),
(545,540,o),
(491,558,o),
(442,563,o),
(424,563,q),
(356,563,o),
(251,508,o),
(193,407,o),
(193,336,q),
(193,266,o),
(251,167,o),
(356,115,o),
(424,115,q)
);
}
);
width = 825;
}
);
unicode = 169;
},
{
glyphname = registered;
layers = (
{
layerId = m001;
shapes = (
{
closed = 1;
nodes = (
(675,575,o),
(594,716,o),
(452,798,o),
(358,798,q),
(263,798,o),
(119,716,o),
(40,575,o),
(40,487,q),
(40,400,o),
(121,260,o),
(265,178,o),
(358,178,q),
(452,178,o),
(594,260,o),
(675,400,o),
(675,487,q)
);
},
{
closed = 1;
nodes = (
(88,566,o),
(154,689,o),
(276,760,o),
(358,760,q),
(440,760,o),
(560,689,o),
(626,566,o),
(626,488,q),
(626,412,o),
(560,289,o),
(440,216,o),
(358,215,q),
(276,216,o),
(154,289,o),
(88,412,o),
(88,488,q)
);
},
{
closed = 1;
nodes = (
(366,647,o),
(411,636,o),
(437,604,o),
(437,571,q),
(437,541,o),
(408,507,o),
(360,494,o),
(332,494,q),
(297,494,l),
(297,647,l),
(337,647,l)
);
},
{
closed = 1;
nodes = (
(407,469,l),
(435,481,o),
(480,534,o),
(480,572,q),
(480,612,o),
(445,659,o),
(384,680,o),
(344,680,q),
(257,680,l),
(257,304,l),
(297,304,l),
(297,462,l),
(339,462,l),
(346,462,o),
(360,463,o),
(368,463,q),
(458,304,l),
(505,304,l)
);
}
);
width = 715;
},
{
layerId = m003;
shapes = (
{
closed = 1;
nodes = (
(703,571,o),
(620,725,o),
(467,815,o),
(361,815,q),
(257,815,o),
(103,725,o),
(20,571,o),
(20,475,q),
(20,381,o),
(103,228,o),
(257,138,o),
(361,138,q),
(467,138,o),
(620,228,o),
(703,381,o),
(703,475,q)
);
},
{
closed = 1;
nodes = (
(131,544,o),
(186,649,o),
(289,710,o),
(361,710,q),
(433,710,o),
(536,649,o),
(592,544,o),
(592,476,q),
(592,410,o),
(536,304,o),
(433,243,o),
(361,242,q),
(289,243,o),
(186,304,o),
(131,410,o),
(131,476,q)
);
},
{
closed = 1;
nodes = (
(366,574,o),
(389,567,o),
(401,550,o),
(401,534,q),
(401,520,o),
(388,501,o),
(365,492,o),
(350,492,q),
(319,492,l),
(319,574,l),
(350,574,l)
);
},
{
closed = 1;
nodes = (
(459,436,l),
(484,451,o),
(517,500,o),
(517,534,q),
(517,577,o),
(472,630,o),
(402,656,o),
(363,656,q),
(214,656,l),
(214,300,l),
(319,300,l),
(319,412,l),
(337,412,l),
(342,412,o),
(351,412,o),
(355,412,q),
(398,300,l),
(517,300,l)
);
}
);
width = 723;
}
);
unicode = 174;
},
{
glyphname = trademark;
layers = (
{
layerId = m001;
shapes = (
{
closed = 1;
nodes = (
(10,680,l),
(10,648,l),
(129,648,l),
(129,306,l),
(173,306,l),
(173,648,l),
(291,648,l),
(288,680,l)
);
},
{
closed = 1;
nodes = (
(623,584,l),
(623,306,l),
(661,306,l),
(661,680,l),
(641,680,l),
(513,483,l),
(380,680,l),
(361,680,l),
(361,306,l),
(402,306,l),
(402,583,l),
(507,429,l),
(519,431,l)
);
}
);
width = 711;
},
{
layerId = m003;
shapes = (
{
closed = 1;
nodes = (
(10,680,l),
(10,576,l),
(117,576,l),
(117,290,l),
(242,290,l),
(242,576,l),
(359,576,l),
(347,680,l)
);
},
{
closed = 1;
nodes = (
(648,460,l),
(648,290,l),
(774,290,l),
(774,680,l),
(685,680,l),
(585,553,l),
(477,680,l),
(386,680,l),
(386,290,l),
(511,290,l),
(511,465,l),
(559,413,l),
(611,419,l)
);
}
);
width = 804;
}
);
unicode = 8482;
},
{
glyphname = degree;
layers = (
{
layerId = m001;
shapes = (
{
closed = 1;
nodes = (
(86,702,o),
(38,674,o),
(10,628,o),
(10,599,q),
(10,569,o),
(38,524,o),
(86,498,o),
(116,498,q),
(147,498,o),
(195,524,o),
(223,569,o),
(223,599,q),
(223,628,o),
(195,674,o),
(147,702,o),
(116,702,q)
);
},
{
closed = 1;
nodes = (
(88,529,o),
(50,575,o),
(50,600,q),
(50,625,o),
(85,670,o),
(116,670,q),
(147,670,o),
(184,625,o),
(184,600,q),
(184,575,o),
(153,529,o),
(120,529,q)
);
}
);
width = 243;
},
{
layerId = m003;
shapes = (
{
closed = 1;
nodes = (
(110,720,o),
(47,684,o),
(10,625,o),
(10,588,q),
(10,551,o),
(47,491,o),
(110,457,o),
(148,457,q),
(184,457,o),
(247,491,o),
(285,551,o),
(285,588,q),
(285,625,o),
(247,684,o),
(184,720,o),
(148,720,q)
);
},
{
closed = 1;
nodes = (
(175,576,o),
(160,560,o),
(149,560,q),
(139,560,o),
(123,578,o),
(123,588,q),
(123,598,o),
(139,614,o),
(149,614,q),
(160,614,o),
(175,597,o),
(175,586,q)
);
}
);
width = 295;
}
);
unicode = 176;
},
{
glyphname = bar;
layers = (
{
layerId = m001;
shapes = (
{
closed = 1;
nodes = (
(100,0,l),
(149,-4,l),
(149,706,l),
(100,710,l)
);
}
);
width = 249;
},
{
layerId = m003;
shapes = (
{
closed = 1;
nodes = (
(80,0,l),
(262,-16,l),
(262,697,l),
(80,713,l)
);
}
);
width = 342;
}
);
unicode = 124;
},
{
glyphname = brokenbar;
layers = (
{
layerId = m001;
shapes = (
{
closed = 1;
nodes = (
(100,410,l),
(149,406,l),
(149,706,l),
(100,710,l)
);
},
{
closed = 1;
nodes = (
(100,0,l),
(149,-4,l),
(149,288,l),
(100,292,l)
);
}
);
width = 249;
},
{
layerId = m003;
shapes = (
{
closed = 1;
nodes = (
(80,410,l),
(262,394,l),
(262,697,l),
(80,713,l)
);
},
{
closed = 1;
nodes = (
(80,0,l),
(262,-16,l),
(262,287,l),
(80,303,l)
);
}
);
width = 342;
}
);
unicode = 166;
},
{
glyphname = lscript;
layers = (
{
layerId = m001;
shapes = (
{
closed = 1;
nodes = (
(32,192,o),
(53,206,o),
(76,223,o),
(87,231,q),
(87,127,l),
(87,84,o),
(119,21,o),
(177,-12,o),
(214,-12,q),
(223,-12,o),
(245,-7,o),
(266,2,o),
(272,6,q),
(260,43,l),
(254,40,o),
(231,29,o),
(215,29,q),
(190,29,o),
(154,56,o),
(136,98,o),
(136,122,q),
(136,274,l),
(180,316,o),
(259,416,o),
(308,522,o),
(308,574,q),
(308,614,o),
(280,671,o),
(229,702,o),
(195,702,q),
(163,702,o),
(114,670,o),
(87,610,o),
(87,566,q),
(87,291,l),
(75,281,o),
(49,260,o),
(23,241,o),
(10,232,q),
(22,185,l)
);
},
{
closed = 1;
nodes = (
(136,566,l),
(136,615,o),
(170,661,o),
(196,661,q),
(221,661,o),
(258,616,o),
(258,572,q),
(258,512,o),
(187,390,o),
(136,337,q)
);
}
);
width = 338;
},
{
layerId = m003;
shapes = (
{
closed = 1;
nodes = (
(56,164,o),
(79,172,o),
(102,180,o),
(107,181,q),
(107,155,l),
(107,91,o),
(174,18,o),
(282,-11,o),
(344,-11,q),
(368,-11,o),
(421,2,o),
(466,22,o),
(478,32,q),
(426,156,l),
(409,146,o),
(369,137,o),
(356,137,q),
(334,137,o),
(304,146,o),
(289,167,o),
(289,185,q),
(289,275,l),
(342,311,o),
(430,396,o),
(484,492,o),
(484,544,q),
(484,594,o),
(437,664,o),
(354,702,o),
(300,702,q),
(251,702,o),
(162,660,o),
(107,584,o),
(107,532,q),
(107,350,l),
(96,346,o),
(56,329,o),
(19,315,o),
(10,312,q),
(51,162,l)
);
},
{
closed = 1;
nodes = (
(283,527,l),
(283,539,o),
(292,560,o),
(303,560,q),
(313,560,o),
(323,548,o),
(323,539,q),
(323,512,o),
(300,462,o),
(283,440,q)
);
}
);
width = 514;
}
);
unicode = 8467;
},
{
glyphname = dagger;
layers = (
{
layerId = m001;
shapes = (
{
closed = 1;
nodes = (
(154,619,l),
(30,619,l),
(49,582,l),
(154,582,l),
(154,0,l),
(203,-4,l),
(203,582,l),
(336,582,l),
(317,619,l),
(203,619,l),
(203,780,l),
(154,783,l)
);
}
);
width = 366;
},
{
layerId = m003;
shapes = (
{
closed = 1;
nodes = (
(165,625,l),
(30,625,l),
(49,483,l),
(165,483,l),
(165,0,l),
(334,0,l),
(334,483,l),
(476,483,l),
(458,625,l),
(345,625,l),
(345,780,l),
(165,780,l)
);
}
);
width = 506;
}
);
unicode = 8224;
},
{
glyphname = daggerdbl;
layers = (
{
layerId = m001;
shapes = (
{
closed = 1;
nodes = (
(211,192,l),
(346,192,l),
(327,229,l),
(211,229,l),
(211,540,l),
(346,540,l),
(327,577,l),
(211,577,l),
(211,780,l),
(162,783,l),
(162,577,l),
(30,577,l),
(49,540,l),
(162,540,l),
(162,229,l),
(30,229,l),
(49,192,l),
(162,192,l),
(162,-6,l),
(211,1,l)
);
}
);
width = 376;
},
{
layerId = m003;
shapes = (
{
closed = 1;
nodes = (
(350,154,l),
(489,154,l),
(471,297,l),
(353,297,l),
(353,483,l),
(489,483,l),
(471,625,l),
(353,625,l),
(353,780,l),
(165,780,l),
(165,625,l),
(30,625,l),
(49,483,l),
(168,483,l),
(168,297,l),
(30,297,l),
(49,154,l),
(168,154,l),
(163,-6,l),
(355,1,l)
);
}
);
width = 519;
}
);
unicode = 8225;
},
{
glyphname = estimated;
layers = (
{
layerId = m001;
shapes = (
{
closed = 1;
nodes = (
(440,247,l),
(440,319,o),
(391,432,o),
(307,498,o),
(252,498,q),
(181,498,o),
(86,432,o),
(40,318,o),
(40,245,q),
(40,170,o),
(89,53,o),
(191,-13,o),
(270,-13,q),
(290,-13,o),
(347,-4,o),
(405,13,o),
(425,25,q),
(405,62,l),
(380,49,o),
(315,28,o),
(262,28,q),
(202,28,o),
(127,87,o),
(92,184,o),
(91,242,q),
(440,242,l)
);
},
{
closed = 1;
nodes = (
(98,327,o),
(133,408,o),
(197,457,o),
(245,457,q),
(293,457,o),
(353,408,o),
(384,327,o),
(388,279,q),
(93,279,l)
);
}
);
width = 480;
},
{
layerId = m003;
shapes = (
{
closed = 1;
nodes = (
(513,250,l),
(513,318,o),
(462,433,o),
(359,502,o),
(281,502,q),
(208,502,o),
(89,440,o),
(20,324,o),
(20,242,q),
(20,160,o),
(95,47,o),
(227,-11,o),
(310,-11,q),
(351,-11,o),
(429,3,o),
(493,27,o),
(512,41,q),
(461,164,l),
(439,153,o),
(372,131,o),
(328,131,q),
(297,131,o),
(253,147,o),
(225,177,o),
(218,197,q),
(513,197,l)
);
},
{
closed = 1;
nodes = (
(213,306,o),
(230,337,o),
(260,356,o),
(276,356,q),
(299,356,o),
(326,333,o),
(339,301,o),
(339,287,q),
(213,287,l)
);
}
);
width = 533;
}
);
unicode = 8494;
},
{
glyphname = cent;
layers = (
{
layerId = m001;
shapes = (
{
closed = 1;
nodes = (
(284,605,l),
(240,595,l),
(240,477,l),
(284,477,l)
);
},
{
closed = 1;
nodes = (
(240,0,l),
(240,-111,l),
(284,-111,l),
(284,0,l)
);
},
{
closed = 1;
nodes = (
(362,49,o),
(309,28,o),
(259,28,q),
(205,28,o),
(130,87,o),
(91,187,o),
(91,246,q),
(91,303,o),
(133,399,o),
(211,457,o),
(264,457,q),
(310,457,o),
(368,435,o),
(393,423,q),
(413,456,l),
(394,469,o),
(340,487,o),
(286,498,o),
(266,498,q),
(195,498,o),
(93,432,o),
(40,318,o),
(40,245,q),
(40,170,o),
(90,53,o),
(188,-13,o),
(259,-13,q),
(280,-13,o),
(334,-3,o),
(388,16,o),
(408,28,q),
(388,62,l)
);
}
);
width = 449;
},
{
layerId = m003;
shapes = (
{
closed = 1;
nodes = (
(362,631,l),
(212,618,l),
(212,456,l),
(362,460,l)
);
},
{
closed = 1;
nodes = (
(212,54,l),
(212,-125,l),
(362,-125,l),
(362,51,l)
);
},
{
closed = 1;
nodes = (
(371,148,o),
(327,137,o),
(303,137,q),
(279,137,o),
(235,161,o),
(208,208,o),
(208,242,q),
(208,277,o),
(235,327,o),
(279,354,o),
(303,354,q),
(329,354,o),
(371,343,o),
(400,328,q),
(451,453,l),
(423,475,o),
(361,496,o),
(305,502,o),
(285,502,q),
(207,502,o),
(87,440,o),
(20,324,o),
(20,242,q),
(20,161,o),
(87,48,o),
(207,-11,o),
(285,-11,q),
(305,-11,o),
(361,-5,o),
(423,16,o),
(451,38,q),
(400,163,l)
);
}
);
width = 457;
}
);
unicode = 162;
},
{
glyphname = currency;
layers = (
{
layerId = m001;
shapes = (
{
closed = 1;
nodes = (
(164,48,l),
(195,19,o),
(276,-13,o),
(325,-13,q),
(376,-13,o),
(462,21,o),
(493,51,q),
(602,-54,l),
(631,-22,l),
(523,84,l),
(548,116,o),
(574,196,o),
(574,239,q),
(574,284,o),
(549,367,o),
(526,401,q),
(631,505,l),
(602,537,l),
(497,435,l),
(467,464,o),
(385,498,o),
(335,498,q),
(284,498,o),
(197,464,o),
(165,434,q),
(59,537,l),
(30,505,l),
(136,401,l),
(112,369,o),
(87,290,o),
(87,246,q),
(87,198,o),
(112,115,o),
(135,82,q),
(30,-22,l),
(59,-54,l)
);
},
{
closed = 1;
nodes = (
(523,181,o),
(472,85,o),
(383,28,o),
(325,28,q),
(271,28,o),
(187,85,o),
(138,184,o),
(138,246,q),
(138,303,o),
(188,399,o),
(277,457,o),
(335,457,q),
(395,457,o),
(479,396,o),
(523,297,o),
(523,239,q)
);
}
);
width = 661;
},
{
layerId = m003;
shapes = (
{
closed = 1;
nodes = (
(279,15,l),
(306,2,o),
(374,-11,o),
(407,-12,q),
(440,-11,o),
(507,3,o),
(534,16,q),
(641,-98,l),
(783,20,l),
(654,136,l),
(666,161,o),
(680,221,o),
(680,252,q),
(680,283,o),
(666,341,o),
(655,366,q),
(771,480,l),
(646,604,l),
(534,486,l),
(507,499,o),
(439,512,o),
(406,512,q),
(373,512,o),
(306,498,o),
(279,485,q),
(172,599,l),
(30,481,l),
(159,365,l),
(147,340,o),
(133,280,o),
(133,249,q),
(133,218,o),
(147,160,o),
(158,135,q),
(42,21,l),
(167,-103,l)
);
},
{
closed = 1;
nodes = (
(501,226,o),
(477,184,o),
(435,159,o),
(407,159,q),
(381,159,o),
(338,183,o),
(313,224,o),
(312,250,q),
(313,276,o),
(336,317,o),
(378,342,o),
(406,342,q),
(433,342,o),
(476,318,o),
(501,277,o),
(501,251,q)
);
}
);
width = 813;
}
);
unicode = 164;
},
{
glyphname = dollar;
layers = (
{
layerId = m001;
shapes = (
{
closed = 1;
nodes = (
(193,-10,l),
(166,-6,o),
(109,6,o),
(64,22,o),
(55,29,q),
(70,68,l),
(88,60,o),
(140,41,o),
(203,29,o),
(236,29,q),
(294,29,o),
(372,66,o),
(413,126,o),
(413,160,q),
(413,197,o),
(373,255,o),
(293,305,o),
(232,330,q),
(188,348,o),
(120,390,o),
(74,439,o),
(50,499,o),
(50,535,q),
(50,592,o),
(126,676,o),
(193,690,q),
(193,787,l),
(233,797,l),
(233,694,l),
(237,695,o),
(250,696,o),
(256,696,q),
(267,696,o),
(290,695,o),
(300,693,q),
(300,790,l),
(341,800,l),
(341,686,l),
(365,681,o),
(408,665,o),
(424,657,q),
(402,621,l),
(385,629,o),
(344,645,o),
(293,655,o),
(258,655,q),
(186,655,o),
(102,582,o),
(102,530,q),
(102,492,o),
(143,432,o),
(224,380,o),
(283,355,q),
(328,336,o),
(396,295,o),
(441,247,o),
(464,191,o),
(464,157,q),
(464,102,o),
(402,21,o),
(341,1,q),
(341,-111,l),
(300,-111,l),
(300,-8,l),
(286,-10,o),
(254,-13,o),
(237,-13,q),
(233,-13,l),
(233,-111,l),
(193,-111,l)
);
}
);
width = 534;
},
{
layerId = m003;
shapes = (
{
closed = 1;
nodes = (
(125,6,l),
(107,11,o),
(74,22,o),
(45,35,o),
(33,42,q),
(93,179,l),
(111,169,o),
(166,149,o),
(227,136,o),
(251,136,q),
(281,136,o),
(320,146,o),
(339,165,o),
(339,177,q),
(339,193,o),
(308,223,o),
(260,253,o),
(234,268,q),
(201,288,o),
(130,332,o),
(68,386,o),
(30,455,o),
(30,498,q),
(31,555,o),
(94,644,o),
(151,668,q),
(151,789,l),
(269,799,l),
(269,693,l),
(273,693,o),
(279,693,o),
(283,693,q),
(291,693,o),
(305,692,o),
(313,692,q),
(313,789,l),
(432,799,l),
(432,664,l),
(446,658,o),
(472,645,o),
(483,637,q),
(429,514,l),
(393,527,o),
(346,539,o),
(308,544,o),
(285,544,q),
(254,544,o),
(218,522,o),
(218,503,q),
(218,486,o),
(247,460,o),
(294,435,o),
(321,419,q),
(357,398,o),
(430,352,o),
(490,296,o),
(527,229,o),
(527,187,q),
(527,132,o),
(466,43,o),
(410,17,q),
(410,-122,l),
(291,-122,l),
(291,-12,l),
(283,-12,o),
(265,-13,o),
(256,-13,q),
(243,-13,l),
(243,-119,l),
(125,-119,l)
);
}
);
width = 547;
}
);
unicode = 36;
},
{
glyphname = euro;
layers = (
{
layerId = m001;
shapes = (
{
closed = 1;
nodes = (
(5,407,l),
(406,407,l),
(401,446,l),
(0,446,l)
);
},
{
closed = 1;
nodes = (
(5,226,l),
(406,226,l),
(401,265,l),
(0,265,l)
);
},
{
closed = 1;
nodes = (
(545,670,o),
(483,686,o),
(421,694,o),
(400,694,q),
(327,694,o),
(211,639,o),
(132,541,o),
(90,411,o),
(90,336,q),
(90,267,o),
(127,141,o),
(201,43,o),
(316,-14,o),
(394,-14,q),
(423,-14,o),
(487,-4,o),
(545,13,o),
(563,23,q),
(539,59,l),
(512,47,o),
(443,29,o),
(389,29,q),
(331,29,o),
(240,79,o),
(178,165,o),
(145,276,o),
(145,337,q),
(145,433,o),
(212,574,o),
(327,651,o),
(398,651,q),
(434,651,o),
(483,643,o),
(523,630,o),
(543,621,q),
(563,657,l)
);
}
);
width = 593;
},
{
layerId = m003;
shapes = (
{
closed = 1;
nodes = (
(12,364,l),
(516,364,l),
(506,480,l),
(0,480,l)
);
},
{
closed = 1;
nodes = (
(12,202,l),
(516,202,l),
(506,318,l),
(0,318,l)
);
},
{
closed = 1;
nodes = (
(613,655,o),
(545,680,o),
(473,693,o),
(439,693,q),
(364,693,o),
(236,641,o),
(142,546,o),
(90,415,o),
(90,337,q),
(90,260,o),
(138,132,o),
(229,38,o),
(360,-13,o),
(443,-13,q),
(478,-13,o),
(551,-1,o),
(620,21,o),
(646,37,q),
(577,173,l),
(551,157,o),
(485,136,o),
(448,136,q),
(416,136,o),
(355,163,o),
(307,215,o),
(278,290,o),
(278,338,q),
(278,400,o),
(326,493,o),
(401,544,o),
(441,544,q),
(464,544,o),
(502,539,o),
(549,527,o),
(585,514,q),
(639,637,l)
);
}
);
width = 656;
}
);
unicode = 8364;
},
{
glyphname = newsheqelsign;
layers = (
{
layerId = m001;
shapes = (
{
closed = 1;
nodes = (
(550,339,l),
(550,412,o),
(534,520,o),
(326,530,c),
(246,534,o),
(165,527,o),
(85,520,c),
(85,0,l),
(134,0,l),
(134,478,l),
(180,482,o),
(244,486,o),
(317,484,c),
(438,480,o),
(499,440,o),
(501,339,c),
(501,140,l),
(550,140,l)
);
},
{
closed = 1;
nodes = (
(679,-11,o),
(759,63,o),
(759,210,c),
(759,530,l),
(710,530,l),
(710,195,l),
(710,90,o),
(645,37,o),
(519,37,c),
(403,37,o),
(344,90,o),
(344,195,c),
(344,373,l),
(295,373,l),
(295,210,l),
(295,63,o),
(376,-11,o),
(519,-11,c)
);
}
);
width = 844;
},
{
layerId = m003;
shapes = (
{
closed = 1;
nodes = (
(599,319,l),
(599,420,o),
(546,502,o),
(396,526,c),
(291,543,o),
(174,531,o),
(43,508,c),
(43,0,l),
(200,0,l),
(200,382,l),
(221,384,o),
(299,389,o),
(359,383,c),
(450,374,o),
(452,324,o),
(452,283,c),
(452,190,l),
(599,190,l)
);
},
{
closed = 1;
nodes = (
(685,-11,o),
(801,63,o),
(801,230,c),
(801,530,l),
(644,530,l),
(644,255,l),
(644,180,o),
(641,117,o),
(515,117,c),
(399,117,o),
(396,180,o),
(396,255,c),
(396,333,l),
(249,333,l),
(249,220,l),
(249,63,o),
(352,-11,o),
(515,-11,c)
);
}
);
width = 844;
}
);
unicode = 8362;
},
{
glyphname = rublesign;
layers = (
{
layerId = m001;
shapes = (
{
closed = 1;
nodes = (
(37,204,l),
(42,165,l),
(443,165,l),
(438,204,l)
);
},
{
closed = 1;
nodes = (
(149,264,l),
(252,264,l),
(305,264,o),
(398,289,o),
(468,340,o),
(508,420,o),
(508,475,q),
(508,549,o),
(444,639,o),
(334,680,o),
(263,680,q),
(100,680,l),
(100,0,l),
(149,0,l)
);
},
{
closed = 1;
nodes = (
(330,640,o),
(412,606,o),
(458,533,o),
(458,474,q),
(458,418,o),
(406,341,o),
(318,303,o),
(264,303,q),
(149,303,l),
(149,640,l),
(275,640,l)
);
},
{
closed = 1;
nodes = (
(37,303,l),
(42,264,l),
(130,264,l),
(125,303,l)
);
}
);
width = 548;
},
{
layerId = m003;
shapes = (
{
closed = 1;
nodes = (
(0,166,l),
(10,43,l),
(506,43,l),
(496,166,l)
);
},
{
closed = 1;
nodes = (
(262,208,l),
(358,208,l),
(413,208,o),
(516,234,o),
(598,290,o),
(646,378,o),
(646,439,q),
(646,521,o),
(569,628,o),
(442,680,o),
(366,680,q),
(80,680,l),
(80,0,l),
(262,0,l)
);
},
{
closed = 1;
nodes = (
(391,537,o),
(434,513,o),
(458,469,o),
(458,439,q),
(458,413,o),
(433,373,o),
(390,351,o),
(362,351,q),
(262,351,l),
(262,537,l),
(360,537,l)
);
},
{
closed = 1;
nodes = (
(0,340,l),
(10,217,l),
(216,217,l),
(206,340,l)
);
}
);
width = 666;
}
);
unicode = 8381;
},
{
glyphname = sterling;
layers = (
{
layerId = m001;
shapes = (
{
closed = 1;
nodes = (
(416,0,l),
(410,39,l),
(148,39,l),
(170,58,o),
(182,109,o),
(182,143,q),
(182,334,l),
(344,334,l),
(322,371,l),
(182,371,l),
(182,561,l),
(182,597,o),
(213,643,o),
(251,643,q),
(261,643,o),
(286,637,o),
(292,634,q),
(304,671,l),
(298,674,o),
(277,680,o),
(252,684,o),
(238,684,q),
(202,684,o),
(156,650,o),
(133,587,o),
(133,545,q),
(133,371,l),
(60,371,l),
(62,334,l),
(133,334,l),
(133,122,l),
(133,86,o),
(104,40,o),
(68,39,q),
(70,0,l)
);
}
);
width = 426;
},
{
layerId = m003;
shapes = (
{
closed = 1;
nodes = (
(512,0,l),
(495,143,l),
(298,143,l),
(300,153,o),
(303,176,o),
(303,188,q),
(303,268,l),
(453,268,l),
(436,411,l),
(303,411,l),
(303,471,l),
(303,501,o),
(338,536,o),
(370,536,q),
(383,536,o),
(423,527,o),
(440,517,q),
(492,641,l),
(480,652,o),
(435,671,o),
(382,684,o),
(358,684,q),
(296,684,o),
(188,641,o),
(121,556,o),
(121,491,q),
(121,411,l),
(40,411,l),
(40,268,l),
(121,268,l),
(121,208,l),
(121,179,o),
(86,144,o),
(39,143,q),
(49,0,l)
);
}
);
width = 522;
}
);
unicode = 163;
},
{
glyphname = turkishlirasign;
layers = (
{
layerId = m001;
shapes = (
{
closed = 1;
nodes = (
(175,0,l),
(230,0,o),
(336,52,o),
(421,144,o),
(471,264,o),
(471,331,q),
(425,331,l),
(425,276,o),
(381,171,o),
(307,88,o),
(219,39,o),
(175,39,q),
(175,399,l),
(344,459,l),
(337,497,l),
(175,440,l),
(175,507,l),
(344,567,l),
(337,605,l),
(175,548,l),
(175,706,l),
(126,696,l),
(126,530,l),
(0,486,l),
(6,447,l),
(126,489,l),
(126,422,l),
(0,378,l),
(6,339,l),
(126,381,l),
(126,0,l)
);
}
);
width = 491;
},
{
layerId = m003;
shapes = (
{
closed = 1;
nodes = (
(261,0,l),
(344,0,o),
(472,50,o),
(559,144,o),
(604,277,o),
(604,360,q),
(416,361,l),
(416,307,o),
(391,228,o),
(349,176,o),
(293,149,o),
(261,149,q),
(261,342,l),
(404,392,l),
(366,504,l),
(261,467,l),
(261,500,l),
(404,550,l),
(366,662,l),
(261,625,l),
(261,707,l),
(79,692,l),
(79,561,l),
(0,533,l),
(9,412,l),
(79,436,l),
(79,403,l),
(0,375,l),
(9,255,l),
(79,279,l),
(79,0,l)
);
}
);
width = 624;
}
);
unicode = 8378;
},
{
glyphname = yen;
layers = (
{
layerId = m001;
shapes = (
{
closed = 1;
nodes = (
(67,259,l),
(468,259,l),
(463,298,l),
(62,298,l)
);
},
{
closed = 1;
nodes = (
(67,90,l),
(468,90,l),
(463,129,l),
(62,129,l)
);
},
{
closed = 1;
nodes = (
(284,274,l),
(520,680,l),
(463,680,l),
(259,321,l),
(59,689,l),
(10,668,l),
(235,269,l),
(235,0,l),
(284,0,l)
);
}
);
width = 530;
},
{
layerId = m003;
shapes = (
{
closed = 1;
nodes = (
(108,200,l),
(556,200,l),
(546,316,l),
(98,316,l)
);
},
{
closed = 1;
nodes = (
(108,46,l),
(556,46,l),
(546,162,l),
(98,162,l)
);
},
{
closed = 1;
nodes = (
(408,266,l),
(644,680,l),
(457,680,l),
(316,435,l),
(184,694,l),
(10,646,l),
(226,268,l),
(226,0,l),
(408,0,l)
);
}
);
width = 654;
}
);
unicode = 165;
},
{
glyphname = bulletoperator;
layers = (
{
layerId = m001;
shapes = (
{
closed = 1;
nodes = (
(109,265,o),
(136,282,o),
(153,310,o),
(153,326,q),
(153,344,o),
(136,372,o),
(109,388,o),
(92,388,q),
(75,388,o),
(46,372,o),
(30,344,o),
(30,326,q),
(30,310,o),
(46,282,o),
(75,265,o),
(92,265,q)
);
}
);
width = 183;
},
{
layerId = m003;
shapes = (
{
closed = 1;
nodes = (
(187,208,o),
(244,241,o),
(278,297,o),
(278,331,q),
(278,365,o),
(244,421,o),
(187,455,o),
(153,455,q),
(119,455,o),
(63,421,o),
(30,365,o),
(30,331,q),
(30,297,o),
(63,241,o),
(119,208,o),
(153,208,q)
);
}
);
width = 308;
}
);
unicode = 8729;
},
{
glyphname = divisionslash;
layers = (
{
layerId = m001;
shapes = (
{
closed = 1;
nodes = (
(10,0,l),
(56,-4,l),
(365,706,l),
(318,710,l)
);
}
);
width = 375;
},
{
layerId = m003;
shapes = (
{
closed = 1;
nodes = (
(10,0,l),
(197,0,l),
(496,706,l),
(308,706,l)
);
}
);
width = 506;
}
);
unicode = 8725;
},
{
glyphname = plus;
layers = (
{
layerId = m001;
shapes = (
{
closed = 1;
nodes = (
(287,292,l),
(287,531,l),
(238,534,l),
(238,292,l),
(30,292,l),
(38,255,l),
(238,255,l),
(238,8,l),
(287,4,l),
(287,255,l),
(497,255,l),
(487,292,l)
);
}
);
width = 527;
},
{
layerId = m003;
shapes = (
{
closed = 1;
nodes = (
(376,345,l),
(376,530,l),
(208,530,l),
(208,345,l),
(30,345,l),
(41,202,l),
(208,202,l),
(208,8,l),
(376,0,l),
(376,202,l),
(553,202,l),
(543,345,l)
);
}
);
width = 583;
}
);
unicode = 43;
},
{
glyphname = minus;
layers = (
{
layerId = m001;
shapes = (
{
closed = 1;
nodes = (
(30,293,l),
(38,254,l),
(436,254,l),
(428,293,l)
);
}
);
width = 466;
},
{
layerId = m003;
shapes = (
{
closed = 1;
nodes = (
(30,345,l),
(41,202,l),
(466,202,l),
(456,345,l)
);
}
);
width = 496;
}
);
unicode = 8722;
},
{
glyphname = multiply;
layers = (
{
layerId = m001;
shapes = (
{
closed = 1;
nodes = (
(423,31,l),
(374,31,l),
(231,207,l),
(81,31,l),
(30,31,l),
(213,250,l),
(47,464,l),
(96,464,l),
(236,288,l),
(389,464,l),
(440,464,l),
(257,245,l)
);
}
);
width = 470;
},
{
layerId = m003;
shapes = (
{
closed = 1;
nodes = (
(560,29,l),
(379,29,l),
(303,135,l),
(215,29,l),
(30,29,l),
(222,263,l),
(47,484,l),
(228,484,l),
(303,378,l),
(392,484,l),
(577,484,l),
(385,250,l)
);
}
);
width = 607;
}
);
unicode = 215;
},
{
glyphname = divide;
layers = (
{
layerId = m001;
shapes = (
{
closed = 1;
nodes = (
(264,377,o),
(287,399,o),
(287,415,q),
(287,431,o),
(264,453,o),
(248,453,q),
(231,453,o),
(210,431,o),
(210,415,q),
(210,399,o),
(231,377,o),
(248,377,q)
);
},
{
closed = 1;
nodes = (
(30,292,l),
(38,255,l),
(467,255,l),
(457,292,l)
);
},
{
closed = 1;
nodes = (
(267,74,o),
(290,96,o),
(290,112,q),
(290,128,o),
(267,150,o),
(251,150,q),
(234,150,o),
(213,128,o),
(213,112,q),
(213,96,o),
(234,74,o),
(251,74,q)
);
}
);
width = 497;
},
{
layerId = m003;
shapes = (
{
closed = 1;
nodes = (
(294,368,o),
(347,420,o),
(347,459,q),
(347,498,o),
(294,551,o),
(256,551,q),
(217,551,o),
(164,498,o),
(164,459,q),
(164,420,o),
(217,368,o),
(256,368,q)
);
},
{
closed = 1;
nodes = (
(30,340,l),
(41,207,l),
(482,207,l),
(472,340,l)
);
},
{
closed = 1;
nodes = (
(294,0,o),
(347,52,o),
(347,91,q),
(347,130,o),
(294,183,o),
(256,183,q),
(217,183,o),
(164,130,o),
(164,91,q),
(164,52,o),
(217,0,o),
(256,0,q)
);
}
);
width = 512;
}
);
unicode = 247;
},
{
glyphname = equal;
layers = (
{
layerId = m001;
shapes = (
{
closed = 1;
nodes = (
(30,371,l),
(38,332,l),
(467,332,l),
(460,371,l)
);
},
{
closed = 1;
nodes = (
(30,179,l),
(38,140,l),
(467,140,l),
(460,179,l)
);
}
);
width = 497;
},
{
layerId = m003;
shapes = (
{
closed = 1;
nodes = (
(30,426,l),
(41,293,l),
(513,293,l),
(503,426,l)
);
},
{
closed = 1;
nodes = (
(30,215,l),
(41,82,l),
(513,82,l),
(503,215,l)
);
}
);
width = 543;
}
);
unicode = 61;
},
{
glyphname = notequalto;
layers = (
{
layerId = m001;
shapes = (
{
closed = 1;
nodes = (
(276,371,l),
(30,371,l),
(38,332,l),
(259,332,l),
(192,179,l),
(30,179,l),
(38,140,l),
(175,140,l),
(109,-10,l),
(153,-14,l),
(221,140,l),
(467,140,l),
(460,179,l),
(238,179,l),
(305,332,l),
(467,332,l),
(460,371,l),
(322,371,l),
(388,519,l),
(343,523,l)
);
}
);
width = 497;
},
{
layerId = m003;
shapes = (
{
closed = 1;
nodes = (
(278,429,l),
(30,429,l),
(41,286,l),
(215,286,l),
(184,215,l),
(30,215,l),
(41,72,l),
(120,72,l),
(84,-10,l),
(251,-10,l),
(290,72,l),
(543,72,l),
(533,215,l),
(353,215,l),
(385,286,l),
(543,286,l),
(533,429,l),
(449,429,l),
(488,517,l),
(319,517,l)
);
}
);
width = 573;
}
);
unicode = 8800;
},
{
glyphname = greater;
layers = (
{
layerId = m001;
shapes = (
{
closed = 1;
nodes = (
(43,470,l),
(20,435,l),
(246,244,l),
(20,53,l),
(43,19,l),
(292,230,l),
(292,258,l)
);
}
);
width = 322;
},
{
layerId = m003;
shapes = (
{
closed = 1;
nodes = (
(53,505,l),
(20,346,l),
(155,250,l),
(20,155,l),
(53,-2,l),
(352,210,l),
(352,291,l)
);
}
);
width = 382;
}
);
unicode = 62;
},
{
glyphname = less;
layers = (
{
layerId = m001;
shapes = (
{
closed = 1;
nodes = (
(76,245,l),
(302,436,l),
(279,470,l),
(30,259,l),
(30,231,l),
(279,19,l),
(302,54,l)
);
}
);
width = 322;
},
{
layerId = m003;
shapes = (
{
closed = 1;
nodes = (
(227,253,l),
(362,348,l),
(329,505,l),
(30,293,l),
(30,212,l),
(329,-2,l),
(362,157,l)
);
}
);
width = 382;
}
);
unicode = 60;
},
{
glyphname = greaterthanorequalto;
layers = (
{
layerId = m001;
shapes = (
{
closed = 1;
nodes = (
(43,470,l),
(20,440,l),
(241,292,l),
(20,146,l),
(43,113,l),
(292,278,l),
(292,306,l)
);
},
{
closed = 1;
nodes = (
(20,39,l),
(28,0,l),
(288,0,l),
(282,39,l)
);
}
);
width = 322;
},
{
layerId = m003;
shapes = (
{
closed = 1;
nodes = (
(60,565,l),
(27,426,l),
(162,360,l),
(27,295,l),
(60,158,l),
(359,320,l),
(359,401,l)
);
},
{
closed = 1;
nodes = (
(20,123,l),
(31,0,l),
(366,0,l),
(356,123,l)
);
}
);
width = 396;
}
);
unicode = 8805;
},
{
glyphname = lessthanorequalto;
layers = (
{
layerId = m001;
shapes = (
{
closed = 1;
nodes = (
(81,291,l),
(302,437,l),
(279,470,l),
(30,305,l),
(30,277,l),
(279,113,l),
(302,143,l)
);
},
{
closed = 1;
nodes = (
(31,39,l),
(39,0,l),
(299,0,l),
(293,39,l)
);
}
);
width = 322;
},
{
layerId = m003;
shapes = (
{
closed = 1;
nodes = (
(234,363,l),
(369,428,l),
(336,565,l),
(37,403,l),
(37,322,l),
(336,158,l),
(369,297,l)
);
},
{
closed = 1;
nodes = (
(30,123,l),
(41,0,l),
(376,0,l),
(366,123,l)
);
}
);
width = 396;
}
);
unicode = 8804;
},
{
glyphname = plusminus;
layers = (
{
layerId = m001;
shapes = (
{
closed = 1;
nodes = (
(266,345,l),
(266,531,l),
(217,534,l),
(217,345,l),
(30,345,l),
(38,308,l),
(217,308,l),
(217,113,l),
(266,108,l),
(266,308,l),
(455,308,l),
(447,345,l)
);
},
{
closed = 1;
nodes = (
(30,37,l),
(38,0,l),
(462,0,l),
(454,37,l)
);
}
);
width = 492;
},
{
layerId = m003;
shapes = (
{
closed = 1;
nodes = (
(348,415,l),
(348,570,l),
(200,570,l),
(200,415,l),
(32,415,l),
(43,292,l),
(200,292,l),
(200,157,l),
(348,149,l),
(348,292,l),
(515,292,l),
(505,415,l)
);
},
{
closed = 1;
nodes = (
(30,123,l),
(41,0,l),
(513,0,l),
(503,123,l)
);
}
);
width = 545;
}
);
unicode = 177;
},
{
glyphname = almostequalto;
layers = (
{
layerId = m001;
shapes = (
{
closed = 1;
nodes = (
(430,367,o),
(407,350,o),
(378,342,o),
(362,342,q),
(343,342,o),
(288,354,o),
(253,365,q),
(184,387,o),
(139,387,q),
(122,387,o),
(87,379,o),
(55,361,o),
(33,335,o),
(30,317,q),
(68,308,l),
(73,322,o),
(94,339,o),
(124,347,o),
(140,347,q),
(184,347,o),
(256,325,q),
(293,314,o),
(346,302,o),
(363,302,q),
(380,302,o),
(415,310,o),
(447,328,o),
(469,354,o),
(472,372,q),
(434,381,l)
);
},
{
closed = 1;
nodes = (
(430,185,o),
(407,168,o),
(378,160,o),
(362,160,q),
(343,160,o),
(288,172,o),
(253,183,q),
(184,205,o),
(139,205,q),
(122,205,o),
(87,197,o),
(55,179,o),
(33,153,o),
(30,135,q),
(68,126,l),
(73,140,o),
(94,157,o),
(124,165,o),
(140,165,q),
(184,165,o),
(256,143,q),
(293,132,o),
(346,120,o),
(363,120,q),
(380,120,o),
(415,128,o),
(447,146,o),
(469,172,o),
(472,190,q),
(434,199,l)
);
}
);
width = 502;
},
{
layerId = m003;
shapes = (
{
closed = 1;
nodes = (
(409,462,o),
(398,439,o),
(380,423,o),
(367,423,q),
(351,423,o),
(310,432,o),
(284,440,q),
(230,457,o),
(190,457,q),
(151,457,o),
(91,436,o),
(50,396,o),
(30,336,o),
(30,297,q),
(156,277,l),
(156,288,o),
(177,310,o),
(206,326,o),
(218,326,q),
(260,326,o),
(309,309,q),
(332,301,o),
(377,292,o),
(399,292,q),
(437,292,o),
(489,313,o),
(521,354,o),
(535,413,o),
(535,452,q),
(409,472,l)
);
},
{
closed = 1;
nodes = (
(409,256,o),
(398,233,o),
(380,217,o),
(367,217,q),
(351,217,o),
(310,226,o),
(284,234,q),
(230,251,o),
(190,251,q),
(151,251,o),
(91,231,o),
(50,192,o),
(30,132,o),
(30,91,q),
(156,71,l),
(156,82,o),
(177,104,o),
(206,120,o),
(218,120,q),
(260,120,o),
(309,103,q),
(332,95,o),
(377,86,o),
(399,86,q),
(437,86,o),
(489,108,o),
(521,150,o),
(535,209,o),
(535,246,q),
(409,266,l)
);
}
);
width = 565;
}
);
unicode = 8776;
},
